<?xml version="1.0" encoding="utf-8"?>
<!-- Generator: Adobe Illustrator 24.0.0, SVG Export Plug-In . SVG Version: 6.00 Build 0)  -->
<svg version="1.1" id="Layer_1" xmlns="http://www.w3.org/2000/svg" xmlns:xlink="http://www.w3.org/1999/xlink" x="0px" y="0px"
	 viewBox="0 0 250 250" style="enable-background:new 0 0 250 250;" xml:space="preserve">
<style type="text/css">
	.st0{fill:none;stroke:#0D0D0D;stroke-width:1.5;stroke-linejoin:round;stroke-miterlimit:10;}
	.st1{fill:none;stroke:#0D0D0D;stroke-width:1.5;stroke-miterlimit:10;}
	.st2{fill:#0D0D0D;}
	.st3{font-family:'Calibri-Bold';}
	.st4{font-size:8.25px;}
	.st5{fill:none;stroke:#999999;stroke-width:1.5;stroke-miterlimit:10;}
	.st6{fill:none;stroke:#000000;stroke-width:1.5;stroke-miterlimit:10;}
	.st7{fill:none;stroke:#666666;stroke-width:1.5;stroke-linejoin:round;stroke-miterlimit:10;}
</style>
<polyline class="st0" points="8,196.1 8,201.1 242,201.1 242,196.1 "/>
<line class="st1" x1="46.6" y1="176.8" x2="46.6" y2="164"/>
<line class="st1" x1="46.6" y1="149.4" x2="46.6" y2="145.6"/>
<line class="st1" x1="46.6" y1="136.6" x2="46.6" y2="123.9"/>
<path class="st1" d="M50.1,180.4c0,1.9-1.5,3.4-3.4,3.4s-3.4-1.5-3.4-3.4s1.5-3.4,3.4-3.4C48.5,176.9,50.1,178.5,50.1,180.4z"/>
<polyline class="st1" points="51.9,180.4 46.6,185.7 41.3,180.4 "/>
<polyline class="st0" points="46.6,167.8 43.4,167.8 49.9,169.5 43.4,171.2 49.9,173 43.4,174.7 49.9,176.5 46.6,176.5 "/>
<path class="st1" d="M50.1,139.9c0,1.9-1.5,3.4-3.4,3.4s-3.4-1.5-3.4-3.4s1.5-3.4,3.4-3.4C48.5,136.5,50.1,138,50.1,139.9z"/>
<polyline class="st1" points="51.9,139.9 46.6,145.3 41.3,139.9 "/>
<polyline class="st0" points="46.6,127.3 43.4,127.3 49.9,129.1 43.4,130.8 49.9,132.6 43.4,134.3 49.9,136 46.6,136 "/>
<g>
	<circle class="st1" cx="46.6" cy="156.5" r="7.5"/>
	<polygon class="st2" points="46.6,149 43.6,154.3 49.7,154.3 	"/>
</g>
<line class="st1" x1="34.3" y1="155" x2="38.8" y2="155"/>
<line class="st1" x1="38.8" y1="158" x2="32.8" y2="158"/>
<line class="st1" x1="31.7" y1="161.5" x2="35.5" y2="151.2"/>
<circle class="st1" cx="35.9" cy="149.8" r="1.5"/>
<line class="st1" x1="63" y1="119.9" x2="66.9" y2="112"/>
<polygon class="st2" points="64.6,119.7 61.2,123.5 62.2,118.5 "/>
<polygon class="st2" points="67.7,113.4 68.7,108.5 65.4,112.3 "/>
<line class="st1" x1="66.9" y1="119.9" x2="63" y2="112"/>
<polygon class="st2" points="67.7,118.5 68.7,123.5 65.4,119.7 "/>
<polygon class="st2" points="64.6,112.3 61.2,108.5 62.2,113.4 "/>
<g>
	<line class="st1" x1="37.3" y1="114.5" x2="42.5" y2="114.5"/>
	<line class="st1" x1="42.5" y1="117.5" x2="35.8" y2="117.5"/>
	<line class="st1" x1="34.7" y1="120.8" x2="38.5" y2="110.5"/>
	<circle class="st1" cx="38.9" cy="109.2" r="1.5"/>
	<g>
		<line class="st1" x1="57.9" y1="123.1" x2="57.9" y2="108.1"/>
		<rect x="42.9" y="108.5" class="st1" width="30" height="15"/>
	</g>
</g>
<line class="st1" x1="46.6" y1="119.4" x2="46.6" y2="112.6"/>
<polygon class="st2" points="47.9,118.6 46.6,123.5 45.3,118.6 "/>
<polygon class="st2" points="47.9,113.4 46.6,108.5 45.3,113.4 "/>
<line class="st1" x1="54.1" y1="112.6" x2="54.1" y2="119.4"/>
<polygon class="st2" points="52.8,113.4 54.1,108.5 55.4,113.4 "/>
<polygon class="st2" points="52.8,118.6 54.1,123.5 55.4,118.6 "/>
<line class="st1" x1="46.6" y1="186.1" x2="46.6" y2="201.1"/>
<line class="st1" x1="46.6" y1="108.9" x2="46.6" y2="100.6"/>
<path class="st1" d="M188.4,171.7c0,0.1,0.1,0.2,0.1,0.3c0.6,1.3,0.9,2.8,0.9,4.4c0,1.6-0.3,3-0.9,4.4"/>
<polygon class="st2" points="187.7,173.2 186.1,168.4 189.9,171.8 "/>
<circle class="st1" cx="207.9" cy="178.2" r="7.5"/>
<polygon class="st2" points="207.9,170.7 204.9,175.9 210.9,175.9 "/>
<circle class="st1" cx="222.9" cy="178.2" r="7.5"/>
<polygon class="st2" points="222.1,170.7 219.1,175.9 225.1,175.9 "/>
<line class="st1" x1="185.8" y1="176.8" x2="200.8" y2="176.8"/>
<line class="st1" x1="200.8" y1="179.8" x2="185.8" y2="179.8"/>
<line class="st1" x1="192.9" y1="181.6" x2="192.9" y2="174.9"/>
<line class="st1" x1="195.9" y1="181.6" x2="195.9" y2="174.9"/>
<rect x="170.4" y="170.8" class="st1" width="15" height="15"/>
<text transform="matrix(1 0 0 1 174.2969 180.6904)" class="st2 st3 st4">M</text>
<line class="st1" x1="207.9" y1="185.4" x2="207.9" y2="200.4"/>
<line class="st1" x1="222.9" y1="185.4" x2="222.9" y2="200.4"/>
<line class="st1" x1="207.9" y1="170.4" x2="207.9" y2="162.1"/>
<line class="st1" x1="222.9" y1="170.4" x2="222.9" y2="162.1"/>
<rect x="194.4" y="167" class="st5" width="39.8" height="22.5"/>
<line class="st1" x1="215.8" y1="114.5" x2="207.5" y2="114.5"/>
<line class="st1" x1="215.8" y1="100.3" x2="207.5" y2="100.3"/>
<line class="st1" x1="143.8" y1="114.5" x2="135.5" y2="114.5"/>
<line class="st1" x1="143.8" y1="100.3" x2="135.5" y2="100.3"/>
<rect x="139.6" y="66.5" class="st5" width="72" height="72"/>
<path class="st1" d="M149.1,111.2c-1.9,0-3.4,1.5-3.4,3.4s1.5,3.4,3.4,3.4s3.4-1.5,3.4-3.4C152.6,112.7,151,111.2,149.1,111.2z"/>
<polyline class="st1" points="149.1,109.3 143.8,114.6 149.1,119.9 "/>
<line class="st1" x1="152.8" y1="114.5" x2="161" y2="114.5"/>
<path class="st1" d="M149.1,96.8c-1.9,0-3.4,1.5-3.4,3.4s1.5,3.4,3.4,3.4s3.4-1.5,3.4-3.4S151,96.8,149.1,96.8z"/>
<polyline class="st1" points="149.1,95 143.8,100.3 149.1,105.6 "/>
<line class="st1" x1="152.8" y1="100.3" x2="161" y2="100.3"/>
<path class="st1" d="M149.1,125.3c-1.9,0-3.4,1.5-3.4,3.4s1.5,3.4,3.4,3.4s3.4-1.5,3.4-3.4C152.6,126.9,151,125.3,149.1,125.3z"/>
<polyline class="st1" points="149.1,123.4 143.8,128.8 149.1,134.1 "/>
<polyline class="st1" points="160.6,48.4 160.6,128.7 160.6,128.8 152.8,128.8 "/>
<path class="st1" d="M202.1,111.1c1.9,0,3.4,1.5,3.4,3.4s-1.5,3.4-3.4,3.4s-3.4-1.5-3.4-3.4S200.2,111.1,202.1,111.1z"/>
<polyline class="st1" points="202.1,109.2 207.4,114.5 202.1,119.8 "/>
<line class="st1" x1="198.5" y1="114.5" x2="191" y2="114.5"/>
<path class="st1" d="M202.1,96.8c1.9,0,3.4,1.5,3.4,3.4s-1.5,3.4-3.4,3.4s-3.4-1.5-3.4-3.4S200.2,96.8,202.1,96.8z"/>
<polyline class="st1" points="202.1,95 207.4,100.3 202.1,105.6 "/>
<line class="st1" x1="198.5" y1="100.3" x2="191" y2="100.3"/>
<path class="st1" d="M202.1,125.3c1.9,0,3.4,1.5,3.4,3.4s-1.5,3.4-3.4,3.4s-3.4-1.5-3.4-3.4C198.7,126.9,200.2,125.3,202.1,125.3z"
	/>
<polyline class="st1" points="202.1,123.4 207.4,128.8 202.1,134.1 "/>
<line class="st1" x1="190.6" y1="128.8" x2="198.5" y2="128.8"/>
<polyline class="st1" points="190.6,48.4 190.6,128.7 190.6,128.8 "/>
<circle class="st1" cx="128.8" cy="178.2" r="7.5"/>
<polygon class="st2" points="128.8,170.7 125.7,175.9 131.8,175.9 "/>
<circle class="st1" cx="143.8" cy="178.2" r="7.5"/>
<polygon class="st2" points="143.8,170.7 140.7,175.9 146.8,175.9 "/>
<line class="st1" x1="106.5" y1="176.7" x2="121.5" y2="176.7"/>
<line class="st1" x1="121.5" y1="179.7" x2="106.5" y2="179.7"/>
<line class="st1" x1="114.1" y1="181.6" x2="114.1" y2="174.9"/>
<line class="st1" x1="117.1" y1="181.6" x2="117.1" y2="174.9"/>
<text transform="matrix(1 0 0 1 95.4277 181.0137)" class="st2 st3 st4">M</text>
<circle class="st1" cx="99" cy="178.2" r="7.5"/>
<path class="st1" d="M108.9,173.5c0,0.1,0.1,0.2,0.1,0.3c0.6,1.3,0.9,2.8,0.9,4.4s-0.3,3-0.9,4.4"/>
<polygon class="st2" points="108.2,175 106.6,170.2 110.4,173.6 "/>
<line class="st1" x1="129.1" y1="185.4" x2="129.1" y2="200.4"/>
<line class="st1" x1="143.4" y1="185.4" x2="143.4" y2="200.4"/>
<line class="st1" x1="129.1" y1="170.4" x2="129.1" y2="162.1"/>
<line class="st1" x1="144.1" y1="170.4" x2="144.1" y2="162.1"/>
<rect x="115.6" y="167" class="st5" width="39.8" height="22.5"/>
<rect x="27.9" y="104" class="st5" width="48.7" height="85.5"/>
<polyline class="st1" points="136.3,100.3 69.1,100.3 69.1,108.1 "/>
<polyline class="st6" points="215.8,114.5 222.9,114.5 222.9,162.9 "/>
<polyline class="st6" points="136.3,114.5 129.1,114.5 129.1,162.1 "/>
<polyline class="st6" points="144.1,162.1 144.1,147.5 216.1,147.5 216.1,128.8 216,128.8 207.5,128.8 "/>
<circle class="st2" cx="190.6" cy="114.5" r="1.1"/>
<circle class="st2" cx="190.6" cy="100.3" r="1.1"/>
<circle class="st2" cx="160.6" cy="114.5" r="1.1"/>
<circle class="st2" cx="160.6" cy="100.3" r="1.1"/>
<path class="st1" d="M143.8,128.8h-7.9V155h6c0-1.2,1-2.3,2.3-2.3s2.3,1,2.3,2.3H208v7.9"/>
<path class="st1" d="M215.8,100.3h6.4V59h-29.3c0-1.3-1-2.3-2.3-2.3s-2.3,1-2.3,2.3h-25.5c0-1.3-1-2.3-2.3-2.3s-2.3,1-2.3,2.3H46.6
	v41.6"/>
<line class="st7" x1="18" y1="200.1" x2="18" y2="48.1"/>
</svg>
