<?xml version="1.0" encoding="utf-8"?>
<!-- Generator: Adobe Illustrator 24.0.0, SVG Export Plug-In . SVG Version: 6.00 Build 0)  -->
<svg version="1.1" id="Layer_1" xmlns="http://www.w3.org/2000/svg" xmlns:xlink="http://www.w3.org/1999/xlink" x="0px" y="0px"
	 viewBox="0 0 160 160" style="enable-background:new 0 0 160 160;" xml:space="preserve">
<style type="text/css">
	.st0{fill:none;stroke:#0D0D0D;stroke-miterlimit:10;}
	.st1{fill:none;stroke:#0D0D0D;stroke-linejoin:round;stroke-miterlimit:10;}
	.st2{fill:#0D0D0D;}
</style>
<line class="st0" x1="43.7" y1="89" x2="50.3" y2="89"/>
<line class="st0" x1="43.7" y1="115.7" x2="51.7" y2="115.7"/>
<g>
	<polyline class="st0" points="51,83 54.2,83 57.4,83 60.5,83 63.7,83 	"/>
	<polygon class="st0" points="50.7,96.3 50.7,94.7 50.7,93 50.7,91.3 50.7,89.7 50.7,88 50.7,86.3 50.7,84.7 50.7,83 50.7,81.3 
		50.7,79.7 50.7,78 50.7,76.3 50.7,74.7 50.7,73 50.7,71.3 50.7,69.7 51.5,69.7 52.4,69.7 53.2,69.7 54,69.7 54.9,69.7 55.7,69.7 
		56.5,69.7 57.4,69.7 58.2,69.7 59,69.7 59.9,69.7 60.7,69.7 61.5,69.7 62.4,69.7 63.2,69.7 64,69.7 64,71.3 64,73 64,74.7 64,76.3 
		64,78 64,79.7 64,81.3 64,83 64,84.7 64,86.3 64,88 64,89.7 64,91.3 64,93 64,94.7 64,96.3 63.2,96.3 62.4,96.3 61.5,96.3 
		60.7,96.3 59.9,96.3 59,96.3 58.2,96.3 57.4,96.3 56.5,96.3 55.7,96.3 54.9,96.3 54,96.3 53.2,96.3 52.4,96.3 51.5,96.3 	"/>
	<g>
		<line class="st0" x1="60.7" y1="71.3" x2="60.7" y2="74.7"/>
		<line class="st0" x1="63.7" y1="73" x2="61" y2="73"/>
	</g>
	<g>
		<line class="st0" x1="60.7" y1="94.7" x2="60.7" y2="91.3"/>
		<line class="st0" x1="63.7" y1="93" x2="61" y2="93"/>
	</g>
	<g>
		<rect x="50.7" y="57.6" class="st0" width="7.3" height="12"/>
		<line class="st0" x1="51" y1="61.5" x2="58.3" y2="65.9"/>
	</g>
	<polyline class="st1" points="53.7,96.3 50.9,96.3 56.8,97.9 50.9,99.5 56.8,101.1 50.9,102.7 56.8,104.3 53.7,104.3 	"/>
	<g>
		<line class="st0" x1="59.8" y1="87" x2="54.9" y2="88.1"/>
		<polygon class="st2" points="59.5,85.9 64,86.1 60,88.1 		"/>
		<polygon class="st2" points="54.6,86.9 52.6,88 50.7,89 52.9,89.1 55.1,89.2 54.9,88.1 		"/>
	</g>
	<g>
		<line class="st0" x1="59.8" y1="79" x2="54.9" y2="77.9"/>
		<polygon class="st2" points="59.5,80.1 64,79.9 60,77.9 		"/>
		<polygon class="st2" points="54.6,79.1 52.6,78 50.7,77 52.9,76.9 55.1,76.8 54.9,77.9 		"/>
	</g>
</g>
<polyline class="st0" points="85.7,109.7 88.5,109.7 91.7,109.7 94.9,109.7 98.3,109.7 "/>
<polygon class="st0" points="85.3,123 85.3,121.3 85.3,119.7 85.3,118 85.3,116.3 85.3,114.7 85.3,113 85.3,111.3 85.3,109.7 
	85.3,108 85.3,106.3 85.3,104.7 85.3,103 85.3,101.3 85.3,99.7 85.3,98 85.3,96.3 86.2,96.3 87,96.3 87.8,96.3 88.7,96.3 89.5,96.3 
	90.3,96.3 91.2,96.3 92,96.3 92.8,96.3 93.7,96.3 94.5,96.3 95.3,96.3 96.2,96.3 97,96.3 97.8,96.3 98.7,96.3 98.7,98 98.7,99.7 
	98.7,101.3 98.7,103 98.7,104.7 98.7,106.3 98.7,108 98.7,109.7 98.7,111.3 98.7,113 98.7,114.7 98.7,116.3 98.7,118 98.7,119.7 
	98.7,121.3 98.7,123 97.8,123 97,123 96.2,123 95.3,123 94.5,123 93.7,123 92.8,123 92,123 91.2,123 90.3,123 89.5,123 88.7,123 
	87.8,123 87,123 86.2,123 "/>
<g>
	<line class="st0" x1="95.3" y1="98" x2="95.3" y2="101.3"/>
	<line class="st0" x1="98.3" y1="99.7" x2="95.7" y2="99.7"/>
</g>
<g>
	<line class="st0" x1="95.3" y1="121.3" x2="95.3" y2="118"/>
	<line class="st0" x1="98.3" y1="119.7" x2="95.7" y2="119.7"/>
</g>
<g>
	<rect x="85.4" y="84.3" class="st0" width="7.3" height="12"/>
	<line class="st0" x1="85.4" y1="88.2" x2="92.6" y2="92.5"/>
</g>
<polyline class="st1" points="88.3,123 85.2,123 91.2,124.6 85.2,126.2 91.2,127.8 85.2,129.4 91.2,131 88.3,131 "/>
<g>
	<line class="st0" x1="94.1" y1="113.7" x2="89.2" y2="114.7"/>
	<polygon class="st2" points="93.9,112.5 98.4,112.7 94.4,114.8 	"/>
	<polygon class="st2" points="89,113.6 87,114.6 85,115.7 87.2,115.8 89.5,115.9 89.2,114.7 	"/>
</g>
<g>
	<line class="st0" x1="94.1" y1="105.7" x2="89.2" y2="104.6"/>
	<polygon class="st2" points="93.9,106.8 98.4,106.6 94.4,104.5 	"/>
	<polygon class="st2" points="89,105.7 87,104.7 85,103.6 87.2,103.5 89.5,103.4 89.2,104.6 	"/>
</g>
<polyline class="st0" points="64.3,93 74.7,93 74.7,115.7 51.7,115.7 "/>
<line class="st0" x1="71.7" y1="115.7" x2="85" y2="115.7"/>
<polyline class="st0" points="63.7,86.3 74.7,86.3 74.7,33 122.3,33 "/>
<line class="st0" x1="99" y1="113" x2="122.3" y2="113"/>
<path class="st0" d="M122.3,93h-13.7v18c1.1,0,2,0.9,2,2s-0.9,2-2,2v4.7H99"/>
<circle class="st2" cx="74.7" cy="115.7" r="1"/>
</svg>
