<?xml version="1.0" encoding="utf-8"?>
<!-- Generator: Adobe Illustrator 24.0.0, SVG Export Plug-In . SVG Version: 6.00 Build 0)  -->
<svg version="1.1" id="Layer_1" xmlns="http://www.w3.org/2000/svg" xmlns:xlink="http://www.w3.org/1999/xlink" x="0px" y="0px"
	 viewBox="0 0 236 236" style="enable-background:new 0 0 236 236;" xml:space="preserve">
<style type="text/css">
	.st0{fill:none;stroke:#0D0D0D;stroke-width:1.5;stroke-miterlimit:10;}
	.st1{fill:none;stroke:#0D0D0D;stroke-width:1.5;stroke-linejoin:round;stroke-miterlimit:10;}
	.st2{fill:#0D0D0D;}
	.st3{fill:none;stroke:#0D0D0D;stroke-width:1.5;stroke-miterlimit:10;stroke-dasharray:3.0294,3.0294;}
	.st4{fill:none;stroke:#0D0D0D;stroke-width:1.5;stroke-miterlimit:10;stroke-dasharray:2.9474,2.9474;}
	.st5{fill:none;stroke:#0D0D0D;stroke-width:1.5;stroke-miterlimit:10;stroke-dasharray:3,3;}
	.st6{fill:none;stroke:#999999;stroke-width:1.5;stroke-miterlimit:10;}
	.st7{font-family:'Calibri-Bold';}
	.st8{font-size:11px;}
</style>
<polyline class="st0" points="112.9,209.6 112.9,205.3 112.9,200.6 112.9,195.8 112.9,190.7 "/>
<polyline class="st1" points="74.9,194.7 76.9,199.2 80.1,190.5 83.3,199.2 86.5,190.5 89.7,199.2 92.9,190.5 92.9,194.7 "/>
<polyline class="st1" points="153,194.7 153,190.5 156.2,199.2 159.4,190.5 162.6,199.2 165.8,190.5 169,199.2 169,195.2 "/>
<polygon class="st0" points="132.9,210.1 130.4,210.1 127.9,210.1 125.4,210.1 122.9,210.1 120.4,210.1 117.9,210.1 115.4,210.1 
	112.9,210.1 110.4,210.1 107.9,210.1 105.4,210.1 102.9,210.1 100.4,210.1 97.9,210.1 95.4,210.1 92.9,210.1 92.9,208.8 92.9,207.6 
	92.9,206.4 92.9,205.1 92.9,203.9 92.9,202.6 92.9,201.4 92.9,200.1 92.9,198.9 92.9,197.7 92.9,196.4 92.9,195.2 92.9,193.9 
	92.9,192.7 92.9,191.4 92.9,190.2 95.4,190.2 97.9,190.2 100.4,190.2 102.9,190.2 105.4,190.2 107.9,190.2 110.4,190.2 112.9,190.2 
	115.4,190.2 117.9,190.2 120.4,190.2 122.9,190.2 125.4,190.2 127.9,190.2 130.4,190.2 132.9,190.2 132.9,191.4 132.9,192.7 
	132.9,193.9 132.9,195.2 132.9,196.4 132.9,197.7 132.9,198.9 132.9,200.1 132.9,201.4 132.9,202.6 132.9,203.9 132.9,205.1 
	132.9,206.4 132.9,207.6 132.9,208.8 "/>
<g>
	<line class="st0" x1="115.4" y1="195.2" x2="120.4" y2="195.2"/>
	<line class="st0" x1="117.9" y1="190.7" x2="117.9" y2="194.7"/>
</g>
<g>
	<line class="st0" x1="125.4" y1="195.2" x2="130.4" y2="195.2"/>
	<line class="st0" x1="127.9" y1="190.7" x2="127.9" y2="194.7"/>
</g>
<g>
	<line class="st0" x1="115.4" y1="205.1" x2="120.4" y2="205.1"/>
	<line class="st0" x1="117.9" y1="209.6" x2="117.9" y2="205.6"/>
</g>
<g>
	<line class="st0" x1="125.4" y1="205.1" x2="130.4" y2="205.1"/>
	<line class="st0" x1="127.9" y1="209.6" x2="127.9" y2="205.6"/>
</g>
<g>
	<rect x="76.9" y="201.1" class="st0" width="16" height="8.9"/>
	<line class="st0" x1="81.1" y1="201.2" x2="87.7" y2="210.1"/>
</g>
<g>
	<rect x="153" y="201.1" class="st0" width="16" height="8.9"/>
	<line class="st0" x1="164.7" y1="201.2" x2="158.2" y2="210.1"/>
</g>
<g>
	<line class="st0" x1="71.3" y1="204.1" x2="76.4" y2="204.1"/>
	<line class="st0" x1="76.4" y1="207.1" x2="70.3" y2="207.1"/>
	<line class="st0" x1="68" y1="212.5" x2="76.9" y2="189.2"/>
	<ellipse class="st0" cx="77.6" cy="187.2" rx="2" ry="2"/>
</g>
<rect x="132.9" y="190.2" class="st0" width="20" height="19.9"/>
<line class="st0" x1="105.8" y1="205.4" x2="97.9" y2="190.2"/>
<polygon class="st2" points="103.7,205.1 108.2,210.1 106.8,203.5 "/>
<line class="st0" x1="97.9" y1="210.1" x2="105.8" y2="194.9"/>
<polygon class="st2" points="103.7,195.2 108.2,190.2 106.8,196.8 "/>
<line class="st0" x1="148" y1="204.6" x2="148" y2="190.7"/>
<polygon class="st2" points="146.2,203.6 148,210.1 149.7,203.6 "/>
<line class="st0" x1="137.9" y1="195.7" x2="137.9" y2="209.6"/>
<polygon class="st2" points="139.7,196.7 137.9,190.2 136.2,196.7 "/>
<line class="st0" x1="128" y1="215.7" x2="128" y2="210.7"/>
<line class="st0" x1="118" y1="215.7" x2="118" y2="210.7"/>
<g>
	<g>
		<path class="st0" d="M107.5,154.6c0,2.5-2.1,4.6-4.6,4.6s-4.6-2.1-4.6-4.6s2.1-4.6,4.6-4.6S107.5,152,107.5,154.6z"/>
		<polyline class="st0" points="110,154.6 102.9,161.6 95.8,154.6 		"/>
		<polyline class="st1" points="107.9,144.2 98.4,145.8 107.4,146.9 98.4,148.1 107.4,149.2 102.8,149.2 		"/>
		<line class="st1" x1="102.9" y1="161.7" x2="102.9" y2="163.7"/>
	</g>
	<rect x="92.9" y="144.2" class="st1" width="20" height="20"/>
</g>
<g>
	<g>
		<path class="st0" d="M147.6,139.6c0,2.5-2.1,4.6-4.6,4.6s-4.6-2.1-4.6-4.6s2.1-4.6,4.6-4.6C145.5,135,147.6,137,147.6,139.6z"/>
		<polyline class="st0" points="150.1,139.6 143,146.6 135.9,139.6 		"/>
		<polyline class="st1" points="148,129.2 138.5,130.8 147.5,131.9 138.5,133.1 147.5,134.2 142.9,134.2 		"/>
		<line class="st1" x1="143" y1="146.7" x2="143" y2="148.7"/>
	</g>
	<rect x="133" y="129.2" class="st1" width="20" height="20"/>
</g>
<g>
	<g>
		<path class="st0" d="M147.6,110.6c0,2.5-2.1,4.6-4.6,4.6s-4.6-2.1-4.6-4.6s2.1-4.6,4.6-4.6C145.5,106,147.6,108,147.6,110.6z"/>
		<polyline class="st0" points="150.1,110.6 143,117.6 135.9,110.6 		"/>
		<polyline class="st1" points="148,100.2 138.5,101.8 147.5,102.9 138.5,104.1 147.5,105.2 142.9,105.2 		"/>
		<line class="st1" x1="143" y1="117.7" x2="143" y2="119.7"/>
	</g>
	<rect x="133" y="100.2" class="st1" width="20" height="20"/>
</g>
<line class="st0" x1="143" y1="119.2" x2="143" y2="129.2"/>
<polyline class="st0" points="128,189.7 128,180.5 128.5,180.1 142.5,180.1 143,179.7 143,149.7 "/>
<polyline class="st0" points="118,189.7 118,180.7 117.5,180.2 103.5,180.2 103,179.7 103,164.7 "/>
<g>
	<g>
		<g>
			<line class="st0" x1="153.5" y1="139.2" x2="155" y2="139.2"/>
			<line class="st0" x1="157" y1="139.2" x2="158.5" y2="139.2"/>
		</g>
	</g>
	<g>
		<g>
			<line class="st0" x1="103.5" y1="169.2" x2="105" y2="169.2"/>
			<line class="st3" x1="108" y1="169.2" x2="155" y2="169.2"/>
			<polyline class="st0" points="156.5,169.2 158,169.2 158,167.7 			"/>
			<polyline class="st4" points="158,164.8 158,139.2 158,113.2 			"/>
			<polyline class="st0" points="158,111.7 158,110.2 156.5,110.2 			"/>
			<line class="st0" x1="155" y1="110.2" x2="153.5" y2="110.2"/>
		</g>
	</g>
</g>
<line class="st5" x1="113.5" y1="154.2" x2="143.5" y2="154.2"/>
<line class="st0" x1="143" y1="99.7" x2="143" y2="88.7"/>
<rect x="85" y="94.2" class="st6" width="81" height="81"/>
<polyline class="st1" points="146,28.2 153,28.2 153,88.2 133,88.2 133,28.2 140,28.2 "/>
<rect x="133" y="76.2" class="st0" width="20" height="6"/>
<rect x="140" y="11.2" class="st0" width="6" height="65"/>
<polyline class="st0" points="133,38.2 103,38.2 103,38.7 103,143.7 "/>
<text transform="matrix(1 0 0 1 115.3115 225.512)" class="st7 st8">B</text>
<text transform="matrix(1 0 0 1 125.3115 225.512)" class="st7 st8">T</text>
</svg>
