<?xml version="1.0" encoding="utf-8"?>
<!-- Generator: Adobe Illustrator 24.0.0, SVG Export Plug-In . SVG Version: 6.00 Build 0)  -->
<svg version="1.1" id="Layer_1" xmlns="http://www.w3.org/2000/svg" xmlns:xlink="http://www.w3.org/1999/xlink" x="0px" y="0px"
	 viewBox="0 0 316 316" style="enable-background:new 0 0 316 316;" xml:space="preserve">
<style type="text/css">
	.st0{fill:none;stroke:#0D0D0D;stroke-width:1.5;stroke-miterlimit:10;}
	.st1{fill:#0D0D0D;}
	.st2{fill:none;stroke:#0D0D0D;stroke-width:1.5;stroke-linejoin:round;stroke-miterlimit:10;}
	.st3{fill:none;stroke:#0D0D0D;stroke-width:3;stroke-linecap:round;stroke-miterlimit:10;}
	.st4{fill:none;stroke:#0D0D0D;stroke-width:1.5;stroke-miterlimit:10;stroke-dasharray:3,3;}
</style>
<g>
	<g>
		<polyline class="st0" points="27.89,130.77 28.72,128.99 29.55,127.2 30.39,125.42 31.22,123.63 32.05,121.85 32.86,120.11 		"/>
		<g>
			<polygon class="st1" points="31.68,119.56 33.3,117.62 34.92,115.69 34.49,118.18 34.05,120.66 32.86,120.11 			"/>
		</g>
	</g>
	<g>
		<polygon class="st0" points="27.87,118.11 27.87,121.86 27.87,125.61 27.87,129.36 27.87,133.11 24.12,133.11 20.37,133.11 
			16.62,133.11 12.87,133.11 12.87,129.36 12.87,125.61 12.87,121.86 12.87,118.11 16.62,118.11 20.37,118.11 24.12,118.11 		"/>
		<g>
			<line class="st0" x1="15.87" y1="128.98" x2="15.87" y2="118.48"/>
			<g>
				<polygon class="st1" points="17.26,128.23 15.95,133.11 14.65,128.23 				"/>
			</g>
		</g>
		<polyline class="st2" points="27.95,125.48 27.95,128.67 29.15,121.95 30.35,128.67 31.55,121.95 32.75,128.67 33.95,121.95 
			33.95,125.48 		"/>
		<polyline class="st2" points="20.37,118.11 16.62,114.36 9.12,114.36 9.12,125.61 12.5,125.61 		"/>
	</g>
	<line class="st0" x1="20.41" y1="117.74" x2="20.41" y2="110.99"/>
	<line class="st0" x1="112.66" y1="110.61" x2="-7.59" y2="110.61"/>
	<line class="st0" x1="400.66" y1="110.61" x2="127.66" y2="110.61"/>
	<g>
		<polyline class="st0" points="113.04,103.11 116.17,103.11 119.74,103.11 123.3,103.11 127.29,103.11 		"/>
		<polyline class="st2" points="116.79,118.11 112.85,118.11 119.57,119.91 112.85,121.71 119.57,123.51 112.85,125.31 
			119.57,127.11 116.79,127.11 		"/>
		<g>
			<line class="st0" x1="113.04" y1="95.61" x2="127.29" y2="95.61"/>
			<path class="st0" d="M114.84,98.01c1.55-0.81,3.32-1.27,5.2-1.27c1.91,0,3.7,0.47,5.28,1.31"/>
			<path class="st0" d="M114.84,93.22c1.55,0.81,3.32,1.27,5.2,1.27c1.91,0,3.7-0.47,5.28-1.31"/>
		</g>
		<polygon class="st0" points="112.66,118.11 112.66,116.24 112.66,114.36 112.66,112.49 112.66,110.61 112.66,108.74 
			112.66,106.86 112.66,104.99 112.66,103.11 112.66,101.24 112.66,99.36 112.66,97.49 112.66,95.61 112.66,93.74 112.66,91.86 
			112.66,89.99 112.66,88.11 113.6,88.11 114.54,88.11 115.48,88.11 116.41,88.11 117.35,88.11 118.29,88.11 119.23,88.11 
			120.16,88.11 121.1,88.11 122.04,88.11 122.98,88.11 123.91,88.11 124.85,88.11 125.79,88.11 126.73,88.11 127.66,88.11 
			127.66,89.99 127.66,91.86 127.66,93.74 127.66,95.61 127.66,97.49 127.66,99.36 127.66,101.24 127.66,103.11 127.66,104.99 
			127.66,106.86 127.66,108.74 127.66,110.61 127.66,112.49 127.66,114.36 127.66,116.24 127.66,118.11 126.73,118.11 
			125.79,118.11 124.85,118.11 123.91,118.11 122.98,118.11 122.04,118.11 121.1,118.11 120.16,118.11 119.23,118.11 118.29,118.11 
			117.35,118.11 116.41,118.11 115.48,118.11 114.54,118.11 113.6,118.11 		"/>
		<g>
			<g>
				<line class="st0" x1="123.91" y1="108.74" x2="123.91" y2="112.49"/>
				<line class="st0" x1="127.29" y1="110.61" x2="124.29" y2="110.61"/>
			</g>
			<g>
				<line class="st0" x1="116.41" y1="108.74" x2="116.41" y2="112.49"/>
				<line class="st0" x1="113.04" y1="110.61" x2="116.04" y2="110.61"/>
			</g>
		</g>
		<rect x="112.66" y="76.11" class="st0" width="7.5" height="12"/>
		<line class="st0" x1="112.59" y1="78.94" x2="120.02" y2="83.82"/>
		<g>
			<polyline class="st0" points="110.98,82.91 112.88,82.4 114.78,81.89 116.68,81.38 118.59,80.87 120.49,80.36 122.34,79.87 			
				"/>
			<g>
				<polygon class="st1" points="122.68,81.26 124.87,80 127.05,78.74 124.53,78.74 122,78.74 122.34,80 				"/>
			</g>
		</g>
		<line class="st0" x1="116.41" y1="75.74" x2="116.41" y2="73.49"/>
		<line class="st3" x1="118.29" y1="73.49" x2="114.54" y2="73.49"/>
	</g>
	<circle class="st1" cx="153.91" cy="110.61" r="1.13"/>
	<circle class="st1" cx="153.91" cy="140.61" r="1.13"/>
	<circle class="st1" cx="20.41" cy="110.61" r="1.13"/>
	<circle class="st1" cx="75.91" cy="110.61" r="1.13"/>
	<circle class="st1" cx="20.41" cy="140.61" r="1.13"/>
	<circle class="st1" cx="75.91" cy="140.61" r="1.13"/>
	<g>
		<line class="st0" x1="354.91" y1="76.49" x2="354.91" y2="86.24"/>
		<line class="st0" x1="362.41" y1="76.49" x2="362.41" y2="86.24"/>
	</g>
	<g>
		<g>
			<polyline class="st0" points="351.16,100.49 351.16,97.17 351.16,93.63 351.16,90.09 351.16,86.24 			"/>
			<polyline class="st2" points="322.78,89.22 324.27,92.61 326.64,86.1 329.02,92.61 331.41,86.1 333.78,92.61 336.16,86.1 
				336.16,89.24 			"/>
			<polyline class="st2" points="381.16,89.24 381.16,86.08 383.56,92.63 385.96,86.08 388.36,92.63 390.76,86.08 393.16,92.63 
				393.16,89.24 			"/>
			<polygon class="st0" points="366.16,100.86 364.29,100.86 362.41,100.86 360.54,100.86 358.66,100.86 356.79,100.86 
				354.91,100.86 353.04,100.86 351.16,100.86 349.29,100.86 347.41,100.86 345.54,100.86 343.66,100.86 341.79,100.86 
				339.91,100.86 338.04,100.86 336.16,100.86 336.16,99.92 336.16,98.99 336.16,98.05 336.16,97.11 336.16,96.17 336.16,95.24 
				336.16,94.3 336.16,93.36 336.16,92.42 336.16,91.49 336.16,90.55 336.16,89.61 336.16,88.67 336.16,87.74 336.16,86.8 
				336.16,85.86 338.04,85.86 339.91,85.86 341.79,85.86 343.66,85.86 345.54,85.86 347.41,85.86 349.29,85.86 351.16,85.86 
				353.04,85.86 354.91,85.86 356.79,85.86 358.66,85.86 360.54,85.86 362.41,85.86 364.29,85.86 366.16,85.86 366.16,86.8 
				366.16,87.74 366.16,88.67 366.16,89.61 366.16,90.55 366.16,91.49 366.16,92.42 366.16,93.36 366.16,94.3 366.16,95.24 
				366.16,96.17 366.16,97.11 366.16,98.05 366.16,98.99 366.16,99.92 			"/>
			<g>
				<line class="st0" x1="353.04" y1="89.61" x2="356.79" y2="89.61"/>
				<line class="st0" x1="354.91" y1="86.24" x2="354.91" y2="89.24"/>
			</g>
			<g>
				<line class="st0" x1="360.54" y1="89.61" x2="364.29" y2="89.61"/>
				<line class="st0" x1="362.41" y1="86.24" x2="362.41" y2="89.24"/>
			</g>
			<g>
				<line class="st0" x1="353.04" y1="97.11" x2="356.79" y2="97.11"/>
				<line class="st0" x1="354.91" y1="100.49" x2="354.91" y2="97.49"/>
			</g>
			<g>
				<line class="st0" x1="360.54" y1="97.11" x2="364.29" y2="97.11"/>
				<line class="st0" x1="362.41" y1="100.49" x2="362.41" y2="97.49"/>
			</g>
			<g>
				<rect x="324.16" y="94.11" class="st0" width="12" height="6.75"/>
				<line class="st0" x1="327.17" y1="94.11" x2="332.01" y2="100.76"/>
			</g>
			<g>
				<rect x="381.16" y="94.11" class="st0" width="12" height="6.75"/>
				<line class="st0" x1="389.99" y1="94.11" x2="385.15" y2="100.76"/>
			</g>
			<g>
				<line class="st0" x1="320.04" y1="96.36" x2="323.79" y2="96.36"/>
				<line class="st0" x1="323.79" y1="98.61" x2="319.29" y2="98.61"/>
				<line class="st0" x1="317.39" y1="102.6" x2="323.99" y2="85.13"/>
				<ellipse class="st0" cx="324.56" cy="83.6" rx="1.49" ry="1.49"/>
			</g>
			<rect x="366.16" y="85.86" class="st0" width="15" height="15"/>
			<line class="st0" x1="346.22" y1="97.23" x2="340.36" y2="85.87"/>
			<polygon class="st1" points="344.67,97.02 347.99,100.78 346.99,95.86 			"/>
			<line class="st0" x1="340.36" y1="100.78" x2="346.22" y2="89.41"/>
			<polygon class="st1" points="344.67,89.63 347.99,85.87 346.99,90.79 			"/>
			<line class="st0" x1="377.41" y1="96.74" x2="377.41" y2="86.24"/>
			<polygon class="st1" points="376.25,95.99 377.55,100.84 378.84,95.99 			"/>
			<line class="st0" x1="369.91" y1="89.99" x2="369.91" y2="100.49"/>
			<polygon class="st1" points="371.41,90.74 370.11,85.89 368.81,90.74 			"/>
		</g>
	</g>
	<line class="st0" x1="20.41" y1="140.24" x2="20.41" y2="133.49"/>
	<line class="st0" x1="400.66" y1="140.61" x2="-7.59" y2="140.61"/>
	<g id="XMLID_1_">
		<g>
			<polyline class="st0" points="176.35,100.4 176.35,97.17 176.35,93.63 176.35,90.09 176.35,86.24 			"/>
			<polyline class="st2" points="147.81,89.22 149.31,92.61 151.71,86.1 154.12,92.61 156.52,86.1 158.93,92.61 161.33,86.1 
				161.33,89.22 			"/>
			<polyline class="st2" points="206.4,89.22 206.4,86.1 208.8,92.61 211.2,86.1 213.61,92.61 216.01,86.1 218.41,92.61 
				218.41,89.6 			"/>
			<polygon class="st0" points="191.37,100.78 189.5,100.78 187.62,100.78 185.74,100.78 183.86,100.78 181.98,100.78 
				180.11,100.78 178.23,100.78 176.35,100.78 174.47,100.78 172.6,100.78 170.72,100.78 168.84,100.78 166.96,100.78 
				165.08,100.78 163.21,100.78 161.33,100.78 161.33,99.84 161.33,98.91 161.33,97.98 161.33,97.05 161.33,96.12 161.33,95.19 
				161.33,94.25 161.33,93.32 161.33,92.39 161.33,91.46 161.33,90.53 161.33,89.6 161.33,88.66 161.33,87.73 161.33,86.8 
				161.33,85.87 163.21,85.87 165.08,85.87 166.96,85.87 168.84,85.87 170.72,85.87 172.6,85.87 174.47,85.87 176.35,85.87 
				178.23,85.87 180.11,85.87 181.98,85.87 183.86,85.87 185.74,85.87 187.62,85.87 189.5,85.87 191.37,85.87 191.37,86.8 
				191.37,87.73 191.37,88.66 191.37,89.6 191.37,90.53 191.37,91.46 191.37,92.39 191.37,93.32 191.37,94.25 191.37,95.19 
				191.37,96.12 191.37,97.05 191.37,97.98 191.37,98.91 191.37,99.84 			"/>
			<g>
				<line class="st0" x1="178.23" y1="89.6" x2="181.98" y2="89.6"/>
				<line class="st0" x1="180.11" y1="86.24" x2="180.11" y2="89.22"/>
			</g>
			<g>
				<line class="st0" x1="185.74" y1="89.6" x2="189.5" y2="89.6"/>
				<line class="st0" x1="187.62" y1="86.24" x2="187.62" y2="89.22"/>
			</g>
			<g>
				<line class="st0" x1="178.23" y1="97.05" x2="181.98" y2="97.05"/>
				<line class="st0" x1="180.11" y1="100.4" x2="180.11" y2="97.42"/>
			</g>
			<g>
				<line class="st0" x1="185.74" y1="97.05" x2="189.5" y2="97.05"/>
				<line class="st0" x1="187.62" y1="100.4" x2="187.62" y2="97.42"/>
			</g>
			<g>
				<rect x="149.31" y="94.07" class="st0" width="12.02" height="6.71"/>
				<line class="st0" x1="152.52" y1="94.11" x2="157.41" y2="100.76"/>
			</g>
			<g>
				<rect x="206.4" y="94.07" class="st0" width="12.02" height="6.71"/>
				<line class="st0" x1="215.2" y1="94.11" x2="210.32" y2="100.76"/>
			</g>
			<g>
				<line class="st0" x1="145.18" y1="96.3" x2="148.94" y2="96.3"/>
				<line class="st0" x1="148.94" y1="98.54" x2="144.43" y2="98.54"/>
				<line class="st0" x1="142.64" y1="102.61" x2="149.31" y2="85.12"/>
				<ellipse class="st0" cx="149.88" cy="83.6" rx="1.5" ry="1.49"/>
			</g>
			<rect x="191.37" y="85.87" class="st0" width="15.02" height="14.91"/>
			<line class="st0" x1="171" y1="97.23" x2="165.08" y2="85.87"/>
			<polygon class="st1" points="169.43,97.02 172.79,100.78 171.77,95.86 			"/>
			<line class="st0" x1="165.08" y1="100.78" x2="171" y2="89.41"/>
			<polygon class="st1" points="169.43,89.62 172.79,85.87 171.77,90.79 			"/>
			<line class="st0" x1="202.64" y1="96.68" x2="202.64" y2="86.24"/>
			<polygon class="st1" points="201.33,95.93 202.64,100.78 203.95,95.93 			"/>
			<line class="st0" x1="195.13" y1="89.97" x2="195.13" y2="100.4"/>
			<polygon class="st1" points="196.44,90.71 195.13,85.87 193.82,90.71 			"/>
		</g>
	</g>
	<line class="st0" x1="180.16" y1="100.86" x2="180.16" y2="110.61"/>
	<g>
		<line class="st0" x1="180.16" y1="76.49" x2="180.16" y2="86.24"/>
		<line class="st0" x1="187.66" y1="76.49" x2="187.66" y2="86.24"/>
	</g>
	<circle class="st1" cx="180.16" cy="110.61" r="1.13"/>
	<circle class="st1" cx="187.66" cy="140.61" r="1.13"/>
	<path class="st0" d="M187.66,140.61v-27.75c1.24,0,2.25-1.01,2.25-2.25c0-1.24-1.01-2.25-2.25-2.25v-7.5"/>
	<g>
		<g>
			<polyline class="st0" points="264.1,100.4 264.1,97.16 264.1,93.62 264.1,90.08 264.1,86.23 			"/>
			<polyline class="st2" points="235.56,89.21 237.06,92.6 239.46,86.09 241.87,92.6 244.27,86.09 246.67,92.6 249.08,86.09 
				249.08,89.21 			"/>
			<polyline class="st2" points="294.14,89.21 294.14,86.09 296.55,92.6 298.95,86.09 301.36,92.6 303.76,86.09 306.16,92.6 
				306.16,89.58 			"/>
			<polygon class="st0" points="279.12,100.77 277.24,100.77 275.37,100.77 273.49,100.77 271.61,100.77 269.73,100.77 
				267.86,100.77 265.98,100.77 264.1,100.77 262.22,100.77 260.34,100.77 258.47,100.77 256.59,100.77 254.71,100.77 
				252.83,100.77 250.95,100.77 249.08,100.77 249.08,99.84 249.08,98.91 249.08,97.98 249.08,97.04 249.08,96.11 249.08,95.18 
				249.08,94.25 249.08,93.31 249.08,92.38 249.08,91.45 249.08,90.52 249.08,89.58 249.08,88.65 249.08,87.72 249.08,86.79 
				249.08,85.86 250.95,85.86 252.83,85.86 254.71,85.86 256.59,85.86 258.47,85.86 260.34,85.86 262.22,85.86 264.1,85.86 
				265.98,85.86 267.86,85.86 269.73,85.86 271.61,85.86 273.49,85.86 275.37,85.86 277.24,85.86 279.12,85.86 279.12,86.79 
				279.12,87.72 279.12,88.65 279.12,89.58 279.12,90.52 279.12,91.45 279.12,92.38 279.12,93.31 279.12,94.25 279.12,95.18 
				279.12,96.11 279.12,97.04 279.12,97.98 279.12,98.91 279.12,99.84 			"/>
			<g>
				<line class="st0" x1="265.98" y1="89.58" x2="269.73" y2="89.58"/>
				<line class="st0" x1="267.86" y1="86.23" x2="267.86" y2="89.21"/>
			</g>
			<g>
				<line class="st0" x1="273.49" y1="89.58" x2="277.24" y2="89.58"/>
				<line class="st0" x1="275.37" y1="86.23" x2="275.37" y2="89.21"/>
			</g>
			<g>
				<line class="st0" x1="265.98" y1="97.04" x2="269.73" y2="97.04"/>
				<line class="st0" x1="267.86" y1="100.4" x2="267.86" y2="97.42"/>
			</g>
			<g>
				<line class="st0" x1="273.49" y1="97.04" x2="277.24" y2="97.04"/>
				<line class="st0" x1="275.37" y1="100.4" x2="275.37" y2="97.42"/>
			</g>
			<g>
				<rect x="237.06" y="94.06" class="st0" width="12.02" height="6.71"/>
				<line class="st0" x1="240.27" y1="94.11" x2="245.16" y2="100.76"/>
			</g>
			<g>
				<rect x="294.14" y="94.06" class="st0" width="12.02" height="6.71"/>
				<line class="st0" x1="302.95" y1="94.11" x2="298.06" y2="100.76"/>
			</g>
			<g>
				<line class="st0" x1="232.93" y1="96.3" x2="236.68" y2="96.3"/>
				<line class="st0" x1="236.68" y1="98.54" x2="232.18" y2="98.54"/>
				<line class="st0" x1="230.39" y1="102.61" x2="237.06" y2="85.11"/>
				<ellipse class="st0" cx="237.63" cy="83.59" rx="1.5" ry="1.49"/>
			</g>
			<rect x="279.12" y="85.86" class="st0" width="15.02" height="14.92"/>
			<line class="st0" x1="258.75" y1="97.23" x2="252.83" y2="85.86"/>
			<polygon class="st1" points="257.18,97.02 260.54,100.77 259.52,95.85 			"/>
			<line class="st0" x1="252.83" y1="100.77" x2="258.75" y2="89.4"/>
			<polygon class="st1" points="257.18,89.61 260.54,85.86 259.52,90.78 			"/>
			<line class="st0" x1="290.39" y1="96.67" x2="290.39" y2="86.23"/>
			<polygon class="st1" points="289.08,95.93 290.39,100.78 291.7,95.93 			"/>
			<line class="st0" x1="282.88" y1="89.96" x2="282.88" y2="100.4"/>
			<polygon class="st1" points="284.19,90.7 282.88,85.85 281.57,90.7 			"/>
		</g>
	</g>
	<g>
		<line class="st0" x1="267.91" y1="76.49" x2="267.91" y2="86.24"/>
		<line class="st0" x1="275.41" y1="76.49" x2="275.41" y2="86.24"/>
	</g>
	<line class="st0" x1="267.91" y1="101.24" x2="267.91" y2="110.99"/>
	<circle class="st1" cx="275.41" cy="140.61" r="1.13"/>
	<circle class="st1" cx="267.91" cy="110.61" r="1.13"/>
	<path class="st0" d="M275.41,140.99v-27.75c1.24,0,2.25-1.01,2.25-2.25c0-1.24-1.01-2.25-2.25-2.25v-7.5"/>
	<line class="st0" x1="354.91" y1="101.24" x2="354.91" y2="110.99"/>
	<circle class="st1" cx="362.44" cy="140.61" r="1.13"/>
	<circle class="st1" cx="354.91" cy="110.61" r="1.13"/>
	<path class="st0" d="M362.41,140.99v-27.75c1.24,0,2.25-1.01,2.25-2.25c0-1.24-1.01-2.25-2.25-2.25v-7.5"/>
	<g>
		<polyline class="st0" points="68.41,134.24 68.41,131.66 68.41,128.1 68.41,124.54 68.41,119.99 		"/>
		<polyline class="st2" points="83.41,122.99 83.41,126.7 85.21,119.98 87.01,126.7 88.81,119.98 90.61,126.7 92.41,119.98 
			92.41,122.99 		"/>
		<g>
			<line class="st0" x1="97.29" y1="132.36" x2="83.04" y2="132.36"/>
			<path class="st0" d="M95.91,130.15c-1.55,0.81-3.32,1.27-5.2,1.27c-1.91,0-3.7-0.47-5.28-1.31"/>
			<path class="st0" d="M95.91,134.57c-1.55-0.81-3.32-1.27-5.2-1.27c-1.91,0-3.7,0.47-5.28,1.31"/>
		</g>
		<polygon class="st0" points="83.41,134.61 81.54,134.61 79.66,134.61 77.79,134.61 75.91,134.61 74.04,134.61 72.16,134.61 
			70.29,134.61 68.41,134.61 66.54,134.61 64.66,134.61 62.79,134.61 60.91,134.61 59.04,134.61 57.16,134.61 55.29,134.61 
			53.41,134.61 53.41,133.67 53.41,132.74 53.41,131.8 53.41,130.86 53.41,129.92 53.41,128.99 53.41,128.05 53.41,127.11 
			53.41,126.17 53.41,125.24 53.41,124.3 53.41,123.36 53.41,122.42 53.41,121.49 53.41,120.55 53.41,119.61 55.29,119.61 
			57.16,119.61 59.04,119.61 60.91,119.61 62.79,119.61 64.66,119.61 66.54,119.61 68.41,119.61 70.29,119.61 72.16,119.61 
			74.04,119.61 75.91,119.61 77.79,119.61 79.66,119.61 81.54,119.61 83.41,119.61 83.41,120.55 83.41,121.49 83.41,122.42 
			83.41,123.36 83.41,124.3 83.41,125.24 83.41,126.17 83.41,127.11 83.41,128.05 83.41,128.99 83.41,129.92 83.41,130.86 
			83.41,131.8 83.41,132.74 83.41,133.67 		"/>
		<g>
			<g>
				<line class="st0" x1="74.04" y1="123.36" x2="77.79" y2="123.36"/>
				<line class="st0" x1="75.91" y1="119.99" x2="75.91" y2="122.99"/>
			</g>
			<g>
				<line class="st0" x1="74.04" y1="130.86" x2="77.79" y2="130.86"/>
				<line class="st0" x1="75.91" y1="134.24" x2="75.91" y2="131.24"/>
			</g>
		</g>
		<polyline class="st2" points="75.54,119.61 71.79,115.86 49.66,115.86 49.66,127.11 53.04,127.11 		"/>
		<g>
			<line class="st0" x1="60.91" y1="130.49" x2="60.91" y2="119.99"/>
			<g>
				<polygon class="st1" points="62.17,129.74 60.86,134.62 59.55,129.74 				"/>
			</g>
		</g>
	</g>
	<line class="st0" x1="75.91" y1="119.99" x2="75.91" y2="110.99"/>
	<line class="st0" x1="75.91" y1="140.24" x2="75.91" y2="134.99"/>
	<g>
		<line class="st0" x1="153.91" y1="126.36" x2="153.91" y2="140.61"/>
		<path class="st0" d="M151.52,127.98c0.81,1.55,1.27,3.32,1.27,5.2c0,1.91-0.47,3.7-1.31,5.28"/>
		<path class="st0" d="M156.31,127.98c-0.81,1.55-1.27,3.32-1.27,5.2c0,1.91,0.47,3.7,1.31,5.28"/>
	</g>
	<line class="st0" x1="153.91" y1="126.36" x2="153.91" y2="110.61"/>
	<polyline class="st4" points="154.29,119.61 141.16,119.61 141.16,132.36 97.29,132.36 	"/>
	<g>
		<polyline class="st0" points="402.16,107.24 399.16,109.49 402.16,111.74 399.16,113.99 		"/>
	</g>
	<g>
		<polyline class="st0" points="402.16,137.24 399.16,139.49 402.16,141.74 399.16,143.99 		"/>
	</g>
	<g>
		<line class="st0" x1="264.16" y1="176.97" x2="264.16" y2="186.72"/>
		<line class="st0" x1="271.66" y1="176.97" x2="271.66" y2="186.72"/>
	</g>
	<polyline class="st0" points="260.41,200.97 260.41,197.65 260.41,194.11 260.41,190.57 260.41,186.72 	"/>
	<polyline class="st2" points="232.03,189.71 233.52,193.09 235.89,186.59 238.27,193.09 240.66,186.59 243.03,193.09 
		245.41,186.59 245.41,189.72 	"/>
	<polyline class="st2" points="290.41,189.72 290.41,186.56 292.81,193.12 295.21,186.56 297.61,193.12 300.01,186.56 
		302.41,193.12 302.41,189.72 	"/>
	<polygon class="st0" points="275.41,201.35 273.54,201.35 271.66,201.35 269.79,201.35 267.91,201.35 266.04,201.35 264.16,201.35 
		262.29,201.35 260.41,201.35 258.54,201.35 256.66,201.35 254.79,201.35 252.91,201.35 251.04,201.35 249.16,201.35 247.29,201.35 
		245.41,201.35 245.41,200.41 245.41,199.47 245.41,198.53 245.41,197.6 245.41,196.66 245.41,195.72 245.41,194.78 245.41,193.85 
		245.41,192.91 245.41,191.97 245.41,191.03 245.41,190.1 245.41,189.16 245.41,188.22 245.41,187.28 245.41,186.35 247.29,186.35 
		249.16,186.35 251.04,186.35 252.91,186.35 254.79,186.35 256.66,186.35 258.54,186.35 260.41,186.35 262.29,186.35 264.16,186.35 
		266.04,186.35 267.91,186.35 269.79,186.35 271.66,186.35 273.54,186.35 275.41,186.35 275.41,187.28 275.41,188.22 275.41,189.16 
		275.41,190.1 275.41,191.03 275.41,191.97 275.41,192.91 275.41,193.85 275.41,194.78 275.41,195.72 275.41,196.66 275.41,197.6 
		275.41,198.53 275.41,199.47 275.41,200.41 	"/>
	<g>
		<line class="st0" x1="262.29" y1="190.1" x2="266.04" y2="190.1"/>
		<line class="st0" x1="264.16" y1="186.72" x2="264.16" y2="189.72"/>
	</g>
	<g>
		<line class="st0" x1="269.79" y1="190.1" x2="273.54" y2="190.1"/>
		<line class="st0" x1="271.66" y1="186.72" x2="271.66" y2="189.72"/>
	</g>
	<g>
		<line class="st0" x1="262.29" y1="197.6" x2="266.04" y2="197.6"/>
		<line class="st0" x1="264.16" y1="200.97" x2="264.16" y2="197.97"/>
	</g>
	<g>
		<line class="st0" x1="269.79" y1="197.6" x2="273.54" y2="197.6"/>
		<line class="st0" x1="271.66" y1="200.97" x2="271.66" y2="197.97"/>
	</g>
	<g>
		<rect x="233.41" y="194.6" class="st0" width="12" height="6.75"/>
		<line class="st0" x1="236.42" y1="194.6" x2="241.26" y2="201.24"/>
	</g>
	<g>
		<rect x="290.41" y="194.6" class="st0" width="12" height="6.75"/>
		<line class="st0" x1="299.24" y1="194.6" x2="294.4" y2="201.24"/>
	</g>
	<g>
		<line class="st0" x1="229.29" y1="196.85" x2="233.04" y2="196.85"/>
		<line class="st0" x1="233.04" y1="199.1" x2="228.54" y2="199.1"/>
		<line class="st0" x1="226.64" y1="203.09" x2="233.24" y2="185.61"/>
		<ellipse class="st0" cx="233.81" cy="184.09" rx="1.49" ry="1.49"/>
	</g>
	<rect x="275.41" y="186.35" class="st0" width="15" height="15"/>
	<line class="st0" x1="255.47" y1="197.72" x2="249.61" y2="186.36"/>
	<polygon class="st1" points="253.92,197.51 257.24,201.26 256.24,196.34 	"/>
	<line class="st0" x1="249.61" y1="201.26" x2="255.47" y2="189.9"/>
	<polygon class="st1" points="253.92,190.11 257.24,186.36 256.24,191.27 	"/>
	<line class="st0" x1="286.66" y1="197.22" x2="286.66" y2="186.72"/>
	<polygon class="st1" points="285.5,196.47 286.8,201.32 288.09,196.47 	"/>
	<line class="st0" x1="279.16" y1="190.47" x2="279.16" y2="200.97"/>
	<polygon class="st1" points="280.66,191.22 279.36,186.37 278.06,191.22 	"/>
	<g id="XMLID_2_">
		<g>
			<polyline class="st0" points="85.6,200.89 85.6,197.65 85.6,194.11 85.6,190.57 85.6,186.73 			"/>
			<polyline class="st2" points="57.06,189.71 58.56,193.09 60.96,186.59 63.37,193.09 65.77,186.59 68.18,193.09 70.58,186.59 
				70.58,189.71 			"/>
			<polyline class="st2" points="115.65,189.71 115.65,186.59 118.05,193.09 120.45,186.59 122.86,193.09 125.26,186.59 
				127.66,193.09 127.66,190.08 			"/>
			<polygon class="st0" points="100.62,201.26 98.75,201.26 96.87,201.26 94.99,201.26 93.11,201.26 91.23,201.26 89.36,201.26 
				87.48,201.26 85.6,201.26 83.72,201.26 81.85,201.26 79.97,201.26 78.09,201.26 76.21,201.26 74.33,201.26 72.46,201.26 
				70.58,201.26 70.58,200.33 70.58,199.4 70.58,198.47 70.58,197.53 70.58,196.6 70.58,195.67 70.58,194.74 70.58,193.81 
				70.58,192.88 70.58,191.94 70.58,191.01 70.58,190.08 70.58,189.15 70.58,188.22 70.58,187.28 70.58,186.35 72.46,186.35 
				74.33,186.35 76.21,186.35 78.09,186.35 79.97,186.35 81.85,186.35 83.72,186.35 85.6,186.35 87.48,186.35 89.36,186.35 
				91.23,186.35 93.11,186.35 94.99,186.35 96.87,186.35 98.75,186.35 100.62,186.35 100.62,187.28 100.62,188.22 100.62,189.15 
				100.62,190.08 100.62,191.01 100.62,191.94 100.62,192.88 100.62,193.81 100.62,194.74 100.62,195.67 100.62,196.6 
				100.62,197.53 100.62,198.47 100.62,199.4 100.62,200.33 			"/>
			<g>
				<line class="st0" x1="87.48" y1="190.08" x2="91.23" y2="190.08"/>
				<line class="st0" x1="89.36" y1="186.73" x2="89.36" y2="189.71"/>
			</g>
			<g>
				<line class="st0" x1="94.99" y1="190.08" x2="98.75" y2="190.08"/>
				<line class="st0" x1="96.87" y1="186.73" x2="96.87" y2="189.71"/>
			</g>
			<g>
				<line class="st0" x1="87.48" y1="197.53" x2="91.23" y2="197.53"/>
				<line class="st0" x1="89.36" y1="200.89" x2="89.36" y2="197.91"/>
			</g>
			<g>
				<line class="st0" x1="94.99" y1="197.53" x2="98.75" y2="197.53"/>
				<line class="st0" x1="96.87" y1="200.89" x2="96.87" y2="197.91"/>
			</g>
			<g>
				<rect x="58.56" y="194.55" class="st0" width="12.02" height="6.71"/>
				<line class="st0" x1="61.77" y1="194.6" x2="66.66" y2="201.24"/>
			</g>
			<g>
				<rect x="115.65" y="194.55" class="st0" width="12.02" height="6.71"/>
				<line class="st0" x1="124.45" y1="194.6" x2="119.57" y2="201.24"/>
			</g>
			<g>
				<line class="st0" x1="54.43" y1="196.79" x2="58.19" y2="196.79"/>
				<line class="st0" x1="58.19" y1="199.02" x2="53.68" y2="199.02"/>
				<line class="st0" x1="51.89" y1="203.09" x2="58.56" y2="185.61"/>
				<ellipse class="st0" cx="59.13" cy="184.09" rx="1.5" ry="1.49"/>
			</g>
			<rect x="100.62" y="186.35" class="st0" width="15.02" height="14.91"/>
			<line class="st0" x1="80.25" y1="197.72" x2="74.33" y2="186.35"/>
			<polygon class="st1" points="78.68,197.5 82.04,201.26 81.02,196.34 			"/>
			<line class="st0" x1="74.33" y1="201.26" x2="80.25" y2="189.9"/>
			<polygon class="st1" points="78.68,190.11 82.04,186.35 81.02,191.27 			"/>
			<line class="st0" x1="111.89" y1="197.16" x2="111.89" y2="186.73"/>
			<polygon class="st1" points="110.58,196.42 111.89,201.26 113.2,196.42 			"/>
			<line class="st0" x1="104.38" y1="190.45" x2="104.38" y2="200.89"/>
			<polygon class="st1" points="105.69,191.2 104.38,186.35 103.07,191.2 			"/>
		</g>
	</g>
	<line class="st0" x1="89.41" y1="201.35" x2="89.41" y2="211.1"/>
	<g>
		<line class="st0" x1="89.41" y1="176.97" x2="89.41" y2="186.72"/>
		<line class="st0" x1="96.91" y1="176.97" x2="96.91" y2="186.72"/>
	</g>
	<circle class="st1" cx="89.41" cy="211.1" r="1.13"/>
	<circle class="st1" cx="96.91" cy="241.1" r="1.13"/>
	<path class="st0" d="M96.91,241.1v-27.75c1.24,0,2.25-1.01,2.25-2.25c0-1.24-1.01-2.25-2.25-2.25v-7.5"/>
	<g>
		<g>
			<polyline class="st0" points="173.35,200.89 173.35,197.65 173.35,194.1 173.35,190.56 173.35,186.71 			"/>
			<polyline class="st2" points="144.81,189.7 146.31,193.08 148.71,186.57 151.12,193.08 153.52,186.57 155.92,193.08 
				158.33,186.57 158.33,189.7 			"/>
			<polyline class="st2" points="203.39,189.7 203.39,186.57 205.8,193.08 208.2,186.57 210.61,193.08 213.01,186.57 215.41,193.08 
				215.41,190.07 			"/>
			<polygon class="st0" points="188.37,201.26 186.49,201.26 184.62,201.26 182.74,201.26 180.86,201.26 178.98,201.26 
				177.11,201.26 175.23,201.26 173.35,201.26 171.47,201.26 169.59,201.26 167.72,201.26 165.84,201.26 163.96,201.26 
				162.08,201.26 160.2,201.26 158.33,201.26 158.33,200.33 158.33,199.39 158.33,198.46 158.33,197.53 158.33,196.6 158.33,195.66 
				158.33,194.73 158.33,193.8 158.33,192.87 158.33,191.93 158.33,191 158.33,190.07 158.33,189.14 158.33,188.2 158.33,187.27 
				158.33,186.34 160.2,186.34 162.08,186.34 163.96,186.34 165.84,186.34 167.72,186.34 169.59,186.34 171.47,186.34 
				173.35,186.34 175.23,186.34 177.11,186.34 178.98,186.34 180.86,186.34 182.74,186.34 184.62,186.34 186.49,186.34 
				188.37,186.34 188.37,187.27 188.37,188.2 188.37,189.14 188.37,190.07 188.37,191 188.37,191.93 188.37,192.87 188.37,193.8 
				188.37,194.73 188.37,195.66 188.37,196.6 188.37,197.53 188.37,198.46 188.37,199.39 188.37,200.33 			"/>
			<g>
				<line class="st0" x1="175.23" y1="190.07" x2="178.98" y2="190.07"/>
				<line class="st0" x1="177.11" y1="186.71" x2="177.11" y2="189.7"/>
			</g>
			<g>
				<line class="st0" x1="182.74" y1="190.07" x2="186.49" y2="190.07"/>
				<line class="st0" x1="184.62" y1="186.71" x2="184.62" y2="189.7"/>
			</g>
			<g>
				<line class="st0" x1="175.23" y1="197.53" x2="178.98" y2="197.53"/>
				<line class="st0" x1="177.11" y1="200.89" x2="177.11" y2="197.9"/>
			</g>
			<g>
				<line class="st0" x1="182.74" y1="197.53" x2="186.49" y2="197.53"/>
				<line class="st0" x1="184.62" y1="200.89" x2="184.62" y2="197.9"/>
			</g>
			<g>
				<rect x="146.31" y="194.55" class="st0" width="12.02" height="6.71"/>
				<line class="st0" x1="149.52" y1="194.59" x2="154.41" y2="201.24"/>
			</g>
			<g>
				<rect x="203.39" y="194.55" class="st0" width="12.02" height="6.71"/>
				<line class="st0" x1="212.2" y1="194.59" x2="207.31" y2="201.24"/>
			</g>
			<g>
				<line class="st0" x1="142.18" y1="196.78" x2="145.93" y2="196.78"/>
				<line class="st0" x1="145.93" y1="199.02" x2="141.43" y2="199.02"/>
				<line class="st0" x1="139.64" y1="203.09" x2="146.31" y2="185.59"/>
				<ellipse class="st0" cx="146.88" cy="184.07" rx="1.5" ry="1.49"/>
			</g>
			<rect x="188.37" y="186.34" class="st0" width="15.02" height="14.92"/>
			<line class="st0" x1="168" y1="197.71" x2="162.08" y2="186.34"/>
			<polygon class="st1" points="166.43,197.5 169.79,201.26 168.77,196.34 			"/>
			<line class="st0" x1="162.08" y1="201.26" x2="168" y2="189.89"/>
			<polygon class="st1" points="166.43,190.1 169.79,186.34 168.77,191.26 			"/>
			<line class="st0" x1="199.64" y1="197.16" x2="199.64" y2="186.71"/>
			<polygon class="st1" points="198.33,196.41 199.64,201.26 200.95,196.41 			"/>
			<line class="st0" x1="192.13" y1="190.44" x2="192.13" y2="200.89"/>
			<polygon class="st1" points="193.44,191.19 192.13,186.34 190.82,191.19 			"/>
		</g>
	</g>
	<g>
		<line class="st0" x1="177.16" y1="176.97" x2="177.16" y2="186.72"/>
		<line class="st0" x1="184.66" y1="176.97" x2="184.66" y2="186.72"/>
	</g>
	<line class="st0" x1="177.16" y1="201.72" x2="177.16" y2="211.47"/>
	<circle class="st1" cx="184.66" cy="241.1" r="1.13"/>
	<circle class="st1" cx="177.16" cy="211.1" r="1.13"/>
	<path class="st0" d="M184.66,241.47v-27.75c1.24,0,2.25-1.01,2.25-2.25c0-1.24-1.01-2.25-2.25-2.25v-7.5"/>
	<line class="st0" x1="264.16" y1="201.72" x2="264.16" y2="211.47"/>
	<circle class="st1" cx="271.69" cy="241.1" r="1.13"/>
	<circle class="st1" cx="264.16" cy="211.1" r="1.13"/>
	<path class="st0" d="M271.66,241.47v-27.75c1.24,0,2.25-1.01,2.25-2.25c0-1.24-1.01-2.25-2.25-2.25v-7.5"/>
	<g>
		<line class="st0" x1="354.91" y1="176.97" x2="354.91" y2="186.72"/>
		<line class="st0" x1="362.41" y1="176.97" x2="362.41" y2="186.72"/>
	</g>
	<polyline class="st0" points="351.16,200.97 351.16,197.65 351.16,194.11 351.16,190.57 351.16,186.72 	"/>
	<polyline class="st2" points="322.78,189.71 324.27,193.09 326.64,186.59 329.02,193.09 331.41,186.59 333.78,193.09 
		336.16,186.59 336.16,189.72 	"/>
	<polyline class="st2" points="381.16,189.72 381.16,186.56 383.56,193.12 385.96,186.56 388.36,193.12 390.76,186.56 
		393.16,193.12 393.16,189.72 	"/>
	<polygon class="st0" points="366.16,201.35 364.29,201.35 362.41,201.35 360.54,201.35 358.66,201.35 356.79,201.35 354.91,201.35 
		353.04,201.35 351.16,201.35 349.29,201.35 347.41,201.35 345.54,201.35 343.66,201.35 341.79,201.35 339.91,201.35 338.04,201.35 
		336.16,201.35 336.16,200.41 336.16,199.47 336.16,198.53 336.16,197.6 336.16,196.66 336.16,195.72 336.16,194.78 336.16,193.85 
		336.16,192.91 336.16,191.97 336.16,191.03 336.16,190.1 336.16,189.16 336.16,188.22 336.16,187.28 336.16,186.35 338.04,186.35 
		339.91,186.35 341.79,186.35 343.66,186.35 345.54,186.35 347.41,186.35 349.29,186.35 351.16,186.35 353.04,186.35 354.91,186.35 
		356.79,186.35 358.66,186.35 360.54,186.35 362.41,186.35 364.29,186.35 366.16,186.35 366.16,187.28 366.16,188.22 366.16,189.16 
		366.16,190.1 366.16,191.03 366.16,191.97 366.16,192.91 366.16,193.85 366.16,194.78 366.16,195.72 366.16,196.66 366.16,197.6 
		366.16,198.53 366.16,199.47 366.16,200.41 	"/>
	<g>
		<rect x="324.16" y="194.6" class="st0" width="12" height="6.75"/>
		<line class="st0" x1="327.17" y1="194.6" x2="332.01" y2="201.24"/>
	</g>
	<g>
		<rect x="381.16" y="194.6" class="st0" width="12" height="6.75"/>
		<line class="st0" x1="389.99" y1="194.6" x2="385.15" y2="201.24"/>
	</g>
	<g>
		<line class="st0" x1="320.04" y1="196.85" x2="323.79" y2="196.85"/>
		<line class="st0" x1="323.79" y1="199.1" x2="319.29" y2="199.1"/>
		<line class="st0" x1="317.39" y1="203.09" x2="323.99" y2="185.61"/>
		<ellipse class="st0" cx="324.56" cy="184.09" rx="1.49" ry="1.49"/>
	</g>
	<rect x="366.16" y="186.35" class="st0" width="15" height="15"/>
	<line class="st0" x1="346.22" y1="197.72" x2="340.36" y2="186.36"/>
	<polygon class="st1" points="344.67,197.51 347.99,201.26 346.99,196.34 	"/>
	<line class="st0" x1="340.36" y1="201.26" x2="346.22" y2="189.9"/>
	<polygon class="st1" points="344.67,190.11 347.99,186.36 346.99,191.27 	"/>
	<line class="st0" x1="377.41" y1="197.22" x2="377.41" y2="186.72"/>
	<polygon class="st1" points="376.25,196.47 377.55,201.32 378.84,196.47 	"/>
	<line class="st0" x1="369.91" y1="190.47" x2="369.91" y2="200.97"/>
	<polygon class="st1" points="371.41,191.22 370.11,186.37 368.81,191.22 	"/>
	<polyline class="st0" points="354.91,201.72 354.91,210.72 354.54,211.1 -7.61,211.1 	"/>
	<path class="st0" d="M362.41,201.72v7.5c1.24,0,2.25,1.01,2.25,2.25c0,1.24-1.01,2.25-2.25,2.25v27v0.38H-7.61"/>
	<g>
		<polyline class="st0" points="-6.09,207.72 -9.09,209.97 -6.09,212.22 -9.09,214.47 		"/>
	</g>
	<g>
		<polyline class="st0" points="-6.09,237.72 -9.09,239.97 -6.09,242.22 -9.09,244.47 		"/>
	</g>
	<g>
		<line class="st0" x1="353.04" y1="197.6" x2="356.79" y2="197.6"/>
		<g>
			<polyline class="st0" points="362.41,186.72 362.41,189.7 362.41,197.9 362.41,200.97 			"/>
			<line class="st0" x1="354.91" y1="200.97" x2="354.91" y2="197.97"/>
			<polyline class="st0" points="362.79,193.85 354.91,193.85 354.91,186.72 			"/>
		</g>
	</g>
	<g>
		<path class="st0" d="M226.28,208.7c-1.55,0.81-3.32,1.27-5.2,1.27c-1.91,0-3.7-0.47-5.28-1.31"/>
		<path class="st0" d="M226.28,213.49c-1.55-0.81-3.32-1.27-5.2-1.27c-1.91,0-3.7,0.47-5.28,1.31"/>
	</g>
</g>
</svg>
