<?xml version="1.0" encoding="utf-8"?>
<!-- Generator: Adobe Illustrator 24.0.0, SVG Export Plug-In . SVG Version: 6.00 Build 0)  -->
<svg version="1.1" id="Layer_1" xmlns="http://www.w3.org/2000/svg" xmlns:xlink="http://www.w3.org/1999/xlink" x="0px" y="0px"
	 viewBox="0 0 560 140" style="enable-background:new 0 0 560 140;" xml:space="preserve">
<style type="text/css">
	.st0{fill:none;stroke:#0D0D0D;stroke-width:1.5;stroke-miterlimit:10;}
	.st1{fill:#0D0D0D;}
	.st2{fill:none;stroke:#0D0D0D;stroke-width:1.5;stroke-linejoin:round;stroke-miterlimit:10;}
	.st3{fill:none;stroke:#0D0D0D;stroke-width:3;stroke-linecap:round;stroke-miterlimit:10;}
</style>
<g>
	<polyline class="st0" points="46.97,98.57 48.08,96.19 49.19,93.81 50.3,91.44 51.41,89.06 52.52,86.68 53.6,84.36 	"/>
	<g>
		<polygon class="st1" points="52.02,83.62 54.18,81.04 56.35,78.46 55.76,81.78 55.18,85.09 53.6,84.36 		"/>
	</g>
</g>
<g>
	<polygon class="st0" points="47,82.12 47,87.12 47,92.12 47,97.12 47,102.12 42,102.12 37,102.12 32,102.12 27,102.12 27,97.12 
		27,92.12 27,87.12 27,82.12 32,82.12 37,82.12 42,82.12 	"/>
	<g>
		<line class="st0" x1="31" y1="96.62" x2="31" y2="82.62"/>
		<g>
			<polygon class="st1" points="32.79,95.62 31.05,102.12 29.31,95.62 			"/>
		</g>
	</g>
	<polyline class="st2" points="47,91.62 47,95.77 48.6,86.81 50.2,95.77 51.8,86.81 53.4,95.77 55,86.81 55,91.62 	"/>
	<polyline class="st2" points="37,82.12 32,77.12 22,77.12 22,92.12 26.5,92.12 	"/>
</g>
<line class="st0" x1="37" y1="81.19" x2="37" y2="72.19"/>
<g>
	<polyline class="st0" points="111,101.62 111,96.85 111,92.1 111,87.35 111,82.62 	"/>
	<polyline class="st2" points="131,97.62 131,101.85 133.4,92.89 135.8,101.85 138.2,92.89 140.6,101.85 143,92.89 143,97.62 	"/>
	<line class="st0" x1="121" y1="101.62" x2="121" y2="82.62"/>
	<path class="st0" d="M124.69,98.63c-1.08-2.07-1.69-4.43-1.69-6.93c0-2.54,0.63-4.94,1.75-7.03"/>
	<path class="st0" d="M117.31,98.63c1.08-2.07,1.69-4.43,1.69-6.93c0-2.54-0.63-4.94-1.75-7.03"/>
	<line class="st0" x1="121" y1="81.62" x2="121" y2="72.62"/>
	<polygon class="st0" points="131,102.12 128.5,102.12 126,102.12 123.5,102.12 121,102.12 118.5,102.12 116,102.12 113.5,102.12 
		111,102.12 108.5,102.12 106,102.12 103.5,102.12 101,102.12 98.5,102.12 96,102.12 93.5,102.12 91,102.12 91,100.87 91,99.62 
		91,98.37 91,97.12 91,95.87 91,94.62 91,93.37 91,92.12 91,90.87 91,89.62 91,88.37 91,87.12 91,85.87 91,84.62 91,83.37 91,82.12 
		93.5,82.12 96,82.12 98.5,82.12 101,82.12 103.5,82.12 106,82.12 108.5,82.12 111,82.12 113.5,82.12 116,82.12 118.5,82.12 
		121,82.12 123.5,82.12 126,82.12 128.5,82.12 131,82.12 131,83.37 131,84.62 131,85.87 131,87.12 131,88.37 131,89.62 131,90.87 
		131,92.12 131,93.37 131,94.62 131,95.87 131,97.12 131,98.37 131,99.62 131,100.87 	"/>
	<g>
		<line class="st0" x1="98.5" y1="87.12" x2="103.5" y2="87.12"/>
		<line class="st0" x1="101" y1="82.62" x2="101" y2="86.62"/>
	</g>
	<g>
		<line class="st0" x1="98.5" y1="97.12" x2="103.5" y2="97.12"/>
		<line class="st0" x1="101" y1="101.62" x2="101" y2="97.62"/>
	</g>
	
		<rect x="78.5" y="89.62" transform="matrix(5.497387e-11 -1 1 5.497387e-11 -14.6157 180.6157)" class="st0" width="9" height="16"/>
	<line class="st0" x1="79.27" y1="101.63" x2="85.78" y2="92.72"/>
	<g>
		<polyline class="st0" points="84.57,103.78 83.89,101.24 83.21,98.71 82.53,96.17 81.85,93.64 81.17,91.1 80.51,88.63 		"/>
		<g>
			<polygon class="st1" points="81.87,88.18 80.18,85.26 78.5,82.35 78.5,85.71 78.5,89.08 80.18,88.63 			"/>
		</g>
	</g>
	<line class="st0" x1="75.5" y1="97.12" x2="72.5" y2="97.12"/>
	<line class="st3" x1="72.5" y1="94.62" x2="72.5" y2="99.62"/>
</g>
<circle class="st1" cx="121" cy="71.69" r="1.5"/>
<circle class="st1" cx="121" cy="111.69" r="1.5"/>
<circle class="st1" cx="37" cy="71.69" r="1.5"/>
<circle class="st1" cx="37" cy="111.69" r="1.5"/>
<line class="st0" x1="37" y1="111.19" x2="37" y2="102.19"/>
<line class="st0" x1="121" y1="102.19" x2="121" y2="112.19"/>
<g id="XMLID_1_">
	<g>
		<polyline class="st0" points="151,58.62 151,54.77 151,50.05 151,45.33 151,39.62 		"/>
		<polyline class="st2" points="112.97,44.18 114.98,48.69 118.18,40.01 121.39,48.69 124.59,40.01 127.8,48.69 131,40.01 
			131,44.62 		"/>
		<polyline class="st2" points="191,44.62 191,40.02 194.2,48.68 197.4,40.02 200.6,48.68 203.8,40.02 207,48.68 207,44.62 		"/>
		<polygon class="st0" points="171,59.12 168.5,59.12 166,59.12 163.5,59.12 161,59.12 158.5,59.12 156,59.12 153.5,59.12 
			151,59.12 148.5,59.12 146,59.12 143.5,59.12 141,59.12 138.5,59.12 136,59.12 133.5,59.12 131,59.12 131,57.87 131,56.62 
			131,55.37 131,54.12 131,52.87 131,51.62 131,50.37 131,49.12 131,47.87 131,46.62 131,45.37 131,44.12 131,42.87 131,41.62 
			131,40.37 131,39.12 133.5,39.12 136,39.12 138.5,39.12 141,39.12 143.5,39.12 146,39.12 148.5,39.12 151,39.12 153.5,39.12 
			156,39.12 158.5,39.12 161,39.12 163.5,39.12 166,39.12 168.5,39.12 171,39.12 171,40.37 171,41.62 171,42.87 171,44.12 
			171,45.37 171,46.62 171,47.87 171,49.12 171,50.37 171,51.62 171,52.87 171,54.12 171,55.37 171,56.62 171,57.87 		"/>
		<g>
			<line class="st0" x1="153.5" y1="44.12" x2="158.5" y2="44.12"/>
			<line class="st0" x1="156" y1="39.62" x2="156" y2="43.62"/>
		</g>
		<g>
			<line class="st0" x1="163.5" y1="44.12" x2="168.5" y2="44.12"/>
			<line class="st0" x1="166" y1="39.62" x2="166" y2="43.62"/>
		</g>
		<g>
			<line class="st0" x1="153.5" y1="54.12" x2="158.5" y2="54.12"/>
			<line class="st0" x1="156" y1="58.62" x2="156" y2="54.62"/>
		</g>
		<g>
			<line class="st0" x1="163.5" y1="54.12" x2="168.5" y2="54.12"/>
			<line class="st0" x1="166" y1="58.62" x2="166" y2="54.62"/>
		</g>
		<g>
			<rect x="115" y="50.12" class="st0" width="16" height="9"/>
			<line class="st0" x1="119.14" y1="50.2" x2="125.66" y2="59.05"/>
		</g>
		<g>
			<rect x="191" y="50.12" class="st0" width="16" height="9"/>
			<line class="st0" x1="202.72" y1="50.2" x2="196.2" y2="59.05"/>
		</g>
		<g>
			<line class="st0" x1="109.5" y1="54.12" x2="114.5" y2="54.12"/>
			<line class="st0" x1="114.5" y1="56.12" x2="108.5" y2="56.12"/>
			<line class="st0" x1="105.97" y1="62.02" x2="114.86" y2="38.71"/>
			<ellipse class="st0" cx="115.62" cy="36.68" rx="2" ry="1.99"/>
		</g>
		<rect x="171" y="39.12" class="st0" width="20" height="20"/>
		<line class="st0" x1="143.79" y1="54.35" x2="135.89" y2="39.2"/>
		<polygon class="st1" points="141.69,54.07 146.17,59.08 144.81,52.52 		"/>
		<line class="st0" x1="135.89" y1="59.08" x2="143.79" y2="43.93"/>
		<polygon class="st1" points="141.69,44.21 146.17,39.2 144.81,45.76 		"/>
		<line class="st0" x1="186" y1="52.62" x2="186" y2="39.62"/>
		<polygon class="st1" points="184.22,52.62 185.97,59.08 187.71,52.62 		"/>
		<line class="st0" x1="176" y1="45.62" x2="176" y2="58.62"/>
		<polygon class="st1" points="177.7,46.12 175.95,39.65 174.21,46.12 		"/>
	</g>
</g>
<line class="st0" x1="156" y1="58.69" x2="156" y2="71.69"/>
<line class="st0" x1="156" y1="25.19" x2="156" y2="38.19"/>
<line class="st0" x1="166" y1="25.19" x2="166" y2="38.19"/>
<circle class="st1" cx="156" cy="71.69" r="1.5"/>
<circle class="st1" cx="166" cy="111.69" r="1.5"/>
<path class="st0" d="M166,111.69v-37c1.66,0,3-1.34,3-3s-1.34-3-3-3v-10"/>
<g>
	<g>
		<polyline class="st0" points="268,58.62 268,54.19 268,49.47 268,44.75 268,39.62 		"/>
		<polyline class="st2" points="229.97,43.6 231.98,48.11 235.18,39.44 238.38,48.11 241.59,39.44 244.8,48.11 248,39.44 248,43.62 
					"/>
		<polyline class="st2" points="308,43.62 308,39.44 311.2,48.1 314.4,39.44 317.6,48.1 320.8,39.44 324,48.1 324,43.62 		"/>
		<polygon class="st0" points="288,59.12 285.5,59.12 283,59.12 280.5,59.12 278,59.12 275.5,59.12 273,59.12 270.5,59.12 
			268,59.12 265.5,59.12 263,59.12 260.5,59.12 258,59.12 255.5,59.12 253,59.12 250.5,59.12 248,59.12 248,57.87 248,56.62 
			248,55.37 248,54.12 248,52.87 248,51.62 248,50.37 248,49.12 248,47.87 248,46.62 248,45.37 248,44.12 248,42.87 248,41.62 
			248,40.37 248,39.12 250.5,39.12 253,39.12 255.5,39.12 258,39.12 260.5,39.12 263,39.12 265.5,39.12 268,39.12 270.5,39.12 
			273,39.12 275.5,39.12 278,39.12 280.5,39.12 283,39.12 285.5,39.12 288,39.12 288,40.37 288,41.62 288,42.87 288,44.12 
			288,45.37 288,46.62 288,47.87 288,49.12 288,50.37 288,51.62 288,52.87 288,54.12 288,55.37 288,56.62 288,57.87 		"/>
		<g>
			<line class="st0" x1="270.5" y1="44.12" x2="275.5" y2="44.12"/>
			<line class="st0" x1="273" y1="39.62" x2="273" y2="43.62"/>
		</g>
		<g>
			<line class="st0" x1="280.5" y1="44.12" x2="285.5" y2="44.12"/>
			<line class="st0" x1="283" y1="39.62" x2="283" y2="43.62"/>
		</g>
		<g>
			<line class="st0" x1="270.5" y1="54.12" x2="275.5" y2="54.12"/>
			<line class="st0" x1="273" y1="58.62" x2="273" y2="54.62"/>
		</g>
		<g>
			<line class="st0" x1="280.5" y1="54.12" x2="285.5" y2="54.12"/>
			<line class="st0" x1="283" y1="58.62" x2="283" y2="54.62"/>
		</g>
		<g>
			<rect x="232" y="50.12" class="st0" width="16" height="9"/>
			<line class="st0" x1="236.14" y1="50.12" x2="242.66" y2="58.97"/>
		</g>
		<g>
			<rect x="308" y="50.12" class="st0" width="16" height="9"/>
			<line class="st0" x1="319.72" y1="50.12" x2="313.2" y2="58.97"/>
		</g>
		<g>
			<line class="st0" x1="226.5" y1="53.12" x2="231.5" y2="53.12"/>
			<line class="st0" x1="231.5" y1="56.12" x2="225.5" y2="56.12"/>
			<line class="st0" x1="222.97" y1="61.44" x2="231.86" y2="38.13"/>
			<ellipse class="st0" cx="232.62" cy="36.1" rx="2" ry="1.99"/>
		</g>
		<rect x="288" y="39.12" class="st0" width="20" height="20"/>
		<line class="st0" x1="260.78" y1="54.27" x2="252.89" y2="39.13"/>
		<polygon class="st1" points="258.69,53.99 263.17,59 261.81,52.44 		"/>
		<line class="st0" x1="252.89" y1="59" x2="260.79" y2="43.85"/>
		<polygon class="st1" points="258.69,44.13 263.17,39.13 261.81,45.68 		"/>
		<line class="st0" x1="303" y1="53.62" x2="303" y2="39.62"/>
		<polygon class="st1" points="301.22,52.62 302.97,59.08 304.71,52.62 		"/>
		<line class="st0" x1="293" y1="44.62" x2="293" y2="58.62"/>
		<polygon class="st1" points="294.7,45.62 292.95,39.15 291.21,45.62 		"/>
	</g>
</g>
<line class="st0" x1="273" y1="26.62" x2="273" y2="39.62"/>
<line class="st0" x1="283" y1="26.62" x2="283" y2="39.62"/>
<line class="st0" x1="273" y1="59.62" x2="273" y2="72.62"/>
<circle class="st1" cx="283" cy="112.12" r="1.5"/>
<circle class="st1" cx="273" cy="72.12" r="1.5"/>
<path class="st0" d="M283,112.62V75.19c1.66,0,3-1.34,3-3s-1.34-3-3-3v-9.58"/>
<polyline class="st2" points="424,43.16 424,38.99 427.21,47.68 430.41,38.99 433.62,47.68 436.82,38.99 440.03,47.68 440.03,43.66 
	"/>
<line class="st0" x1="352.17" y1="49.69" x2="358.69" y2="58.55"/>
<line class="st0" x1="342.5" y1="53.12" x2="347.5" y2="53.12"/>
<line class="st0" x1="347.5" y1="56.12" x2="341.5" y2="56.12"/>
<line class="st0" x1="339" y1="61.02" x2="347.89" y2="37.69"/>
<ellipse class="st0" cx="348.65" cy="35.66" rx="2" ry="1.99"/>
<line class="st0" x1="419" y1="53.19" x2="419" y2="39.19"/>
<polygon class="st1" points="417.25,52.11 419,58.58 420.75,52.11 "/>
<polyline class="st0" points="384,58.19 384,53.76 384,49.04 384,44.31 384,39.19 "/>
<polyline class="st2" points="345.97,43.16 347.98,47.68 351.18,38.99 354.39,47.68 357.59,38.99 360.8,47.68 364,38.99 364,43.19 
	"/>
<polygon class="st0" points="404,59.12 401.5,59.12 399,59.12 396.5,59.12 394,59.12 391.5,59.12 389,59.12 386.5,59.12 384,59.12 
	381.5,59.12 379,59.12 376.5,59.12 374,59.12 371.5,59.12 369,59.12 366.5,59.12 364,59.12 364,57.87 364,56.62 364,55.37 
	364,54.12 364,52.87 364,51.62 364,50.37 364,49.12 364,47.87 364,46.62 364,45.37 364,44.12 364,42.87 364,41.62 364,40.37 
	364,39.12 366.5,39.12 369,39.12 371.5,39.12 374,39.12 376.5,39.12 379,39.12 381.5,39.12 384,39.12 386.5,39.12 389,39.12 
	391.5,39.12 394,39.12 396.5,39.12 399,39.12 401.5,39.12 404,39.12 404,40.37 404,41.62 404,42.87 404,44.12 404,45.37 404,46.62 
	404,47.87 404,49.12 404,50.37 404,51.62 404,52.87 404,54.12 404,55.37 404,56.62 404,57.87 "/>
<rect x="348" y="50.12" class="st0" width="16" height="9"/>
<rect x="404" y="39.12" class="st0" width="20" height="20"/>
<line class="st0" x1="377.31" y1="53.85" x2="369.42" y2="38.68"/>
<polygon class="st1" points="375.22,53.57 379.69,58.58 378.34,52.01 "/>
<line class="st0" x1="369.42" y1="58.58" x2="377.31" y2="43.41"/>
<polygon class="st1" points="375.22,43.7 379.69,38.68 378.34,45.25 "/>
<line class="st0" x1="409" y1="44.19" x2="409" y2="58.19"/>
<polygon class="st1" points="410.75,45.19 409,38.73 407.25,45.19 "/>
<line class="st0" x1="389" y1="26.19" x2="389" y2="39.19"/>
<line class="st0" x1="399" y1="26.19" x2="399" y2="39.19"/>
<polyline class="st0" points="389.5,60.62 389.5,73.12 389.5,72.62 13.5,72.62 "/>
<g>
	<line class="st0" x1="386.5" y1="54.12" x2="391.5" y2="54.12"/>
	<g>
		<polyline class="st0" points="399,39.62 399,43.16 399,54.1 399,58.62 		"/>
		<line class="st0" x1="389" y1="58.62" x2="389" y2="54.62"/>
		<polyline class="st0" points="399.5,49.12 389,49.12 389,39.62 		"/>
	</g>
</g>
<polyline class="st0" points="399.5,60.62 399.5,112.62 13.5,112.62 "/>
</svg>
