<?xml version="1.0" encoding="utf-8"?>
<!-- Generator: Adobe Illustrator 24.0.0, SVG Export Plug-In . SVG Version: 6.00 Build 0)  -->
<svg version="1.1" id="Layer_1" xmlns="http://www.w3.org/2000/svg" xmlns:xlink="http://www.w3.org/1999/xlink" x="0px" y="0px"
	 viewBox="0 0 560 140" style="enable-background:new 0 0 560 140;" xml:space="preserve">
<style type="text/css">
	.st0{fill:none;stroke:#0D0D0D;stroke-width:1.5;stroke-miterlimit:10;}
	.st1{fill:#0D0D0D;}
	.st2{fill:none;stroke:#0D0D0D;stroke-width:1.5;stroke-linejoin:round;stroke-miterlimit:10;}
	.st3{fill:none;stroke:#0D0D0D;stroke-width:3;stroke-linecap:round;stroke-miterlimit:10;}
</style>
<g>
	<polyline class="st0" points="39.97,100.57 41.08,98.19 42.19,95.81 43.3,93.44 44.41,91.06 45.52,88.68 46.6,86.36 	"/>
	<g>
		<polygon class="st1" points="45.02,85.62 47.18,83.04 49.35,80.46 48.76,83.78 48.18,87.09 46.6,86.36 		"/>
	</g>
</g>
<g>
	<polygon class="st0" points="39.94,83.69 39.94,88.69 39.94,93.69 39.94,98.69 39.94,103.69 34.94,103.69 29.94,103.69 
		24.94,103.69 19.94,103.69 19.94,98.69 19.94,93.69 19.94,88.69 19.94,83.69 24.94,83.69 29.94,83.69 34.94,83.69 	"/>
	<g>
		<line class="st0" x1="23.94" y1="98.19" x2="23.94" y2="84.19"/>
		<g>
			<polygon class="st1" points="25.79,97.19 24.05,103.69 22.31,97.19 			"/>
		</g>
	</g>
	<polyline class="st2" points="40.05,93.52 40.05,97.77 41.65,88.81 43.25,97.77 44.85,88.81 46.45,97.77 48.05,88.81 48.05,93.52 	
		"/>
	<polyline class="st2" points="29.94,83.69 24.94,78.69 14.94,78.69 14.94,93.69 19.44,93.69 	"/>
</g>
<line class="st0" x1="30" y1="83.19" x2="30" y2="74.19"/>
<line class="st0" x1="499.5" y1="73.69" x2="5" y2="73.69"/>
<g>
	<polyline class="st0" points="104,103.19 104,98.85 104,94.1 104,89.35 104,84.19 	"/>
	<polyline class="st2" points="124,99.19 124,103.85 126.4,94.89 128.8,103.85 131.2,94.89 133.6,103.85 136,94.89 136,99.19 	"/>
	<line class="st0" x1="114" y1="103.19" x2="114" y2="84.19"/>
	<path class="st0" d="M117.69,100.63c-1.08-2.07-1.69-4.43-1.69-6.93c0-2.54,0.63-4.94,1.75-7.03"/>
	<path class="st0" d="M110.31,100.63c1.08-2.07,1.69-4.43,1.69-6.93c0-2.54-0.63-4.94-1.75-7.03"/>
	<line class="st0" x1="114" y1="83.19" x2="114" y2="74.19"/>
	<polygon class="st0" points="124,103.69 121.5,103.69 119,103.69 116.5,103.69 114,103.69 111.5,103.69 109,103.69 106.5,103.69 
		104,103.69 101.5,103.69 99,103.69 96.5,103.69 94,103.69 91.5,103.69 89,103.69 86.5,103.69 84,103.69 84,102.44 84,101.19 
		84,99.94 84,98.69 84,97.44 84,96.19 84,94.94 84,93.69 84,92.44 84,91.19 84,89.94 84,88.69 84,87.44 84,86.19 84,84.94 84,83.69 
		86.5,83.69 89,83.69 91.5,83.69 94,83.69 96.5,83.69 99,83.69 101.5,83.69 104,83.69 106.5,83.69 109,83.69 111.5,83.69 114,83.69 
		116.5,83.69 119,83.69 121.5,83.69 124,83.69 124,84.94 124,86.19 124,87.44 124,88.69 124,89.94 124,91.19 124,92.44 124,93.69 
		124,94.94 124,96.19 124,97.44 124,98.69 124,99.94 124,101.19 124,102.44 	"/>
	<g>
		<line class="st0" x1="91.5" y1="88.69" x2="96.5" y2="88.69"/>
		<line class="st0" x1="94" y1="84.19" x2="94" y2="88.19"/>
	</g>
	<g>
		<line class="st0" x1="91.5" y1="98.69" x2="96.5" y2="98.69"/>
		<line class="st0" x1="94" y1="103.19" x2="94" y2="99.19"/>
	</g>
	
		<rect x="71.5" y="91.19" transform="matrix(5.497387e-11 -1 1 5.497387e-11 -23.1946 175.1946)" class="st0" width="9" height="16"/>
	<line class="st0" x1="72.27" y1="103.63" x2="78.78" y2="94.72"/>
	<g>
		<polyline class="st0" points="77.57,105.78 76.89,103.24 76.21,100.71 75.53,98.17 74.85,95.64 74.17,93.1 73.51,90.63 		"/>
		<g>
			<polygon class="st1" points="75.19,90.18 73.51,87.26 71.82,84.35 71.82,87.71 71.82,91.08 73.51,90.63 			"/>
		</g>
	</g>
	<line class="st0" x1="68" y1="98.69" x2="65" y2="98.69"/>
	<line class="st3" x1="65" y1="96.19" x2="65" y2="101.19"/>
</g>
<line class="st0" x1="499" y1="61.19" x2="499" y2="74.19"/>
<circle class="st1" cx="114" cy="73.69" r="1.5"/>
<circle class="st1" cx="114" cy="113.69" r="1.5"/>
<circle class="st1" cx="30" cy="73.69" r="1.5"/>
<circle class="st1" cx="30" cy="113.69" r="1.5"/>
<g>
	<line class="st0" x1="499.03" y1="28.19" x2="499.03" y2="41.19"/>
	<line class="st0" x1="509.03" y1="28.19" x2="509.03" y2="41.19"/>
	<g>
		<g>
			<polyline class="st0" points="493.94,60.08 493.94,55.76 493.94,51.04 493.94,46.31 493.94,41.18 			"/>
			<polyline class="st2" points="455.89,45.16 457.89,49.68 461.09,40.99 464.3,49.68 467.5,40.99 470.71,49.68 473.91,40.99 
				473.91,45.16 			"/>
			<polyline class="st2" points="534,45.16 534,40.99 537.21,49.68 540.41,40.99 543.62,49.68 546.82,40.99 550.03,49.68 
				550.03,45.66 			"/>
			<polygon class="st0" points="513.97,60.58 511.47,60.58 508.96,60.58 506.46,60.58 503.96,60.58 501.45,60.58 498.95,60.58 
				496.45,60.58 493.94,60.58 491.44,60.58 488.93,60.58 486.43,60.58 483.93,60.58 481.42,60.58 478.92,60.58 476.42,60.58 
				473.91,60.58 473.91,59.33 473.91,58.09 473.91,56.85 473.91,55.6 473.91,54.36 473.91,53.12 473.91,51.87 473.91,50.63 
				473.91,49.39 473.91,48.14 473.91,46.9 473.91,45.66 473.91,44.41 473.91,43.17 473.91,41.93 473.91,40.68 476.42,40.68 
				478.92,40.68 481.42,40.68 483.93,40.68 486.43,40.68 488.93,40.68 491.44,40.68 493.94,40.68 496.45,40.68 498.95,40.68 
				501.45,40.68 503.96,40.68 506.46,40.68 508.96,40.68 511.47,40.68 513.97,40.68 513.97,41.93 513.97,43.17 513.97,44.41 
				513.97,45.66 513.97,46.9 513.97,48.14 513.97,49.39 513.97,50.63 513.97,51.87 513.97,53.12 513.97,54.36 513.97,55.6 
				513.97,56.85 513.97,58.09 513.97,59.33 			"/>
			<g>
				<line class="st0" x1="496.45" y1="45.66" x2="501.45" y2="45.66"/>
				<line class="st0" x1="498.95" y1="41.18" x2="498.95" y2="45.16"/>
			</g>
			<g>
				<line class="st0" x1="506.46" y1="45.66" x2="511.47" y2="45.66"/>
				<line class="st0" x1="508.96" y1="41.18" x2="508.96" y2="45.16"/>
			</g>
			<g>
				<line class="st0" x1="496.45" y1="55.6" x2="501.45" y2="55.6"/>
				<line class="st0" x1="498.95" y1="60.08" x2="498.95" y2="56.1"/>
			</g>
			<g>
				<line class="st0" x1="506.46" y1="55.6" x2="511.47" y2="55.6"/>
				<line class="st0" x1="508.96" y1="60.08" x2="508.96" y2="56.1"/>
			</g>
			<g>
				<rect x="457.89" y="51.63" class="st0" width="16.02" height="8.95"/>
				<line class="st0" x1="462.17" y1="51.69" x2="468.69" y2="60.55"/>
			</g>
			<g>
				<rect x="534" y="51.63" class="st0" width="16.02" height="8.95"/>
				<line class="st0" x1="545.75" y1="51.69" x2="539.23" y2="60.55"/>
			</g>
			<g>
				<line class="st0" x1="452.38" y1="54.61" x2="457.39" y2="54.61"/>
				<line class="st0" x1="457.39" y1="57.59" x2="451.38" y2="57.59"/>
				<line class="st0" x1="449" y1="63.02" x2="457.89" y2="39.69"/>
				<ellipse class="st0" cx="458.65" cy="37.66" rx="2" ry="1.99"/>
			</g>
			<rect x="513.97" y="40.68" class="st0" width="20.03" height="19.89"/>
			<line class="st0" x1="486.81" y1="55.85" x2="478.92" y2="40.68"/>
			<polygon class="st1" points="484.72,55.57 489.19,60.58 487.84,54.01 			"/>
			<line class="st0" x1="478.92" y1="60.58" x2="486.81" y2="45.41"/>
			<polygon class="st1" points="484.72,45.7 489.19,40.68 487.84,47.25 			"/>
			<line class="st0" x1="528.99" y1="55.11" x2="528.99" y2="41.18"/>
			<polygon class="st1" points="527.25,54.11 528.99,60.58 530.74,54.11 			"/>
			<line class="st0" x1="518.98" y1="46.15" x2="518.98" y2="60.08"/>
			<polygon class="st1" points="520.73,47.15 518.98,40.68 517.23,47.15 			"/>
		</g>
	</g>
</g>
<path class="st0" d="M525,60.69"/>
<line class="st0" x1="30" y1="113.19" x2="30" y2="104.19"/>
<line class="st0" x1="114" y1="104.19" x2="114" y2="114.19"/>
<line class="st0" x1="509.5" y1="113.69" x2="5" y2="113.69"/>
<g>
	<g id="XMLID_2_">
		<g>
			<polyline class="st0" points="145.66,61.08 145.66,56.76 145.66,52.04 145.66,47.32 145.66,42.19 			"/>
			<polyline class="st2" points="107.6,46.17 109.61,50.68 112.81,42.01 116.02,50.68 119.22,42.01 122.43,50.68 125.63,42.01 
				125.63,46.17 			"/>
			<polyline class="st2" points="185.72,46.17 185.72,42.01 188.93,50.68 192.13,42.01 195.34,50.68 198.54,42.01 201.74,50.68 
				201.74,46.67 			"/>
			<polygon class="st0" points="165.69,61.57 163.19,61.57 160.68,61.57 158.18,61.57 155.68,61.57 153.17,61.57 150.67,61.57 
				148.16,61.57 145.66,61.57 143.16,61.57 140.65,61.57 138.15,61.57 135.65,61.57 133.14,61.57 130.64,61.57 128.13,61.57 
				125.63,61.57 125.63,60.33 125.63,59.09 125.63,57.85 125.63,56.6 125.63,55.36 125.63,54.12 125.63,52.88 125.63,51.63 
				125.63,50.39 125.63,49.15 125.63,47.91 125.63,46.67 125.63,45.42 125.63,44.18 125.63,42.94 125.63,41.7 128.13,41.7 
				130.64,41.7 133.14,41.7 135.65,41.7 138.15,41.7 140.65,41.7 143.16,41.7 145.66,41.7 148.16,41.7 150.67,41.7 153.17,41.7 
				155.68,41.7 158.18,41.7 160.68,41.7 163.19,41.7 165.69,41.7 165.69,42.94 165.69,44.18 165.69,45.42 165.69,46.67 
				165.69,47.91 165.69,49.15 165.69,50.39 165.69,51.63 165.69,52.88 165.69,54.12 165.69,55.36 165.69,56.6 165.69,57.85 
				165.69,59.09 165.69,60.33 			"/>
			<g>
				<line class="st0" x1="148.16" y1="46.67" x2="153.17" y2="46.67"/>
				<line class="st0" x1="150.67" y1="42.19" x2="150.67" y2="46.17"/>
			</g>
			<g>
				<line class="st0" x1="158.18" y1="46.67" x2="163.19" y2="46.67"/>
				<line class="st0" x1="160.68" y1="42.19" x2="160.68" y2="46.17"/>
			</g>
			<g>
				<line class="st0" x1="148.16" y1="56.6" x2="153.17" y2="56.6"/>
				<line class="st0" x1="150.67" y1="61.08" x2="150.67" y2="57.1"/>
			</g>
			<g>
				<line class="st0" x1="158.18" y1="56.6" x2="163.19" y2="56.6"/>
				<line class="st0" x1="160.68" y1="61.08" x2="160.68" y2="57.1"/>
			</g>
			<g>
				<rect x="109.61" y="52.63" class="st0" width="16.02" height="8.94"/>
				<line class="st0" x1="113.89" y1="52.69" x2="120.4" y2="61.55"/>
			</g>
			<g>
				<rect x="185.72" y="52.63" class="st0" width="16.02" height="8.94"/>
				<line class="st0" x1="197.46" y1="52.69" x2="190.95" y2="61.55"/>
			</g>
			<g>
				<line class="st0" x1="104.1" y1="55.61" x2="109.11" y2="55.61"/>
				<line class="st0" x1="109.11" y1="58.59" x2="103.1" y2="58.59"/>
				<line class="st0" x1="100.71" y1="64.01" x2="109.61" y2="40.7"/>
				<ellipse class="st0" cx="110.37" cy="38.67" rx="2" ry="1.99"/>
			</g>
			<rect x="165.69" y="41.7" class="st0" width="20.03" height="19.88"/>
			<line class="st0" x1="138.53" y1="56.85" x2="130.64" y2="41.7"/>
			<polygon class="st1" points="136.44,56.57 140.91,61.57 139.56,55.02 			"/>
			<line class="st0" x1="130.64" y1="61.57" x2="138.53" y2="46.42"/>
			<polygon class="st1" points="136.44,46.7 140.91,41.7 139.56,48.25 			"/>
			<line class="st0" x1="180.71" y1="56.11" x2="180.71" y2="42.19"/>
			<polygon class="st1" points="178.97,55.11 180.71,61.58 182.46,55.11 			"/>
			<line class="st0" x1="170.7" y1="47.16" x2="170.7" y2="61.08"/>
			<polygon class="st1" points="172.44,48.16 170.7,41.69 168.95,48.16 			"/>
		</g>
	</g>
	<line class="st0" x1="150.75" y1="61.69" x2="150.75" y2="74.69"/>
	<line class="st0" x1="150.75" y1="29.19" x2="150.75" y2="42.19"/>
	<line class="st0" x1="160.75" y1="29.19" x2="160.75" y2="42.19"/>
	<circle class="st1" cx="150.75" cy="74.69" r="1.5"/>
	<circle class="st1" cx="160.75" cy="114.69" r="1.5"/>
	<path class="st0" d="M160.75,114.69v-37c1.66,0,3-1.34,3-3s-1.34-3-3-3v-10"/>
</g>
<g>
	<g>
		<g>
			<polyline class="st0" points="260.91,60.08 260.91,55.76 260.91,51.04 260.91,46.31 260.91,41.18 			"/>
			<polyline class="st2" points="222.86,45.16 224.86,49.68 228.06,40.99 231.27,49.68 234.47,40.99 237.68,49.68 240.88,40.99 
				240.88,45.16 			"/>
			<polyline class="st2" points="300.97,45.16 300.97,40.99 304.18,49.68 307.38,40.99 310.59,49.68 313.79,40.99 317,49.68 
				317,45.66 			"/>
			<polygon class="st0" points="280.94,60.58 278.44,60.58 275.94,60.58 273.43,60.58 270.93,60.58 268.42,60.58 265.92,60.58 
				263.42,60.58 260.91,60.58 258.41,60.58 255.91,60.58 253.4,60.58 250.9,60.58 248.39,60.58 245.89,60.58 243.39,60.58 
				240.88,60.58 240.88,59.33 240.88,58.09 240.88,56.85 240.88,55.6 240.88,54.36 240.88,53.12 240.88,51.87 240.88,50.63 
				240.88,49.39 240.88,48.14 240.88,46.9 240.88,45.66 240.88,44.41 240.88,43.17 240.88,41.93 240.88,40.68 243.39,40.68 
				245.89,40.68 248.39,40.68 250.9,40.68 253.4,40.68 255.91,40.68 258.41,40.68 260.91,40.68 263.42,40.68 265.92,40.68 
				268.42,40.68 270.93,40.68 273.43,40.68 275.94,40.68 278.44,40.68 280.94,40.68 280.94,41.93 280.94,43.17 280.94,44.41 
				280.94,45.66 280.94,46.9 280.94,48.14 280.94,49.39 280.94,50.63 280.94,51.87 280.94,53.12 280.94,54.36 280.94,55.6 
				280.94,56.85 280.94,58.09 280.94,59.33 			"/>
			<g>
				<line class="st0" x1="263.42" y1="45.66" x2="268.42" y2="45.66"/>
				<line class="st0" x1="265.92" y1="41.18" x2="265.92" y2="45.16"/>
			</g>
			<g>
				<line class="st0" x1="273.43" y1="45.66" x2="278.44" y2="45.66"/>
				<line class="st0" x1="275.94" y1="41.18" x2="275.94" y2="45.16"/>
			</g>
			<g>
				<line class="st0" x1="263.42" y1="55.6" x2="268.42" y2="55.6"/>
				<line class="st0" x1="265.92" y1="60.08" x2="265.92" y2="56.1"/>
			</g>
			<g>
				<line class="st0" x1="273.43" y1="55.6" x2="278.44" y2="55.6"/>
				<line class="st0" x1="275.94" y1="60.08" x2="275.94" y2="56.1"/>
			</g>
			<g>
				<rect x="224.86" y="51.63" class="st0" width="16.02" height="8.95"/>
				<line class="st0" x1="229.14" y1="51.69" x2="235.66" y2="60.55"/>
			</g>
			<g>
				<rect x="300.97" y="51.63" class="st0" width="16.02" height="8.95"/>
				<line class="st0" x1="312.72" y1="51.69" x2="306.2" y2="60.55"/>
			</g>
			<g>
				<line class="st0" x1="219.35" y1="54.61" x2="224.36" y2="54.61"/>
				<line class="st0" x1="224.36" y1="57.59" x2="218.35" y2="57.59"/>
				<line class="st0" x1="215.97" y1="63.02" x2="224.86" y2="39.69"/>
				<ellipse class="st0" cx="225.62" cy="37.66" rx="2" ry="1.99"/>
			</g>
			<rect x="280.94" y="40.68" class="st0" width="20.03" height="19.89"/>
			<line class="st0" x1="253.78" y1="55.85" x2="245.89" y2="40.68"/>
			<polygon class="st1" points="251.69,55.57 256.16,60.58 254.81,54.01 			"/>
			<line class="st0" x1="245.89" y1="60.58" x2="253.78" y2="45.41"/>
			<polygon class="st1" points="251.69,45.7 256.16,40.68 254.81,47.25 			"/>
			<line class="st0" x1="295.97" y1="55.11" x2="295.97" y2="41.18"/>
			<polygon class="st1" points="294.22,54.11 295.97,60.58 297.71,54.11 			"/>
			<line class="st0" x1="285.95" y1="46.15" x2="285.95" y2="60.08"/>
			<polygon class="st1" points="287.7,47.15 285.95,40.68 284.21,47.15 			"/>
		</g>
	</g>
	<line class="st0" x1="266" y1="28.19" x2="266" y2="41.19"/>
	<line class="st0" x1="276" y1="28.19" x2="276" y2="41.19"/>
	<line class="st0" x1="266" y1="61.19" x2="266" y2="74.19"/>
	<circle class="st1" cx="276" cy="113.69" r="1.5"/>
	<circle class="st1" cx="266" cy="73.69" r="1.5"/>
	<path class="st0" d="M276,114.19v-37c1.66,0,3-1.34,3-3s-1.34-3-3-3v-10"/>
</g>
<line class="st0" x1="509" y1="61.19" x2="509" y2="114.19"/>
<polyline class="st2" points="417,45.16 417,40.99 420.21,49.68 423.41,40.99 426.62,49.68 429.82,40.99 433.03,49.68 433.03,45.66 
	"/>
<line class="st0" x1="345.17" y1="51.69" x2="351.69" y2="60.55"/>
<line class="st0" x1="335.38" y1="54.61" x2="340.39" y2="54.61"/>
<line class="st0" x1="340.39" y1="57.59" x2="334.38" y2="57.59"/>
<line class="st0" x1="332" y1="63.02" x2="340.89" y2="39.69"/>
<ellipse class="st0" cx="341.65" cy="37.66" rx="2" ry="1.99"/>
<line class="st0" x1="412" y1="55.19" x2="412" y2="41.19"/>
<polygon class="st1" points="410.25,54.11 412,60.58 413.75,54.11 "/>
<polyline class="st0" points="377,60.19 377,55.76 377,51.04 377,46.31 377,41.19 "/>
<polyline class="st2" points="338.97,45.16 340.98,49.68 344.18,40.99 347.39,49.68 350.59,40.99 353.8,49.68 357,40.99 357,45.19 
	"/>
<polygon class="st0" points="397,60.69 394.5,60.69 392,60.69 389.5,60.69 387,60.69 384.5,60.69 382,60.69 379.5,60.69 377,60.69 
	374.5,60.69 372,60.69 369.5,60.69 367,60.69 364.5,60.69 362,60.69 359.5,60.69 357,60.69 357,59.44 357,58.19 357,56.94 
	357,55.69 357,54.44 357,53.19 357,51.94 357,50.69 357,49.44 357,48.19 357,46.94 357,45.69 357,44.44 357,43.19 357,41.94 
	357,40.69 359.5,40.69 362,40.69 364.5,40.69 367,40.69 369.5,40.69 372,40.69 374.5,40.69 377,40.69 379.5,40.69 382,40.69 
	384.5,40.69 387,40.69 389.5,40.69 392,40.69 394.5,40.69 397,40.69 397,41.94 397,43.19 397,44.44 397,45.69 397,46.94 397,48.19 
	397,49.44 397,50.69 397,51.94 397,53.19 397,54.44 397,55.69 397,56.94 397,58.19 397,59.44 "/>
<rect x="340.5" y="51.69" class="st0" width="16" height="9"/>
<rect x="397" y="40.69" class="st0" width="20" height="20"/>
<line class="st0" x1="370.31" y1="55.85" x2="362.42" y2="40.68"/>
<polygon class="st1" points="368.22,55.57 372.69,60.58 371.34,54.01 "/>
<line class="st0" x1="362.42" y1="60.58" x2="370.31" y2="45.41"/>
<polygon class="st1" points="368.22,45.7 372.69,40.68 371.34,47.25 "/>
<line class="st0" x1="402" y1="46.19" x2="402" y2="60.19"/>
<polygon class="st1" points="403.75,47.19 402,40.73 400.25,47.19 "/>
<line class="st0" x1="382" y1="28.19" x2="382" y2="41.19"/>
<line class="st0" x1="392" y1="28.19" x2="392" y2="41.19"/>
<line class="st0" x1="382" y1="61.19" x2="382" y2="74.19"/>
<circle class="st1" cx="392.03" cy="113.69" r="1.5"/>
<circle class="st1" cx="382" cy="73.69" r="1.5"/>
<path class="st0" d="M392,114.19v-37c1.66,0,3-1.34,3-3s-1.34-3-3-3v-10"/>
<g>
	<line class="st0" x1="379.5" y1="55.69" x2="384.5" y2="55.69"/>
	<g>
		<polyline class="st0" points="392,41.19 392,45.16 392,56.1 392,60.19 		"/>
		<line class="st0" x1="382" y1="60.19" x2="382" y2="56.19"/>
		<polyline class="st0" points="392.5,50.69 382,50.69 382,41.19 		"/>
	</g>
</g>
</svg>
