<?xml version="1.0" encoding="utf-8"?>
<!-- Generator: Adobe Illustrator 24.0.0, SVG Export Plug-In . SVG Version: 6.00 Build 0)  -->
<svg version="1.1" id="Layer_1" xmlns="http://www.w3.org/2000/svg" xmlns:xlink="http://www.w3.org/1999/xlink" x="0px" y="0px"
	 viewBox="0 0 160 80" style="enable-background:new 0 0 160 80;" xml:space="preserve">
<style type="text/css">
	.st0{fill:none;stroke:#0D0D0D;stroke-width:1.5;stroke-miterlimit:10;}
	.st1{fill:#0D0D0D;}
	.st2{font-family:'Calibri-Bold';}
	.st3{font-size:16.5px;}
	.st4{fill:none;stroke:#999999;stroke-width:1.5;stroke-miterlimit:10;}
</style>
<circle class="st0" cx="90.6" cy="40" r="15"/>
<polygon class="st1" points="90.6,25 84.5,35.5 96.6,35.5 "/>
<circle class="st0" cx="120.6" cy="40" r="15"/>
<polygon class="st1" points="120.6,25 114.5,35.5 126.6,35.5 "/>
<line class="st0" x1="46.1" y1="37" x2="76.1" y2="37"/>
<line class="st0" x1="76.1" y1="43" x2="46.1" y2="43"/>
<line class="st0" x1="61.3" y1="46.9" x2="61.3" y2="33.4"/>
<line class="st0" x1="67.3" y1="46.9" x2="67.3" y2="33.4"/>
<text transform="matrix(1 0 0 1 23.939 44.8519)" class="st1 st2 st3">M</text>
<circle class="st0" cx="31.1" cy="40" r="15"/>
<path class="st0" d="M50.9,30.6c0.1,0.2,0.2,0.4,0.3,0.6c1.1,2.7,1.8,5.7,1.8,8.8s-0.6,6.1-1.8,8.8"/>
<polygon class="st1" points="49.6,33.7 46.3,24.1 53.9,30.7 "/>
<line class="st0" x1="90.6" y1="24.4" x2="90.6" y2="7.9"/>
<line class="st0" x1="120.6" y1="24.4" x2="120.6" y2="7.9"/>
<line class="st0" x1="90.6" y1="72.1" x2="90.6" y2="55.6"/>
<line class="st0" x1="120.6" y1="72.1" x2="120.6" y2="55.6"/>
<rect x="64.3" y="17.6" class="st4" width="79.5" height="45"/>
</svg>
