<?xml version="1.0" encoding="utf-8"?>
<!-- Generator: Adobe Illustrator 24.0.0, SVG Export Plug-In . SVG Version: 6.00 Build 0)  -->
<svg version="1.1" id="Layer_1" xmlns="http://www.w3.org/2000/svg" xmlns:xlink="http://www.w3.org/1999/xlink" x="0px" y="0px"
	 viewBox="0 0 316 361" style="enable-background:new 0 0 316 361;" xml:space="preserve">
<style type="text/css">
	.st0{fill:none;stroke:#0D0D0D;stroke-width:1.5;stroke-miterlimit:10;}
	.st1{fill:#0D0D0D;}
	.st2{fill:none;stroke:#0D0D0D;stroke-width:1.5;stroke-linejoin:round;stroke-miterlimit:10;}
	.st3{fill:none;stroke:#0D0D0D;stroke-width:3;stroke-linecap:round;stroke-miterlimit:10;}
</style>
<g>
	<g>
		<polyline class="st0" points="35.89,145.42 37,143.04 38.11,140.66 39.22,138.28 40.33,135.9 41.44,133.52 42.52,131.2 		"/>
		<g>
			<polygon class="st1" points="40.94,130.47 43.1,127.89 45.27,125.31 44.68,128.62 44.1,131.94 42.52,131.2 			"/>
		</g>
	</g>
	<g>
		<polygon class="st0" points="35.86,128.53 35.86,133.53 35.86,138.53 35.86,143.53 35.86,148.53 30.86,148.53 25.86,148.53 
			20.86,148.53 15.86,148.53 15.86,143.53 15.86,138.53 15.86,133.53 15.86,128.53 20.86,128.53 25.86,128.53 30.86,128.53 		"/>
		<g>
			<line class="st0" x1="19.86" y1="143.03" x2="19.86" y2="129.03"/>
			<g>
				<polygon class="st1" points="21.72,142.03 19.97,148.54 18.23,142.03 				"/>
			</g>
		</g>
		<polyline class="st2" points="35.97,138.37 35.97,142.62 37.57,133.66 39.17,142.62 40.77,133.66 42.37,142.62 43.97,133.66 
			43.97,138.37 		"/>
		<polyline class="st2" points="25.86,128.53 20.86,123.53 10.86,123.53 10.86,138.53 15.36,138.53 		"/>
	</g>
	<line class="st0" x1="25.92" y1="128.04" x2="25.92" y2="119.04"/>
	<line class="st0" x1="495.42" y1="118.54" x2="0.92" y2="118.54"/>
	<g>
		<polyline class="st0" points="99.92,148.04 99.92,143.7 99.92,138.95 99.92,134.2 99.92,129.04 		"/>
		<polyline class="st2" points="119.92,144.04 119.92,148.69 122.32,139.74 124.72,148.69 127.12,139.74 129.52,148.69 
			131.92,139.74 131.92,144.04 		"/>
		<line class="st0" x1="109.92" y1="148.04" x2="109.92" y2="129.04"/>
		<path class="st0" d="M113.61,145.47c-1.08-2.07-1.69-4.43-1.69-6.93c0-2.54,0.63-4.94,1.75-7.03"/>
		<path class="st0" d="M106.23,145.47c1.08-2.07,1.69-4.43,1.69-6.93c0-2.54-0.63-4.94-1.75-7.03"/>
		<line class="st0" x1="109.92" y1="128.04" x2="109.92" y2="119.04"/>
		<polygon class="st0" points="119.92,148.54 117.42,148.54 114.92,148.54 112.42,148.54 109.92,148.54 107.42,148.54 
			104.92,148.54 102.42,148.54 99.92,148.54 97.42,148.54 94.92,148.54 92.42,148.54 89.92,148.54 87.42,148.54 84.92,148.54 
			82.42,148.54 79.92,148.54 79.92,147.29 79.92,146.04 79.92,144.79 79.92,143.54 79.92,142.29 79.92,141.04 79.92,139.79 
			79.92,138.54 79.92,137.29 79.92,136.04 79.92,134.79 79.92,133.54 79.92,132.29 79.92,131.04 79.92,129.79 79.92,128.54 
			82.42,128.54 84.92,128.54 87.42,128.54 89.92,128.54 92.42,128.54 94.92,128.54 97.42,128.54 99.92,128.54 102.42,128.54 
			104.92,128.54 107.42,128.54 109.92,128.54 112.42,128.54 114.92,128.54 117.42,128.54 119.92,128.54 119.92,129.79 
			119.92,131.04 119.92,132.29 119.92,133.54 119.92,134.79 119.92,136.04 119.92,137.29 119.92,138.54 119.92,139.79 
			119.92,141.04 119.92,142.29 119.92,143.54 119.92,144.79 119.92,146.04 119.92,147.29 		"/>
		<g>
			<line class="st0" x1="87.42" y1="133.54" x2="92.42" y2="133.54"/>
			<line class="st0" x1="89.92" y1="129.04" x2="89.92" y2="133.04"/>
		</g>
		<g>
			<line class="st0" x1="87.42" y1="143.54" x2="92.42" y2="143.54"/>
			<line class="st0" x1="89.92" y1="148.04" x2="89.92" y2="144.04"/>
		</g>
		
			<rect x="67.42" y="136.04" transform="matrix(5.497387e-11 -1 1 5.497387e-11 -72.1192 215.9597)" class="st0" width="9" height="16"/>
		<line class="st0" x1="68.19" y1="148.47" x2="74.7" y2="139.57"/>
		<g>
			<polyline class="st0" points="73.49,150.63 72.81,148.09 72.13,145.55 71.45,143.02 70.77,140.48 70.09,137.95 69.43,135.48 			
				"/>
			<g>
				<polygon class="st1" points="71.11,135.02 69.43,132.11 67.74,129.19 67.74,132.56 67.74,135.93 69.43,135.48 				"/>
			</g>
		</g>
		<line class="st0" x1="63.92" y1="143.54" x2="60.92" y2="143.54"/>
		<line class="st3" x1="60.92" y1="141.04" x2="60.92" y2="146.04"/>
	</g>
	<line class="st0" x1="494.92" y1="106.04" x2="494.92" y2="119.04"/>
	<circle class="st1" cx="109.92" cy="118.54" r="1.5"/>
	<circle class="st1" cx="109.92" cy="158.54" r="1.5"/>
	<circle class="st1" cx="25.92" cy="118.54" r="1.5"/>
	<circle class="st1" cx="25.92" cy="158.54" r="1.5"/>
	<g>
		<line class="st0" x1="494.95" y1="73.04" x2="494.95" y2="86.04"/>
		<line class="st0" x1="504.95" y1="73.04" x2="504.95" y2="86.04"/>
		<g>
			<g>
				<polyline class="st0" points="489.86,104.92 489.86,100.61 489.86,95.88 489.86,91.16 489.86,86.03 				"/>
				<polyline class="st2" points="451.81,90.01 453.81,94.52 457.01,85.84 460.22,94.52 463.42,85.84 466.63,94.52 469.83,85.84 
					469.83,90.01 				"/>
				<polyline class="st2" points="529.92,90.01 529.92,85.84 533.13,94.52 536.33,85.84 539.54,94.52 542.74,85.84 545.95,94.52 
					545.95,90.5 				"/>
				<polygon class="st0" points="509.89,105.42 507.39,105.42 504.88,105.42 502.38,105.42 499.88,105.42 497.37,105.42 
					494.87,105.42 492.37,105.42 489.86,105.42 487.36,105.42 484.86,105.42 482.35,105.42 479.85,105.42 477.34,105.42 
					474.84,105.42 472.34,105.42 469.83,105.42 469.83,104.18 469.83,102.94 469.83,101.69 469.83,100.45 469.83,99.21 
					469.83,97.96 469.83,96.72 469.83,95.48 469.83,94.23 469.83,92.99 469.83,91.75 469.83,90.5 469.83,89.26 469.83,88.02 
					469.83,86.77 469.83,85.53 472.34,85.53 474.84,85.53 477.34,85.53 479.85,85.53 482.35,85.53 484.86,85.53 487.36,85.53 
					489.86,85.53 492.37,85.53 494.87,85.53 497.37,85.53 499.88,85.53 502.38,85.53 504.88,85.53 507.39,85.53 509.89,85.53 
					509.89,86.77 509.89,88.02 509.89,89.26 509.89,90.5 509.89,91.75 509.89,92.99 509.89,94.23 509.89,95.48 509.89,96.72 
					509.89,97.96 509.89,99.21 509.89,100.45 509.89,101.69 509.89,102.94 509.89,104.18 				"/>
				<g>
					<line class="st0" x1="492.37" y1="90.5" x2="497.37" y2="90.5"/>
					<line class="st0" x1="494.87" y1="86.03" x2="494.87" y2="90.01"/>
				</g>
				<g>
					<line class="st0" x1="502.38" y1="90.5" x2="507.39" y2="90.5"/>
					<line class="st0" x1="504.88" y1="86.03" x2="504.88" y2="90.01"/>
				</g>
				<g>
					<line class="st0" x1="492.37" y1="100.45" x2="497.37" y2="100.45"/>
					<line class="st0" x1="494.87" y1="104.92" x2="494.87" y2="100.95"/>
				</g>
				<g>
					<line class="st0" x1="502.38" y1="100.45" x2="507.39" y2="100.45"/>
					<line class="st0" x1="504.88" y1="104.92" x2="504.88" y2="100.95"/>
				</g>
				<g>
					<rect x="453.81" y="96.47" class="st0" width="16.02" height="8.95"/>
					<line class="st0" x1="458.09" y1="96.53" x2="464.61" y2="105.4"/>
				</g>
				<g>
					<rect x="529.92" y="96.47" class="st0" width="16.02" height="8.95"/>
					<line class="st0" x1="541.67" y1="96.53" x2="535.15" y2="105.4"/>
				</g>
				<g>
					<line class="st0" x1="448.3" y1="99.45" x2="453.31" y2="99.45"/>
					<line class="st0" x1="453.31" y1="102.44" x2="447.3" y2="102.44"/>
					<line class="st0" x1="444.92" y1="107.86" x2="453.81" y2="84.54"/>
					<ellipse class="st0" cx="454.57" cy="82.5" rx="2" ry="1.99"/>
				</g>
				<rect x="509.89" y="85.53" class="st0" width="20.03" height="19.89"/>
				<line class="st0" x1="482.73" y1="100.69" x2="474.84" y2="85.53"/>
				<polygon class="st1" points="480.64,100.41 485.11,105.42 483.76,98.86 				"/>
				<line class="st0" x1="474.84" y1="105.42" x2="482.73" y2="90.26"/>
				<polygon class="st1" points="480.64,90.54 485.11,85.53 483.76,92.09 				"/>
				<line class="st0" x1="524.91" y1="99.95" x2="524.91" y2="86.03"/>
				<polygon class="st1" points="523.17,98.96 524.91,105.43 526.66,98.96 				"/>
				<line class="st0" x1="514.9" y1="91" x2="514.9" y2="104.92"/>
				<polygon class="st1" points="516.65,91.99 514.9,85.53 513.15,91.99 				"/>
			</g>
		</g>
	</g>
	<path class="st0" d="M520.92,105.54"/>
	<line class="st0" x1="25.92" y1="158.04" x2="25.92" y2="149.04"/>
	<line class="st0" x1="109.92" y1="149.04" x2="109.92" y2="159.04"/>
	<line class="st0" x1="505.42" y1="158.54" x2="0.92" y2="158.54"/>
	<g>
		<g id="XMLID_2_">
			<g>
				<polyline class="st0" points="139.84,104.93 139.84,100.61 139.84,95.89 139.84,91.17 139.84,86.04 				"/>
				<polyline class="st2" points="101.78,90.02 103.78,94.53 106.99,85.86 110.19,94.53 113.4,85.86 116.6,94.53 119.81,85.86 
					119.81,90.02 				"/>
				<polyline class="st2" points="179.9,90.02 179.9,85.86 183.1,94.53 186.3,85.86 189.51,94.53 192.72,85.86 195.92,94.53 
					195.92,90.52 				"/>
				<polygon class="st0" points="159.87,105.42 157.36,105.42 154.86,105.42 152.35,105.42 149.85,105.42 147.35,105.42 
					144.84,105.42 142.34,105.42 139.84,105.42 137.33,105.42 134.83,105.42 132.32,105.42 129.82,105.42 127.32,105.42 
					124.81,105.42 122.31,105.42 119.81,105.42 119.81,104.18 119.81,102.94 119.81,101.7 119.81,100.45 119.81,99.21 119.81,97.97 
					119.81,96.73 119.81,95.49 119.81,94.24 119.81,93 119.81,91.76 119.81,90.52 119.81,89.27 119.81,88.03 119.81,86.79 
					119.81,85.55 122.31,85.55 124.81,85.55 127.32,85.55 129.82,85.55 132.32,85.55 134.83,85.55 137.33,85.55 139.84,85.55 
					142.34,85.55 144.84,85.55 147.35,85.55 149.85,85.55 152.35,85.55 154.86,85.55 157.36,85.55 159.87,85.55 159.87,86.79 
					159.87,88.03 159.87,89.27 159.87,90.52 159.87,91.76 159.87,93 159.87,94.24 159.87,95.49 159.87,96.73 159.87,97.97 
					159.87,99.21 159.87,100.45 159.87,101.7 159.87,102.94 159.87,104.18 				"/>
				<g>
					<line class="st0" x1="142.34" y1="90.52" x2="147.35" y2="90.52"/>
					<line class="st0" x1="144.84" y1="86.04" x2="144.84" y2="90.02"/>
				</g>
				<g>
					<line class="st0" x1="152.35" y1="90.52" x2="157.36" y2="90.52"/>
					<line class="st0" x1="154.86" y1="86.04" x2="154.86" y2="90.02"/>
				</g>
				<g>
					<line class="st0" x1="142.34" y1="100.45" x2="147.35" y2="100.45"/>
					<line class="st0" x1="144.84" y1="104.93" x2="144.84" y2="100.95"/>
				</g>
				<g>
					<line class="st0" x1="152.35" y1="100.45" x2="157.36" y2="100.45"/>
					<line class="st0" x1="154.86" y1="104.93" x2="154.86" y2="100.95"/>
				</g>
				<g>
					<rect x="103.78" y="96.48" class="st0" width="16.02" height="8.94"/>
					<line class="st0" x1="108.06" y1="96.54" x2="114.58" y2="105.4"/>
				</g>
				<g>
					<rect x="179.9" y="96.48" class="st0" width="16.02" height="8.94"/>
					<line class="st0" x1="191.64" y1="96.54" x2="185.12" y2="105.4"/>
				</g>
				<g>
					<line class="st0" x1="98.27" y1="99.46" x2="103.28" y2="99.46"/>
					<line class="st0" x1="103.28" y1="102.44" x2="97.27" y2="102.44"/>
					<line class="st0" x1="94.89" y1="107.86" x2="103.78" y2="84.55"/>
					<ellipse class="st0" cx="104.54" cy="82.52" rx="2" ry="1.99"/>
				</g>
				<rect x="159.87" y="85.55" class="st0" width="20.03" height="19.88"/>
				<line class="st0" x1="132.71" y1="100.7" x2="124.81" y2="85.55"/>
				<polygon class="st1" points="130.61,100.42 135.09,105.42 133.73,98.87 				"/>
				<line class="st0" x1="124.81" y1="105.42" x2="132.71" y2="90.27"/>
				<polygon class="st1" points="130.61,90.55 135.09,85.55 133.73,92.1 				"/>
				<line class="st0" x1="174.89" y1="99.96" x2="174.89" y2="86.04"/>
				<polygon class="st1" points="173.14,98.96 174.89,105.43 176.63,98.96 				"/>
				<line class="st0" x1="164.87" y1="91.01" x2="164.87" y2="104.93"/>
				<polygon class="st1" points="166.62,92.01 164.87,85.54 163.13,92.01 				"/>
			</g>
		</g>
		<line class="st0" x1="144.92" y1="105.54" x2="144.92" y2="118.54"/>
		<line class="st0" x1="144.92" y1="73.04" x2="144.92" y2="86.04"/>
		<line class="st0" x1="154.92" y1="73.04" x2="154.92" y2="86.04"/>
		<circle class="st1" cx="144.92" cy="118.54" r="1.5"/>
		<circle class="st1" cx="154.92" cy="158.54" r="1.5"/>
		<path class="st0" d="M154.92,158.54v-37c1.66,0,3-1.34,3-3s-1.34-3-3-3v-10"/>
	</g>
	<g>
		<g>
			<g>
				<polyline class="st0" points="256.83,104.92 256.83,100.61 256.83,95.88 256.83,91.16 256.83,86.03 				"/>
				<polyline class="st2" points="218.78,90.01 220.78,94.52 223.98,85.84 227.19,94.52 230.39,85.84 233.6,94.52 236.8,85.84 
					236.8,90.01 				"/>
				<polyline class="st2" points="296.89,90.01 296.89,85.84 300.1,94.52 303.3,85.84 306.51,94.52 309.71,85.84 312.92,94.52 
					312.92,90.5 				"/>
				<polygon class="st0" points="276.86,105.42 274.36,105.42 271.86,105.42 269.35,105.42 266.85,105.42 264.34,105.42 
					261.84,105.42 259.34,105.42 256.83,105.42 254.33,105.42 251.83,105.42 249.32,105.42 246.82,105.42 244.32,105.42 
					241.81,105.42 239.31,105.42 236.8,105.42 236.8,104.18 236.8,102.94 236.8,101.69 236.8,100.45 236.8,99.21 236.8,97.96 
					236.8,96.72 236.8,95.48 236.8,94.23 236.8,92.99 236.8,91.75 236.8,90.5 236.8,89.26 236.8,88.02 236.8,86.77 236.8,85.53 
					239.31,85.53 241.81,85.53 244.32,85.53 246.82,85.53 249.32,85.53 251.83,85.53 254.33,85.53 256.83,85.53 259.34,85.53 
					261.84,85.53 264.34,85.53 266.85,85.53 269.35,85.53 271.86,85.53 274.36,85.53 276.86,85.53 276.86,86.77 276.86,88.02 
					276.86,89.26 276.86,90.5 276.86,91.75 276.86,92.99 276.86,94.23 276.86,95.48 276.86,96.72 276.86,97.96 276.86,99.21 
					276.86,100.45 276.86,101.69 276.86,102.94 276.86,104.18 				"/>
				<g>
					<line class="st0" x1="259.34" y1="90.5" x2="264.34" y2="90.5"/>
					<line class="st0" x1="261.84" y1="86.03" x2="261.84" y2="90.01"/>
				</g>
				<g>
					<line class="st0" x1="269.35" y1="90.5" x2="274.36" y2="90.5"/>
					<line class="st0" x1="271.86" y1="86.03" x2="271.86" y2="90.01"/>
				</g>
				<g>
					<line class="st0" x1="259.34" y1="100.45" x2="264.34" y2="100.45"/>
					<line class="st0" x1="261.84" y1="104.92" x2="261.84" y2="100.95"/>
				</g>
				<g>
					<line class="st0" x1="269.35" y1="100.45" x2="274.36" y2="100.45"/>
					<line class="st0" x1="271.86" y1="104.92" x2="271.86" y2="100.95"/>
				</g>
				<g>
					<rect x="220.78" y="96.47" class="st0" width="16.02" height="8.95"/>
					<line class="st0" x1="225.06" y1="96.53" x2="231.58" y2="105.4"/>
				</g>
				<g>
					<rect x="296.89" y="96.47" class="st0" width="16.02" height="8.95"/>
					<line class="st0" x1="308.64" y1="96.53" x2="302.12" y2="105.4"/>
				</g>
				<g>
					<line class="st0" x1="215.27" y1="99.45" x2="220.28" y2="99.45"/>
					<line class="st0" x1="220.28" y1="102.44" x2="214.27" y2="102.44"/>
					<line class="st0" x1="211.89" y1="107.86" x2="220.78" y2="84.54"/>
					<ellipse class="st0" cx="221.54" cy="82.5" rx="2" ry="1.99"/>
				</g>
				<rect x="276.86" y="85.53" class="st0" width="20.03" height="19.89"/>
				<line class="st0" x1="249.7" y1="100.69" x2="241.81" y2="85.53"/>
				<polygon class="st1" points="247.61,100.41 252.08,105.42 250.73,98.86 				"/>
				<line class="st0" x1="241.81" y1="105.42" x2="249.7" y2="90.26"/>
				<polygon class="st1" points="247.61,90.54 252.08,85.53 250.73,92.09 				"/>
				<line class="st0" x1="291.89" y1="99.95" x2="291.89" y2="86.03"/>
				<polygon class="st1" points="290.14,98.96 291.89,105.43 293.63,98.96 				"/>
				<line class="st0" x1="281.87" y1="91" x2="281.87" y2="104.92"/>
				<polygon class="st1" points="283.62,91.99 281.87,85.53 280.13,91.99 				"/>
			</g>
		</g>
		<line class="st0" x1="261.92" y1="73.04" x2="261.92" y2="86.04"/>
		<line class="st0" x1="271.92" y1="73.04" x2="271.92" y2="86.04"/>
		<line class="st0" x1="261.92" y1="106.04" x2="261.92" y2="119.04"/>
		<circle class="st1" cx="271.92" cy="158.54" r="1.5"/>
		<circle class="st1" cx="261.92" cy="118.54" r="1.5"/>
		<path class="st0" d="M271.92,159.04v-37c1.66,0,3-1.34,3-3s-1.34-3-3-3v-10"/>
	</g>
	<line class="st0" x1="504.92" y1="106.04" x2="504.92" y2="159.04"/>
	<polyline class="st2" points="412.92,90.01 412.92,85.84 416.13,94.52 419.33,85.84 422.54,94.52 425.74,85.84 428.95,94.52 
		428.95,90.5 	"/>
	<line class="st0" x1="341.09" y1="96.53" x2="347.61" y2="105.4"/>
	<line class="st0" x1="331.3" y1="99.45" x2="336.31" y2="99.45"/>
	<line class="st0" x1="336.31" y1="102.44" x2="330.3" y2="102.44"/>
	<line class="st0" x1="327.92" y1="107.86" x2="336.81" y2="84.54"/>
	<ellipse class="st0" cx="337.57" cy="82.5" rx="2" ry="1.99"/>
	<line class="st0" x1="407.92" y1="100.04" x2="407.92" y2="86.04"/>
	<polygon class="st1" points="406.17,98.96 407.92,105.43 409.67,98.96 	"/>
	<polyline class="st0" points="372.92,105.04 372.92,100.61 372.92,95.88 372.92,91.16 372.92,86.04 	"/>
	<polyline class="st2" points="334.89,90.01 336.9,94.52 340.1,85.84 343.31,94.52 346.51,85.84 349.72,94.52 352.92,85.84 
		352.92,90.04 	"/>
	<polygon class="st0" points="392.92,105.54 390.42,105.54 387.92,105.54 385.42,105.54 382.92,105.54 380.42,105.54 377.92,105.54 
		375.42,105.54 372.92,105.54 370.42,105.54 367.92,105.54 365.42,105.54 362.92,105.54 360.42,105.54 357.92,105.54 355.42,105.54 
		352.92,105.54 352.92,104.29 352.92,103.04 352.92,101.79 352.92,100.54 352.92,99.29 352.92,98.04 352.92,96.79 352.92,95.54 
		352.92,94.29 352.92,93.04 352.92,91.79 352.92,90.54 352.92,89.29 352.92,88.04 352.92,86.79 352.92,85.54 355.42,85.54 
		357.92,85.54 360.42,85.54 362.92,85.54 365.42,85.54 367.92,85.54 370.42,85.54 372.92,85.54 375.42,85.54 377.92,85.54 
		380.42,85.54 382.92,85.54 385.42,85.54 387.92,85.54 390.42,85.54 392.92,85.54 392.92,86.79 392.92,88.04 392.92,89.29 
		392.92,90.54 392.92,91.79 392.92,93.04 392.92,94.29 392.92,95.54 392.92,96.79 392.92,98.04 392.92,99.29 392.92,100.54 
		392.92,101.79 392.92,103.04 392.92,104.29 	"/>
	<rect x="336.42" y="96.54" class="st0" width="16" height="9"/>
	<rect x="392.92" y="85.54" class="st0" width="20" height="20"/>
	<line class="st0" x1="366.23" y1="100.69" x2="358.34" y2="85.53"/>
	<polygon class="st1" points="364.14,100.41 368.62,105.42 367.26,98.86 	"/>
	<line class="st0" x1="358.34" y1="105.42" x2="366.23" y2="90.26"/>
	<polygon class="st1" points="364.14,90.54 368.62,85.53 367.26,92.09 	"/>
	<line class="st0" x1="397.92" y1="91.04" x2="397.92" y2="105.04"/>
	<polygon class="st1" points="399.67,92.04 397.92,85.57 396.17,92.04 	"/>
	<line class="st0" x1="377.92" y1="73.04" x2="377.92" y2="86.04"/>
	<line class="st0" x1="387.92" y1="73.04" x2="387.92" y2="86.04"/>
	<line class="st0" x1="377.92" y1="106.04" x2="377.92" y2="119.04"/>
	<circle class="st1" cx="387.95" cy="158.54" r="1.5"/>
	<circle class="st1" cx="377.92" cy="118.54" r="1.5"/>
	<path class="st0" d="M387.92,159.04v-37c1.66,0,3-1.34,3-3s-1.34-3-3-3v-10"/>
	<g>
		<line class="st0" x1="375.42" y1="100.54" x2="380.42" y2="100.54"/>
		<g>
			<polyline class="st0" points="387.92,86.04 387.92,90.01 387.92,100.95 387.92,105.04 			"/>
			<line class="st0" x1="377.92" y1="105.04" x2="377.92" y2="101.04"/>
			<polyline class="st0" points="388.42,95.54 377.92,95.54 377.92,86.04 			"/>
		</g>
	</g>
	<g>
		<g>
			<polyline class="st0" points="35.39,272.92 36.5,270.54 37.61,268.16 38.72,265.78 39.83,263.4 40.94,261.02 42.02,258.7 			"/>
			<g>
				<polygon class="st1" points="40.44,257.97 42.6,255.39 44.77,252.81 44.18,256.12 43.6,259.44 42.02,258.7 				"/>
			</g>
		</g>
		<g>
			<polygon class="st0" points="35.42,256.46 35.42,261.46 35.42,266.46 35.42,271.46 35.42,276.46 30.42,276.46 25.42,276.46 
				20.42,276.46 15.42,276.46 15.42,271.46 15.42,266.46 15.42,261.46 15.42,256.46 20.42,256.46 25.42,256.46 30.42,256.46 			"/>
			<g>
				<line class="st0" x1="19.42" y1="270.96" x2="19.42" y2="256.96"/>
				<g>
					<polygon class="st1" points="21.22,269.96 19.47,276.47 17.73,269.96 					"/>
				</g>
			</g>
			<polyline class="st2" points="35.42,265.96 35.42,270.12 37.02,261.16 38.62,270.12 40.22,261.16 41.82,270.12 43.42,261.16 
				43.42,265.96 			"/>
			<polyline class="st2" points="25.42,256.46 20.42,251.46 10.42,251.46 10.42,266.46 14.92,266.46 			"/>
		</g>
		<line class="st0" x1="25.42" y1="255.54" x2="25.42" y2="246.54"/>
		<g>
			<polyline class="st0" points="99.42,275.96 99.42,271.2 99.42,266.45 99.42,261.7 99.42,256.96 			"/>
			<polyline class="st2" points="119.42,271.96 119.42,276.19 121.82,267.24 124.22,276.19 126.62,267.24 129.02,276.19 
				131.42,267.24 131.42,271.96 			"/>
			<line class="st0" x1="109.42" y1="275.96" x2="109.42" y2="256.96"/>
			<path class="st0" d="M113.11,272.97c-1.08-2.07-1.69-4.43-1.69-6.93c0-2.54,0.63-4.94,1.75-7.03"/>
			<path class="st0" d="M105.73,272.97c1.08-2.07,1.69-4.43,1.69-6.93c0-2.54-0.63-4.94-1.75-7.03"/>
			<line class="st0" x1="109.42" y1="255.96" x2="109.42" y2="246.96"/>
			<polygon class="st0" points="119.42,276.46 116.92,276.46 114.42,276.46 111.92,276.46 109.42,276.46 106.92,276.46 
				104.42,276.46 101.92,276.46 99.42,276.46 96.92,276.46 94.42,276.46 91.92,276.46 89.42,276.46 86.92,276.46 84.42,276.46 
				81.92,276.46 79.42,276.46 79.42,275.21 79.42,273.96 79.42,272.71 79.42,271.46 79.42,270.21 79.42,268.96 79.42,267.71 
				79.42,266.46 79.42,265.21 79.42,263.96 79.42,262.71 79.42,261.46 79.42,260.21 79.42,258.96 79.42,257.71 79.42,256.46 
				81.92,256.46 84.42,256.46 86.92,256.46 89.42,256.46 91.92,256.46 94.42,256.46 96.92,256.46 99.42,256.46 101.92,256.46 
				104.42,256.46 106.92,256.46 109.42,256.46 111.92,256.46 114.42,256.46 116.92,256.46 119.42,256.46 119.42,257.71 
				119.42,258.96 119.42,260.21 119.42,261.46 119.42,262.71 119.42,263.96 119.42,265.21 119.42,266.46 119.42,267.71 
				119.42,268.96 119.42,270.21 119.42,271.46 119.42,272.71 119.42,273.96 119.42,275.21 			"/>
			<g>
				<line class="st0" x1="86.92" y1="261.46" x2="91.92" y2="261.46"/>
				<line class="st0" x1="89.42" y1="256.96" x2="89.42" y2="260.96"/>
			</g>
			<g>
				<line class="st0" x1="86.92" y1="271.46" x2="91.92" y2="271.46"/>
				<line class="st0" x1="89.42" y1="275.96" x2="89.42" y2="271.96"/>
			</g>
			
				<rect x="66.92" y="263.96" transform="matrix(5.497387e-11 -1 1 5.497387e-11 -200.5403 343.3808)" class="st0" width="9" height="16"/>
			<line class="st0" x1="67.69" y1="275.97" x2="74.2" y2="267.07"/>
			<g>
				<polyline class="st0" points="72.99,278.13 72.31,275.59 71.63,273.05 70.95,270.52 70.27,267.98 69.59,265.45 68.93,262.98 
									"/>
				<g>
					<polygon class="st1" points="70.29,262.52 68.6,259.61 66.92,256.69 66.92,260.06 66.92,263.43 68.6,262.98 					"/>
				</g>
			</g>
			<line class="st0" x1="63.92" y1="271.46" x2="60.92" y2="271.46"/>
			<line class="st3" x1="60.92" y1="268.96" x2="60.92" y2="273.96"/>
		</g>
		<circle class="st1" cx="109.42" cy="246.04" r="1.5"/>
		<circle class="st1" cx="109.42" cy="286.04" r="1.5"/>
		<circle class="st1" cx="25.42" cy="246.04" r="1.5"/>
		<circle class="st1" cx="25.42" cy="286.04" r="1.5"/>
		<line class="st0" x1="25.42" y1="285.54" x2="25.42" y2="276.54"/>
		<line class="st0" x1="109.42" y1="276.54" x2="109.42" y2="286.54"/>
		<g id="XMLID_1_">
			<g>
				<polyline class="st0" points="139.42,232.96 139.42,229.11 139.42,224.39 139.42,219.67 139.42,213.96 				"/>
				<polyline class="st2" points="101.39,218.52 103.4,223.03 106.6,214.36 109.81,223.03 113.01,214.36 116.22,223.03 
					119.42,214.36 119.42,218.96 				"/>
				<polyline class="st2" points="179.42,218.96 179.42,214.36 182.62,223.02 185.82,214.36 189.02,223.02 192.22,214.36 
					195.42,223.02 195.42,218.96 				"/>
				<polygon class="st0" points="159.42,233.46 156.92,233.46 154.42,233.46 151.92,233.46 149.42,233.46 146.92,233.46 
					144.42,233.46 141.92,233.46 139.42,233.46 136.92,233.46 134.42,233.46 131.92,233.46 129.42,233.46 126.92,233.46 
					124.42,233.46 121.92,233.46 119.42,233.46 119.42,232.21 119.42,230.96 119.42,229.71 119.42,228.46 119.42,227.21 
					119.42,225.96 119.42,224.71 119.42,223.46 119.42,222.21 119.42,220.96 119.42,219.71 119.42,218.46 119.42,217.21 
					119.42,215.96 119.42,214.71 119.42,213.46 121.92,213.46 124.42,213.46 126.92,213.46 129.42,213.46 131.92,213.46 
					134.42,213.46 136.92,213.46 139.42,213.46 141.92,213.46 144.42,213.46 146.92,213.46 149.42,213.46 151.92,213.46 
					154.42,213.46 156.92,213.46 159.42,213.46 159.42,214.71 159.42,215.96 159.42,217.21 159.42,218.46 159.42,219.71 
					159.42,220.96 159.42,222.21 159.42,223.46 159.42,224.71 159.42,225.96 159.42,227.21 159.42,228.46 159.42,229.71 
					159.42,230.96 159.42,232.21 				"/>
				<g>
					<line class="st0" x1="141.92" y1="218.46" x2="146.92" y2="218.46"/>
					<line class="st0" x1="144.42" y1="213.96" x2="144.42" y2="217.96"/>
				</g>
				<g>
					<line class="st0" x1="151.92" y1="218.46" x2="156.92" y2="218.46"/>
					<line class="st0" x1="154.42" y1="213.96" x2="154.42" y2="217.96"/>
				</g>
				<g>
					<line class="st0" x1="141.92" y1="228.46" x2="146.92" y2="228.46"/>
					<line class="st0" x1="144.42" y1="232.96" x2="144.42" y2="228.96"/>
				</g>
				<g>
					<line class="st0" x1="151.92" y1="228.46" x2="156.92" y2="228.46"/>
					<line class="st0" x1="154.42" y1="232.96" x2="154.42" y2="228.96"/>
				</g>
				<g>
					<rect x="103.42" y="224.46" class="st0" width="16" height="9"/>
					<line class="st0" x1="107.56" y1="224.54" x2="114.08" y2="233.4"/>
				</g>
				<g>
					<rect x="179.42" y="224.46" class="st0" width="16" height="9"/>
					<line class="st0" x1="191.14" y1="224.54" x2="184.62" y2="233.4"/>
				</g>
				<g>
					<line class="st0" x1="97.92" y1="228.46" x2="102.92" y2="228.46"/>
					<line class="st0" x1="102.92" y1="230.46" x2="96.92" y2="230.46"/>
					<line class="st0" x1="94.39" y1="236.36" x2="103.28" y2="213.05"/>
					<ellipse class="st0" cx="104.04" cy="211.02" rx="2" ry="1.99"/>
				</g>
				<rect x="159.42" y="213.46" class="st0" width="20" height="20"/>
				<line class="st0" x1="132.21" y1="228.7" x2="124.31" y2="213.55"/>
				<polygon class="st1" points="130.11,228.42 134.59,233.42 133.23,226.87 				"/>
				<line class="st0" x1="124.31" y1="233.42" x2="132.21" y2="218.27"/>
				<polygon class="st1" points="130.11,218.55 134.59,213.55 133.23,220.1 				"/>
				<line class="st0" x1="174.42" y1="226.96" x2="174.42" y2="213.96"/>
				<polygon class="st1" points="172.64,226.96 174.39,233.43 176.13,226.96 				"/>
				<line class="st0" x1="164.42" y1="219.96" x2="164.42" y2="232.96"/>
				<polygon class="st1" points="166.12,220.46 164.37,214 162.63,220.46 				"/>
			</g>
		</g>
		<line class="st0" x1="144.42" y1="233.04" x2="144.42" y2="246.04"/>
		<line class="st0" x1="144.42" y1="199.54" x2="144.42" y2="212.54"/>
		<line class="st0" x1="154.42" y1="199.54" x2="154.42" y2="212.54"/>
		<circle class="st1" cx="144.42" cy="246.04" r="1.5"/>
		<circle class="st1" cx="154.42" cy="286.04" r="1.5"/>
		<path class="st0" d="M154.42,286.04v-37c1.66,0,3-1.34,3-3s-1.34-3-3-3v-10"/>
		<g>
			<g>
				<polyline class="st0" points="256.42,232.96 256.42,228.53 256.42,223.81 256.42,219.09 256.42,213.96 				"/>
				<polyline class="st2" points="218.39,217.94 220.4,222.45 223.6,213.78 226.81,222.45 230.01,213.78 233.22,222.45 
					236.42,213.78 236.42,217.96 				"/>
				<polyline class="st2" points="296.42,217.96 296.42,213.79 299.62,222.45 302.82,213.79 306.02,222.45 309.22,213.79 
					312.42,222.45 312.42,217.96 				"/>
				<polygon class="st0" points="276.42,233.46 273.92,233.46 271.42,233.46 268.92,233.46 266.42,233.46 263.92,233.46 
					261.42,233.46 258.92,233.46 256.42,233.46 253.92,233.46 251.42,233.46 248.92,233.46 246.42,233.46 243.92,233.46 
					241.42,233.46 238.92,233.46 236.42,233.46 236.42,232.21 236.42,230.96 236.42,229.71 236.42,228.46 236.42,227.21 
					236.42,225.96 236.42,224.71 236.42,223.46 236.42,222.21 236.42,220.96 236.42,219.71 236.42,218.46 236.42,217.21 
					236.42,215.96 236.42,214.71 236.42,213.46 238.92,213.46 241.42,213.46 243.92,213.46 246.42,213.46 248.92,213.46 
					251.42,213.46 253.92,213.46 256.42,213.46 258.92,213.46 261.42,213.46 263.92,213.46 266.42,213.46 268.92,213.46 
					271.42,213.46 273.92,213.46 276.42,213.46 276.42,214.71 276.42,215.96 276.42,217.21 276.42,218.46 276.42,219.71 
					276.42,220.96 276.42,222.21 276.42,223.46 276.42,224.71 276.42,225.96 276.42,227.21 276.42,228.46 276.42,229.71 
					276.42,230.96 276.42,232.21 				"/>
				<g>
					<line class="st0" x1="258.92" y1="218.46" x2="263.92" y2="218.46"/>
					<line class="st0" x1="261.42" y1="213.96" x2="261.42" y2="217.96"/>
				</g>
				<g>
					<line class="st0" x1="268.92" y1="218.46" x2="273.92" y2="218.46"/>
					<line class="st0" x1="271.42" y1="213.96" x2="271.42" y2="217.96"/>
				</g>
				<g>
					<line class="st0" x1="258.92" y1="228.46" x2="263.92" y2="228.46"/>
					<line class="st0" x1="261.42" y1="232.96" x2="261.42" y2="228.96"/>
				</g>
				<g>
					<line class="st0" x1="268.92" y1="228.46" x2="273.92" y2="228.46"/>
					<line class="st0" x1="271.42" y1="232.96" x2="271.42" y2="228.96"/>
				</g>
				<g>
					<rect x="220.42" y="224.46" class="st0" width="16" height="9"/>
					<line class="st0" x1="224.56" y1="224.46" x2="231.08" y2="233.32"/>
				</g>
				<g>
					<rect x="296.42" y="224.46" class="st0" width="16" height="9"/>
					<line class="st0" x1="308.14" y1="224.46" x2="301.62" y2="233.32"/>
				</g>
				<g>
					<line class="st0" x1="214.92" y1="227.46" x2="219.92" y2="227.46"/>
					<line class="st0" x1="219.92" y1="230.46" x2="213.92" y2="230.46"/>
					<line class="st0" x1="211.39" y1="235.78" x2="220.28" y2="212.48"/>
					<ellipse class="st0" cx="221.04" cy="210.45" rx="2" ry="1.99"/>
				</g>
				<rect x="276.42" y="213.46" class="st0" width="20" height="20"/>
				<line class="st0" x1="249.2" y1="228.62" x2="241.31" y2="213.47"/>
				<polygon class="st1" points="247.11,228.34 251.59,233.34 250.23,226.79 				"/>
				<line class="st0" x1="241.31" y1="233.34" x2="249.21" y2="218.19"/>
				<polygon class="st1" points="247.11,218.48 251.59,213.47 250.23,220.03 				"/>
				<line class="st0" x1="291.42" y1="227.96" x2="291.42" y2="213.96"/>
				<polygon class="st1" points="289.64,226.96 291.39,233.42 293.13,226.96 				"/>
				<line class="st0" x1="281.42" y1="218.96" x2="281.42" y2="232.96"/>
				<polygon class="st1" points="283.12,219.96 281.37,213.5 279.63,219.96 				"/>
			</g>
		</g>
		<line class="st0" x1="261.42" y1="200.96" x2="261.42" y2="213.96"/>
		<line class="st0" x1="271.42" y1="200.96" x2="271.42" y2="213.96"/>
		<line class="st0" x1="261.42" y1="233.96" x2="261.42" y2="246.96"/>
		<circle class="st1" cx="271.42" cy="286.46" r="1.5"/>
		<circle class="st1" cx="261.42" cy="246.46" r="1.5"/>
		<path class="st0" d="M271.42,286.96v-37.42c1.66,0,3-1.34,3-3s-1.34-3-3-3v-9.58"/>
		<polyline class="st2" points="412.42,217.51 412.42,213.34 415.63,222.02 418.83,213.34 422.04,222.02 425.24,213.34 
			428.45,222.02 428.45,218 		"/>
		<line class="st0" x1="340.59" y1="224.03" x2="347.11" y2="232.9"/>
		<line class="st0" x1="330.92" y1="227.46" x2="335.92" y2="227.46"/>
		<line class="st0" x1="335.92" y1="230.46" x2="329.92" y2="230.46"/>
		<line class="st0" x1="327.42" y1="235.36" x2="336.31" y2="212.04"/>
		<ellipse class="st0" cx="337.07" cy="210" rx="2" ry="1.99"/>
		<line class="st0" x1="407.42" y1="227.54" x2="407.42" y2="213.54"/>
		<polygon class="st1" points="405.67,226.46 407.42,232.93 409.17,226.46 		"/>
		<polyline class="st0" points="372.42,232.54 372.42,228.11 372.42,223.38 372.42,218.66 372.42,213.54 		"/>
		<polyline class="st2" points="334.39,217.51 336.4,222.02 339.6,213.34 342.81,222.02 346.01,213.34 349.22,222.02 352.42,213.34 
			352.42,217.54 		"/>
		<polygon class="st0" points="392.42,233.46 389.92,233.46 387.42,233.46 384.92,233.46 382.42,233.46 379.92,233.46 
			377.42,233.46 374.92,233.46 372.42,233.46 369.92,233.46 367.42,233.46 364.92,233.46 362.42,233.46 359.92,233.46 
			357.42,233.46 354.92,233.46 352.42,233.46 352.42,232.21 352.42,230.96 352.42,229.71 352.42,228.46 352.42,227.21 
			352.42,225.96 352.42,224.71 352.42,223.46 352.42,222.21 352.42,220.96 352.42,219.71 352.42,218.46 352.42,217.21 
			352.42,215.96 352.42,214.71 352.42,213.46 354.92,213.46 357.42,213.46 359.92,213.46 362.42,213.46 364.92,213.46 
			367.42,213.46 369.92,213.46 372.42,213.46 374.92,213.46 377.42,213.46 379.92,213.46 382.42,213.46 384.92,213.46 
			387.42,213.46 389.92,213.46 392.42,213.46 392.42,214.71 392.42,215.96 392.42,217.21 392.42,218.46 392.42,219.71 
			392.42,220.96 392.42,222.21 392.42,223.46 392.42,224.71 392.42,225.96 392.42,227.21 392.42,228.46 392.42,229.71 
			392.42,230.96 392.42,232.21 		"/>
		<rect x="336.42" y="224.46" class="st0" width="16" height="9"/>
		<rect x="392.42" y="213.46" class="st0" width="20" height="20"/>
		<line class="st0" x1="365.73" y1="228.19" x2="357.84" y2="213.03"/>
		<polygon class="st1" points="363.64,227.91 368.12,232.92 366.76,226.36 		"/>
		<line class="st0" x1="357.84" y1="232.92" x2="365.73" y2="217.76"/>
		<polygon class="st1" points="363.64,218.04 368.12,213.03 366.76,219.59 		"/>
		<line class="st0" x1="397.42" y1="218.54" x2="397.42" y2="232.54"/>
		<polygon class="st1" points="399.17,219.54 397.42,213.07 395.67,219.54 		"/>
		<line class="st0" x1="377.42" y1="200.54" x2="377.42" y2="213.54"/>
		<line class="st0" x1="387.42" y1="200.54" x2="387.42" y2="213.54"/>
		<polyline class="st0" points="377.42,233.96 377.42,246.96 377.42,246.46 0.92,246.46 		"/>
		<g>
			<line class="st0" x1="374.92" y1="228.46" x2="379.92" y2="228.46"/>
			<g>
				<polyline class="st0" points="387.42,213.96 387.42,217.51 387.42,228.45 387.42,232.96 				"/>
				<line class="st0" x1="377.42" y1="232.96" x2="377.42" y2="228.96"/>
				<polyline class="st0" points="387.92,223.46 377.42,223.46 377.42,213.96 				"/>
			</g>
		</g>
		<polyline class="st0" points="387.42,233.96 387.42,286.46 0.92,286.46 		"/>
	</g>
</g>
</svg>
