<?xml version="1.0" encoding="utf-8"?>
<!-- Generator: Adobe Illustrator 24.0.0, SVG Export Plug-In . SVG Version: 6.00 Build 0)  -->
<svg version="1.1" id="Layer_1" xmlns="http://www.w3.org/2000/svg" xmlns:xlink="http://www.w3.org/1999/xlink" x="0px" y="0px"
	 viewBox="0 0 320 160" style="enable-background:new 0 0 320 160;" xml:space="preserve">
<style type="text/css">
	.st0{fill:none;stroke:#0D0D0D;stroke-width:1.5;stroke-miterlimit:10;}
	.st1{fill:none;stroke:#0D0D0D;stroke-width:1.5;stroke-linejoin:round;stroke-miterlimit:10;}
	.st2{fill:#0D0D0D;}
	.st3{fill:none;stroke:#999999;stroke-width:1.5;stroke-miterlimit:10;}
	.st4{fill:none;stroke:#0D0D0D;stroke-width:1.5;stroke-miterlimit:10;stroke-dasharray:3,3;}
</style>
<polyline class="st0" points="96.8,150.1 96.8,147.7 96.8,145.1 96.8,142.5 96.8,139.6 "/>
<polyline class="st1" points="75.5,141.8 76.7,144.3 78.5,139.5 80.2,144.3 82,139.5 83.8,144.3 85.6,139.5 85.6,141.8 "/>
<polyline class="st1" points="119.1,141.8 119.1,139.5 120.9,144.3 122.7,139.5 124.4,144.3 126.2,139.5 128,144.3 128,142.1 "/>
<polygon class="st0" points="107.9,150.4 106.5,150.4 105.1,150.4 103.7,150.4 102.3,150.4 100.9,150.4 99.6,150.4 98.2,150.4 
	96.8,150.4 95.4,150.4 94,150.4 92.6,150.4 91.2,150.4 89.8,150.4 88.4,150.4 87,150.4 85.6,150.4 85.6,149.7 85.6,149 85.6,148.3 
	85.6,147.6 85.6,146.9 85.6,146.3 85.6,145.5 85.6,144.9 85.6,144.2 85.6,143.5 85.6,142.8 85.6,142.1 85.6,141.4 85.6,140.7 
	85.6,140 85.6,139.3 87,139.3 88.4,139.3 89.8,139.3 91.2,139.3 92.6,139.3 94,139.3 95.4,139.3 96.8,139.3 98.2,139.3 99.6,139.3 
	100.9,139.3 102.3,139.3 103.7,139.3 105.1,139.3 106.5,139.3 107.9,139.3 107.9,140 107.9,140.7 107.9,141.4 107.9,142.1 
	107.9,142.8 107.9,143.5 107.9,144.2 107.9,144.9 107.9,145.5 107.9,146.3 107.9,146.9 107.9,147.6 107.9,148.3 107.9,149 
	107.9,149.7 "/>
<g>
	<rect x="76.7" y="145.4" class="st0" width="8.9" height="5"/>
	<line class="st0" x1="79.1" y1="145.4" x2="82.7" y2="150.4"/>
</g>
<g>
	<rect x="119.1" y="145.4" class="st0" width="8.9" height="5"/>
	<line class="st0" x1="125.6" y1="145.4" x2="122" y2="150.4"/>
</g>
<g>
	<line class="st0" x1="73.6" y1="147.1" x2="76.4" y2="147.1"/>
	<line class="st0" x1="76.4" y1="148.7" x2="73" y2="148.7"/>
	<line class="st0" x1="71.7" y1="151.8" x2="76.7" y2="138.8"/>
	<ellipse class="st0" cx="77.1" cy="137.6" rx="1.1" ry="1.1"/>
</g>
<rect x="107.9" y="139.3" class="st0" width="11.2" height="11.1"/>
<line class="st0" x1="92.8" y1="147.8" x2="88.4" y2="139.3"/>
<polygon class="st2" points="91.6,147.6 94.1,150.4 93.4,146.8 "/>
<line class="st0" x1="88.4" y1="150.4" x2="92.8" y2="142"/>
<polygon class="st2" points="91.6,142.1 94.1,139.3 93.4,143 "/>
<line class="st0" x1="116.3" y1="147.3" x2="116.3" y2="139.6"/>
<polygon class="st2" points="115.3,146.8 116.3,150.4 117.3,146.8 "/>
<line class="st0" x1="110.7" y1="142.4" x2="110.7" y2="150.1"/>
<polygon class="st2" points="111.7,142.9 110.7,139.3 109.7,142.9 "/>
<line class="st0" x1="105.2" y1="153.5" x2="105.2" y2="150.7"/>
<line class="st0" x1="99.6" y1="153.5" x2="99.6" y2="150.7"/>
<polyline class="st0" points="99.6,139 99.6,134 99.1,133.7 86.1,133.7 85.7,133.5 85.7,125.1 "/>
<polyline class="st0" points="105.2,139 105.2,134 105.6,133.7 118.6,133.7 119.1,133.5 119.1,125.1 "/>
<line class="st0" x1="119.1" y1="102.5" x2="119.1" y2="50.4"/>
<g>
	<polyline class="st1" points="120.8,16.7 124.7,16.7 124.7,50.1 113.5,50.1 113.5,16.7 117.4,16.7 	"/>
	<rect x="113.5" y="43.4" class="st0" width="11.1" height="3.3"/>
	<rect x="117.4" y="7.2" class="st0" width="3.3" height="36.2"/>
</g>
<polyline class="st0" points="113.3,22.3 85.7,22.3 85.7,22.6 85.7,102.3 "/>
<rect x="60.6" y="99.7" class="st3" width="83.6" height="27.9"/>
<g>
	<g>
		<path class="st0" d="M140.3,112.8c0,0.9-0.8,1.7-1.7,1.7c-0.9,0-1.7-0.8-1.7-1.7s0.8-1.7,1.7-1.7S140.3,111.9,140.3,112.8z"/>
		<polyline class="st0" points="141.3,112.8 138.6,115.5 136,112.8 		"/>
		<line class="st1" x1="138.6" y1="115.6" x2="138.6" y2="116.2"/>
	</g>
	<polygon class="st0" points="124.7,108.1 124.7,110.9 124.7,113.7 124.7,116.5 124.7,119.3 121.9,119.3 119.1,119.3 116.3,119.3 
		113.5,119.3 113.5,116.5 113.5,113.7 113.5,110.9 113.5,108.1 116.3,108.1 119.1,108.1 121.9,108.1 	"/>
	<g>
		<line class="st0" x1="116.3" y1="115.6" x2="116.3" y2="107.8"/>
		<g>
			<polygon class="st2" points="117.3,115.1 116.3,118.7 115.3,115.1 			"/>
		</g>
	</g>
	<g>
		<g>
			<polyline class="st0" points="125,114.4 125.7,113.1 126.3,111.7 126.9,110.4 127.5,109.1 128.1,107.8 128.7,106.5 			"/>
			<g>
				<polygon class="st2" points="127.8,106.1 129.1,104.6 130.3,103.2 129.9,105 129.6,106.9 128.7,106.5 				"/>
			</g>
		</g>
		<polyline class="st1" points="125.1,110.5 125.1,112.8 126,107.8 126.9,112.8 127.8,107.8 128.7,112.8 129.5,107.8 129.5,110.5 		
			"/>
	</g>
	<polyline class="st1" points="119.1,108.1 116.3,105.3 110.7,105.3 110.7,113.7 113.3,113.7 	"/>
	<polyline class="st1" points="119.1,119.3 121.9,122 127.5,122 127.5,113.7 124.9,113.7 	"/>
	<polyline class="st1" points="119.1,108.1 119.1,102.5 138.6,102.5 138.6,111.1 	"/>
	<polyline class="st1" points="138.6,115.5 138.6,124.8 119.1,124.8 119.1,119.3 	"/>
</g>
<g>
	<path class="st0" d="M64.4,112.8c0,0.9,0.8,1.7,1.7,1.7c1,0,1.7-0.8,1.7-1.7s-0.8-1.7-1.7-1.7C65.2,111.1,64.4,111.9,64.4,112.8z"
		/>
	<polyline class="st0" points="63.5,112.8 66.2,115.5 68.8,112.8 	"/>
	<line class="st1" x1="66.2" y1="115.6" x2="66.2" y2="116.2"/>
</g>
<polygon class="st0" points="80.1,108.1 80.1,110.9 80.1,113.7 80.1,116.5 80.1,119.3 82.9,119.3 85.7,119.3 88.4,119.3 91.2,119.3 
	91.2,116.5 91.2,113.7 91.2,110.9 91.2,108.1 88.4,108.1 85.7,108.1 82.9,108.1 "/>
<g>
	<line class="st0" x1="88.4" y1="115.6" x2="88.4" y2="107.8"/>
	<g>
		<polygon class="st2" points="87.5,115.1 88.4,118.7 89.4,115.1 		"/>
	</g>
</g>
<g>
	<g>
		<polyline class="st0" points="79.7,114.4 79.1,113.1 78.5,111.7 77.9,110.4 77.2,109.1 76.6,107.8 76,106.5 		"/>
		<g>
			<polygon class="st2" points="76.9,106.1 75.7,104.6 74.5,103.2 74.8,105 75.1,106.9 76,106.5 			"/>
		</g>
	</g>
	<polyline class="st1" points="79.7,110.5 79.7,112.8 78.8,107.8 77.9,112.8 77,107.8 76.1,112.8 75.2,107.8 75.2,110.5 	"/>
</g>
<polyline class="st1" points="85.7,108.1 88.4,105.3 94,105.3 94,113.7 91.5,113.7 "/>
<polyline class="st1" points="85.7,119.3 82.9,122 77.3,122 77.3,113.7 79.8,113.7 "/>
<polyline class="st4" points="91.5,117 94.3,117 116,124.8 118.8,124.8 "/>
<polyline class="st4" points="113.3,117 110.5,117 88.7,124.8 85.9,124.8 "/>
<polyline class="st1" points="85.7,108.1 85.7,102.5 66.2,102.5 66.2,111.1 "/>
<polyline class="st1" points="66.2,115.5 66.2,124.8 85.7,124.8 85.7,119.3 "/>
<g>
	<polyline class="st1" points="236,16.7 239.9,16.7 239.9,50.1 228.8,50.1 228.8,16.7 232.7,16.7 	"/>
	<rect x="228.8" y="43.4" class="st0" width="11.1" height="3.3"/>
	<rect x="232.7" y="7.2" class="st0" width="3.3" height="36.2"/>
</g>
<line class="st0" x1="234.3" y1="57.9" x2="234.3" y2="50.4"/>
<polyline class="st0" points="228.5,25 200.9,25 200.9,25.4 200.9,57.7 "/>
<g>
	<rect x="175.8" y="55.1" class="st3" width="83.6" height="27.9"/>
	<g>
		<g>
			<path class="st0" d="M255.6,68.2c0,0.9-0.8,1.7-1.7,1.7c-0.9,0-1.7-0.8-1.7-1.7s0.8-1.7,1.7-1.7
				C254.8,66.5,255.6,67.3,255.6,68.2z"/>
			<polyline class="st0" points="256.5,68.2 253.9,70.9 251.2,68.2 			"/>
			<line class="st1" x1="253.9" y1="71" x2="253.9" y2="71.6"/>
		</g>
		<polygon class="st0" points="239.9,63.5 239.9,66.3 239.9,69.1 239.9,71.9 239.9,74.7 237.1,74.7 234.3,74.7 231.6,74.7 
			228.8,74.7 228.8,71.9 228.8,69.1 228.8,66.3 228.8,63.5 231.6,63.5 234.3,63.5 237.1,63.5 		"/>
		<g>
			<line class="st0" x1="231.6" y1="71" x2="231.6" y2="63.2"/>
			<g>
				<polygon class="st2" points="232.5,70.5 231.6,74.1 230.6,70.5 				"/>
			</g>
		</g>
		<g>
			<g>
				<polyline class="st0" points="240.3,69.8 240.9,68.5 241.5,67.1 242.1,65.8 242.8,64.5 243.4,63.2 244,61.9 				"/>
				<g>
					<polygon class="st2" points="243.1,61.5 244.3,60 245.5,58.6 245.2,60.4 244.9,62.3 244,61.9 					"/>
				</g>
			</g>
			<polyline class="st1" points="240.3,65.9 240.3,68.2 241.2,63.2 242.1,68.2 243,63.2 243.9,68.2 244.8,63.2 244.8,65.9 			"/>
		</g>
		<polyline class="st1" points="234.3,63.5 231.6,60.7 226,60.7 226,69.1 228.5,69.1 		"/>
		<polyline class="st1" points="234.3,74.7 237.1,77.4 242.7,77.4 242.7,69.1 240.2,69.1 		"/>
		<polyline class="st1" points="234.3,63.5 234.3,57.9 253.9,57.9 253.9,66.5 		"/>
		<polyline class="st1" points="253.9,70.9 253.9,80.2 234.3,80.2 234.3,74.7 		"/>
	</g>
	<g>
		<path class="st0" d="M179.7,68.2c0,0.9,0.8,1.7,1.7,1.7c0.9,0,1.7-0.8,1.7-1.7s-0.8-1.7-1.7-1.7S179.7,67.3,179.7,68.2z"/>
		<polyline class="st0" points="178.8,68.2 181.4,70.9 184,68.2 		"/>
		<line class="st1" x1="181.4" y1="71" x2="181.4" y2="71.6"/>
	</g>
	<polygon class="st0" points="195.3,63.5 195.3,66.3 195.3,69.1 195.3,71.9 195.3,74.7 198.1,74.7 200.9,74.7 203.7,74.7 
		206.5,74.7 206.5,71.9 206.5,69.1 206.5,66.3 206.5,63.5 203.7,63.5 200.9,63.5 198.1,63.5 	"/>
	<g>
		<line class="st0" x1="203.7" y1="71" x2="203.7" y2="63.2"/>
		<g>
			<polygon class="st2" points="202.7,70.5 203.7,74.1 204.7,70.5 			"/>
		</g>
	</g>
	<g>
		<g>
			<polyline class="st0" points="195,69.8 194.3,68.5 193.7,67.1 193.1,65.8 192.5,64.5 191.9,63.2 191.3,61.9 			"/>
			<g>
				<polygon class="st2" points="192.2,61.5 190.9,60 189.7,58.6 190.1,60.4 190.4,62.3 191.3,61.9 				"/>
			</g>
		</g>
		<polyline class="st1" points="194.9,65.9 194.9,68.2 194,63.2 193.1,68.2 192.2,63.2 191.4,68.2 190.5,63.2 190.5,65.9 		"/>
	</g>
	<polyline class="st1" points="200.9,63.5 203.7,60.7 209.3,60.7 209.3,69.1 206.8,69.1 	"/>
	<polyline class="st1" points="200.9,74.7 198.1,77.4 192.5,77.4 192.5,69.1 195.1,69.1 	"/>
	<polyline class="st4" points="206.8,72.4 209.5,72.4 231.3,80.2 234.1,80.2 	"/>
	<polyline class="st4" points="228.5,72.4 225.7,72.4 204,80.2 201.2,80.2 	"/>
	<polyline class="st1" points="200.9,63.5 200.9,57.9 181.4,57.9 181.4,66.5 	"/>
	<polyline class="st1" points="181.4,70.9 181.4,80.2 200.9,80.2 200.9,74.7 	"/>
</g>
<g>
	<line class="st0" x1="98.2" y1="147.7" x2="101" y2="147.7"/>
	<g>
		<polyline class="st0" points="105.2,139.6 105.2,141.8 105.2,147.9 105.2,150.2 		"/>
		<line class="st0" x1="99.6" y1="150.2" x2="99.6" y2="148"/>
		<polyline class="st0" points="105.4,144.9 99.6,144.9 99.6,139.6 		"/>
	</g>
</g>
<path class="st0" d="M234.3,80.2v8.4h-32v0c0-0.8-0.6-1.4-1.4-1.4c-0.8,0-1.4,0.6-1.4,1.4v0h-80.1"/>
<path class="st0" d="M85.7,94.2h72c0-0.8,0.6-1.4,1.4-1.4c0.8,0,1.4,0.6,1.4,1.4h40.4V80.2"/>
<circle class="st2" cx="119.1" cy="88.6" r="0.8"/>
<circle class="st2" cx="85.7" cy="94" r="0.8"/>
</svg>
