<?xml version="1.0" encoding="utf-8"?>
<!-- Generator: Adobe Illustrator 24.0.0, SVG Export Plug-In . SVG Version: 6.00 Build 0)  -->
<svg version="1.1" id="Layer_1" xmlns="http://www.w3.org/2000/svg" xmlns:xlink="http://www.w3.org/1999/xlink" x="0px" y="0px"
	 viewBox="0 0 170 170" style="enable-background:new 0 0 170 170;" xml:space="preserve">
<style type="text/css">
	.st0{fill:none;stroke:#0D0D0D;stroke-width:1.5;stroke-miterlimit:10;}
	.st1{fill:none;stroke:#0D0D0D;stroke-width:1.5;stroke-linejoin:round;stroke-miterlimit:10;}
	.st2{fill:#0D0D0D;}
	.st3{fill:#FFFFFF;stroke:#0D0D0D;stroke-width:1.5;stroke-miterlimit:10;}
</style>
<polyline class="st0" points="74.42,102.58 74.42,98.27 74.42,93.55 74.42,88.83 74.42,83.7 "/>
<polyline class="st1" points="36.36,87.68 38.36,92.19 41.56,83.52 44.77,92.19 47.98,83.52 51.18,92.19 54.38,83.52 54.38,87.68 
	"/>
<polyline class="st1" points="114.48,87.68 114.48,83.52 117.68,92.19 120.88,83.52 124.09,92.19 127.3,83.52 130.5,92.19 
	130.5,88.17 "/>
<polygon class="st0" points="94.45,103.08 91.94,103.08 89.44,103.08 86.93,103.08 84.43,103.08 81.93,103.08 79.42,103.08 
	76.92,103.08 74.42,103.08 71.91,103.08 69.41,103.08 66.9,103.08 64.4,103.08 61.9,103.08 59.39,103.08 56.89,103.08 54.38,103.08 
	54.38,101.84 54.38,100.59 54.38,99.35 54.38,98.11 54.38,96.87 54.38,95.63 54.38,94.38 54.38,93.14 54.38,91.9 54.38,90.66 
	54.38,89.42 54.38,88.17 54.38,86.93 54.38,85.69 54.38,84.45 54.38,83.21 56.89,83.21 59.39,83.21 61.9,83.21 64.4,83.21 
	66.9,83.21 69.41,83.21 71.91,83.21 74.42,83.21 76.92,83.21 79.42,83.21 81.93,83.21 84.43,83.21 86.93,83.21 89.44,83.21 
	91.94,83.21 94.45,83.21 94.45,84.45 94.45,85.69 94.45,86.93 94.45,88.17 94.45,89.42 94.45,90.66 94.45,91.9 94.45,93.14 
	94.45,94.38 94.45,95.63 94.45,96.87 94.45,98.11 94.45,99.35 94.45,100.59 94.45,101.84 "/>
<g>
	<g>
		<g>
			<line class="st0" x1="77" y1="88.19" x2="82" y2="88.19"/>
			<line class="st0" x1="79.5" y1="83.69" x2="79.5" y2="87.69"/>
		</g>
		<g>
			<line class="st0" x1="87" y1="88.19" x2="92" y2="88.19"/>
			<line class="st0" x1="89.5" y1="83.69" x2="89.5" y2="87.69"/>
		</g>
	</g>
	<g>
		<line class="st0" x1="77" y1="98.19" x2="82" y2="98.19"/>
		<line class="st0" x1="79.5" y1="102.69" x2="79.5" y2="98.69"/>
	</g>
	<g>
		<line class="st0" x1="87" y1="98.19" x2="92" y2="98.19"/>
		<line class="st0" x1="89.5" y1="102.69" x2="89.5" y2="98.69"/>
	</g>
</g>
<g>
	<rect x="38.5" y="94.19" class="st0" width="16" height="9"/>
	<line class="st0" x1="42.64" y1="94.2" x2="49.16" y2="103.05"/>
</g>
<g>
	<rect x="114.48" y="94.13" class="st0" width="16.02" height="8.94"/>
	<line class="st0" x1="126.22" y1="94.2" x2="119.7" y2="103.05"/>
</g>
<g>
	<line class="st0" x1="32.85" y1="97.12" x2="37.86" y2="97.12"/>
	<line class="st0" x1="37.86" y1="100.1" x2="31.85" y2="100.1"/>
	<line class="st0" x1="29.47" y1="105.52" x2="38.36" y2="82.21"/>
	<ellipse class="st0" cx="39.12" cy="80.18" rx="2" ry="1.99"/>
</g>
<rect x="94.45" y="83.21" class="st0" width="20.03" height="19.87"/>
<line class="st0" x1="67.28" y1="98.35" x2="59.39" y2="83.21"/>
<polygon class="st2" points="65.19,98.07 69.67,103.08 68.31,96.52 "/>
<line class="st0" x1="59.39" y1="103.08" x2="67.29" y2="87.93"/>
<polygon class="st2" points="65.19,88.21 69.67,83.21 68.31,89.76 "/>
<line class="st0" x1="109.47" y1="97.61" x2="109.47" y2="83.7"/>
<polygon class="st2" points="107.72,96.62 109.47,103.08 111.21,96.62 "/>
<line class="st0" x1="99.45" y1="88.67" x2="99.45" y2="102.58"/>
<polygon class="st2" points="101.2,89.66 99.45,83.2 97.71,89.66 "/>
<g>
	<polygon class="st0" points="54.5,48.2 49.5,48.2 44.5,48.2 39.5,48.2 34.5,48.2 34.5,43.2 34.5,38.2 34.5,33.2 34.5,28.2 
		39.5,28.2 44.5,28.2 49.5,28.2 54.5,28.2 54.5,33.2 54.5,38.2 54.5,43.2 	"/>
	<g>
		<line class="st0" x1="40" y1="32.2" x2="54" y2="32.2"/>
		<g>
			<polygon class="st2" points="41,33.99 34.5,32.25 41,30.51 			"/>
		</g>
	</g>
	<polyline class="st1" points="45,48.2 40.42,48.2 49.38,49.8 40.42,51.4 49.38,53 40.42,54.6 49.38,56.2 45,56.2 	"/>
	<polyline class="st1" points="54.5,38.2 59.5,33.2 59.5,23.2 44.5,23.2 44.5,27.7 	"/>
</g>
<g>
	<polygon class="st0" points="114.5,48.19 119.5,48.19 124.5,48.19 129.5,48.19 134.5,48.19 134.5,43.19 134.5,38.19 134.5,33.19 
		134.5,28.19 129.5,28.19 124.5,28.19 119.5,28.19 114.5,28.19 114.5,33.19 114.5,38.19 114.5,43.19 	"/>
	<g>
		<line class="st0" x1="129" y1="32.19" x2="115" y2="32.19"/>
		<g>
			<polygon class="st2" points="128,33.99 134.5,32.25 128,30.51 			"/>
		</g>
	</g>
	<polyline class="st1" points="125,48.19 128.83,48.19 119.87,49.79 128.83,51.39 119.87,52.99 128.83,54.59 119.87,56.19 
		125,56.19 	"/>
	<polyline class="st1" points="114.5,38.19 109.5,33.19 109.5,23.19 124.5,23.19 124.5,27.69 	"/>
</g>
<line class="st0" x1="155" y1="116.19" x2="14" y2="116.19"/>
<line class="st0" x1="155" y1="156.19" x2="14" y2="156.19"/>
<line class="st0" x1="79.5" y1="103.69" x2="79.5" y2="116.69"/>
<circle class="st2" cx="89.5" cy="156.19" r="1.5"/>
<circle class="st2" cx="79.5" cy="116.19" r="1.5"/>
<circle class="st2" cx="145.5" cy="156.19" r="1.5"/>
<circle class="st2" cx="23.5" cy="156.19" r="1.5"/>
<path class="st0" d="M89.5,156.69v-37.47c1.66,0,3-1.34,3-3c0-1.66-1.34-3-3-3v-9.53"/>
<path class="st0" d="M145.5,156.69v-37.47c1.66,0,3-1.34,3-3c0-1.66-1.34-3-3-3v-9.53"/>
<path class="st0" d="M23.5,156.69v-37.47c1.66,0,3-1.34,3-3c0-1.66-1.34-3-3-3v-9.53"/>
<g>
	<polyline class="st0" points="157,111.69 154,114.69 157,117.69 154,120.69 	"/>
</g>
<g>
	<polyline class="st0" points="157,151.69 154,154.69 157,157.69 154,160.69 	"/>
</g>
<g>
	<polyline class="st0" points="15,111.69 12,114.69 15,117.69 12,120.69 	"/>
</g>
<g>
	<polyline class="st0" points="15,151.69 12,154.69 15,157.69 12,160.69 	"/>
</g>
<g>
	<circle class="st3" cx="84.5" cy="22.88" r="10"/>
	<g>
		<path class="st2" d="M81.5,22.88l-6.31-3.64c-0.44,1.13-0.69,2.35-0.69,3.64c0,1.29,0.25,2.51,0.69,3.64L81.5,22.88z"/>
		<path class="st2" d="M87.5,22.88l6.31,3.64c0.44-1.13,0.69-2.35,0.69-3.64c0-1.29-0.25-2.51-0.69-3.64L87.5,22.88z"/>
	</g>
</g>
<line class="st0" x1="104.5" y1="43.19" x2="114.5" y2="43.19"/>
<line class="st0" x1="64.5" y1="43.19" x2="54.5" y2="43.19"/>
<polyline class="st0" points="135,43.19 145.5,43.19 145.5,103.69 "/>
<polyline class="st0" points="34,43.19 23.5,43.19 23.5,103.69 "/>
<polyline class="st0" points="79.5,83.69 79.5,63.69 79,63.19 65,63.19 64.5,63.19 64.5,23.69 65,23.19 74,23.19 "/>
<polyline class="st0" points="89.5,83.69 89.5,63.69 90,63.19 104,63.19 104.5,63.19 104.5,23.69 104,23.19 95,23.19 "/>
</svg>
