<?xml version="1.0" encoding="utf-8"?>
<!-- Generator: Adobe Illustrator 24.0.0, SVG Export Plug-In . SVG Version: 6.00 Build 0)  -->
<svg version="1.1" id="Layer_1" xmlns="http://www.w3.org/2000/svg" xmlns:xlink="http://www.w3.org/1999/xlink" x="0px" y="0px"
	 viewBox="0 0 170 170" style="enable-background:new 0 0 170 170;" xml:space="preserve">
<style type="text/css">
	.st0{fill:none;stroke:#0D0D0D;stroke-width:1.5;stroke-miterlimit:10;}
	.st1{fill:none;stroke:#0D0D0D;stroke-width:1.5;stroke-linejoin:round;stroke-miterlimit:10;}
	.st2{fill:#0D0D0D;}
	.st3{fill:none;stroke:#999999;stroke-width:1.5;stroke-miterlimit:10;}
	.st4{fill:none;stroke:#0D0D0D;stroke-width:1.5;stroke-miterlimit:10;stroke-dasharray:3,3;}
</style>
<polyline class="st0" points="77.21,149.59 77.21,146.26 77.21,142.61 77.21,138.97 77.21,135.01 "/>
<polyline class="st1" points="47.8,138.08 49.35,141.56 51.82,134.86 54.3,141.56 56.78,134.86 59.25,141.56 61.73,134.86 
	61.73,138.08 "/>
<polyline class="st1" points="108.16,138.08 108.16,134.86 110.64,141.56 113.12,134.86 115.59,141.56 118.07,134.86 120.55,141.56 
	120.55,138.46 "/>
<polygon class="st0" points="92.69,149.98 90.75,149.98 88.82,149.98 86.88,149.98 84.95,149.98 83.01,149.98 81.08,149.98 
	79.14,149.98 77.21,149.98 75.27,149.98 73.34,149.98 71.4,149.98 69.47,149.98 67.53,149.98 65.6,149.98 63.66,149.98 
	61.73,149.98 61.73,149.02 61.73,148.06 61.73,147.1 61.73,146.14 61.73,145.18 61.73,144.22 61.73,143.26 61.73,142.3 
	61.73,141.34 61.73,140.38 61.73,139.42 61.73,138.46 61.73,137.5 61.73,136.54 61.73,135.58 61.73,134.62 63.66,134.62 
	65.6,134.62 67.53,134.62 69.47,134.62 71.4,134.62 73.34,134.62 75.27,134.62 77.21,134.62 79.14,134.62 81.08,134.62 
	83.01,134.62 84.95,134.62 86.88,134.62 88.82,134.62 90.75,134.62 92.69,134.62 92.69,135.58 92.69,136.54 92.69,137.5 
	92.69,138.46 92.69,139.42 92.69,140.38 92.69,141.34 92.69,142.3 92.69,143.26 92.69,144.22 92.69,145.18 92.69,146.14 
	92.69,147.1 92.69,148.06 92.69,149.02 "/>
<g>
	<line class="st0" x1="79.2" y1="138.48" x2="83.07" y2="138.48"/>
	<line class="st0" x1="81.14" y1="135" x2="81.14" y2="138.09"/>
</g>
<g>
	<line class="st0" x1="86.93" y1="138.48" x2="90.8" y2="138.48"/>
	<line class="st0" x1="88.86" y1="135" x2="88.86" y2="138.09"/>
</g>
<g>
	<line class="st0" x1="79.2" y1="146.21" x2="83.07" y2="146.21"/>
	<line class="st0" x1="81.14" y1="149.68" x2="81.14" y2="146.59"/>
</g>
<g>
	<line class="st0" x1="86.93" y1="146.21" x2="90.8" y2="146.21"/>
	<line class="st0" x1="88.86" y1="149.68" x2="88.86" y2="146.59"/>
</g>
<g>
	<rect x="49.35" y="143.07" class="st0" width="12.38" height="6.91"/>
	<line class="st0" x1="52.65" y1="143.12" x2="57.69" y2="149.96"/>
</g>
<g>
	<rect x="108.16" y="143.07" class="st0" width="12.38" height="6.91"/>
	<line class="st0" x1="117.24" y1="143.12" x2="112.2" y2="149.96"/>
</g>
<g>
	<line class="st0" x1="45.09" y1="145.37" x2="48.96" y2="145.37"/>
	<line class="st0" x1="48.96" y1="147.68" x2="44.32" y2="147.68"/>
	<line class="st0" x1="42.47" y1="151.86" x2="49.35" y2="133.86"/>
	<ellipse class="st0" cx="49.94" cy="132.29" rx="1.55" ry="1.54"/>
</g>
<rect x="92.69" y="134.62" class="st0" width="15.48" height="15.36"/>
<line class="st0" x1="71.7" y1="146.33" x2="65.6" y2="134.62"/>
<polygon class="st2" points="70.08,146.11 73.54,149.98 72.49,144.91 "/>
<line class="st0" x1="65.6" y1="149.98" x2="71.7" y2="138.27"/>
<polygon class="st2" points="70.08,138.49 73.54,134.62 72.49,139.69 "/>
<line class="st0" x1="104.29" y1="145.76" x2="104.29" y2="135.01"/>
<polygon class="st2" points="102.94,144.99 104.29,149.98 105.64,144.99 "/>
<line class="st0" x1="96.55" y1="138.85" x2="96.55" y2="149.59"/>
<polygon class="st2" points="97.9,139.61 96.55,134.62 95.21,139.61 "/>
<line class="st0" x1="88.86" y1="154.32" x2="88.86" y2="150.46"/>
<line class="st0" x1="81.14" y1="154.32" x2="81.14" y2="150.46"/>
<polyline class="st0" points="81.14,134.23 81.14,127.27 80.49,126.89 62.46,126.89 61.82,126.5 61.82,114.91 "/>
<polyline class="st0" points="88.86,134.23 88.86,127.27 89.51,126.89 107.54,126.89 108.18,126.5 108.18,114.91 "/>
<line class="st0" x1="108.18" y1="83.62" x2="108.18" y2="65.46"/>
<rect x="27.05" y="79.75" class="st3" width="115.91" height="38.64"/>
<polyline class="st1" points="110.5,18.71 115.91,18.71 115.91,65.07 100.45,65.07 100.45,18.71 105.86,18.71 "/>
<rect x="100.45" y="55.8" class="st0" width="15.45" height="4.64"/>
<rect x="105.86" y="5.57" class="st0" width="4.64" height="50.23"/>
<polyline class="st0" points="100.07,26.43 61.82,26.43 61.82,26.96 61.82,83.23 "/>
<g>
	<g>
		<path class="st0" d="M137.6,97.89c0,1.31-1.06,2.37-2.37,2.37c-1.31,0-2.37-1.06-2.37-2.37c0-1.31,1.06-2.37,2.37-2.37
			C136.54,95.52,137.6,96.58,137.6,97.89z"/>
		<polyline class="st0" points="138.89,97.89 135.23,101.56 131.57,97.89 		"/>
		<line class="st1" x1="135.23" y1="101.77" x2="135.23" y2="102.55"/>
	</g>
	<polygon class="st0" points="115.91,91.34 115.91,95.21 115.91,99.07 115.91,102.93 115.91,106.8 112.05,106.8 108.18,106.8 
		104.32,106.8 100.45,106.8 100.45,102.93 100.45,99.07 100.45,95.21 100.45,91.34 104.32,91.34 108.18,91.34 112.05,91.34 	"/>
	<g>
		<line class="st0" x1="104.32" y1="101.77" x2="104.32" y2="90.96"/>
		<g>
			<polygon class="st2" points="105.67,101 104.32,106.03 102.97,101 			"/>
		</g>
	</g>
	<g>
		<g>
			<polyline class="st0" points="116.42,100.05 117.27,98.21 118.13,96.37 118.99,94.53 119.84,92.7 120.7,90.86 121.54,89.06 			
				"/>
			<g>
				<polygon class="st2" points="120.32,88.49 121.99,86.5 123.66,84.51 123.21,87.07 122.76,89.63 121.54,89.06 				"/>
			</g>
		</g>
		<polyline class="st1" points="116.48,94.6 116.48,97.88 117.72,90.96 118.95,97.88 120.19,90.96 121.42,97.88 122.66,90.96 
			122.66,94.6 		"/>
	</g>
	<polyline class="st1" points="108.18,91.34 104.32,87.48 96.59,87.48 96.59,99.07 100.07,99.07 	"/>
	<polyline class="st1" points="108.18,106.8 112.05,110.66 119.77,110.66 119.77,99.07 116.3,99.07 	"/>
	<polyline class="st1" points="108.18,91.34 108.18,83.62 135.23,83.62 135.23,95.52 	"/>
	<polyline class="st1" points="135.23,101.56 135.23,114.52 108.18,114.52 108.18,106.8 	"/>
</g>
<g>
	<path class="st0" d="M32.4,97.89c0,1.31,1.06,2.37,2.37,2.37c1.31,0,2.37-1.06,2.37-2.37c0-1.31-1.06-2.37-2.37-2.37
		C33.46,95.52,32.4,96.58,32.4,97.89z"/>
	<polyline class="st0" points="31.11,97.89 34.77,101.56 38.43,97.89 	"/>
	<line class="st1" x1="34.77" y1="101.77" x2="34.77" y2="102.55"/>
</g>
<polygon class="st0" points="54.09,91.34 54.09,95.21 54.09,99.07 54.09,102.93 54.09,106.8 57.95,106.8 61.82,106.8 65.68,106.8 
	69.55,106.8 69.55,102.93 69.55,99.07 69.55,95.21 69.55,91.34 65.68,91.34 61.82,91.34 57.95,91.34 "/>
<g>
	<line class="st0" x1="65.68" y1="101.77" x2="65.68" y2="90.96"/>
	<g>
		<polygon class="st2" points="64.33,101 65.68,106.03 67.03,101 		"/>
	</g>
</g>
<g>
	<g>
		<polyline class="st0" points="53.58,100.05 52.73,98.21 51.87,96.37 51.01,94.53 50.16,92.7 49.3,90.86 48.46,89.06 		"/>
		<g>
			<polygon class="st2" points="49.68,88.49 48.01,86.5 46.34,84.51 46.79,87.07 47.24,89.63 48.46,89.06 			"/>
		</g>
	</g>
	<polyline class="st1" points="53.52,94.6 53.52,97.88 52.28,90.96 51.05,97.88 49.81,90.96 48.58,97.88 47.34,90.96 47.34,94.6 	
		"/>
</g>
<polyline class="st1" points="61.82,91.34 65.68,87.48 73.41,87.48 73.41,99.07 69.93,99.07 "/>
<polyline class="st1" points="61.82,106.8 57.95,110.66 50.23,110.66 50.23,99.07 53.7,99.07 "/>
<polyline class="st4" points="69.93,103.71 73.8,103.71 103.93,114.52 107.8,114.52 "/>
<polyline class="st4" points="100.07,103.71 96.2,103.71 66.07,114.52 62.2,114.52 "/>
<polyline class="st1" points="61.82,91.34 61.82,83.62 34.77,83.62 34.77,95.52 "/>
<polyline class="st1" points="34.77,101.56 34.77,114.52 61.82,114.52 61.82,106.8 "/>
</svg>
