<?xml version="1.0" encoding="utf-8"?>
<!-- Generator: Adobe Illustrator 24.0.0, SVG Export Plug-In . SVG Version: 6.00 Build 0)  -->
<svg version="1.1" id="Layer_1" xmlns="http://www.w3.org/2000/svg" xmlns:xlink="http://www.w3.org/1999/xlink" x="0px" y="0px"
	 viewBox="0 0 560 140" style="enable-background:new 0 0 560 140;" xml:space="preserve">
<style type="text/css">
	.st0{fill:none;stroke:#0D0D0D;stroke-width:1.5;stroke-miterlimit:10;}
	.st1{fill:none;stroke:#0D0D0D;stroke-width:1.5;stroke-linejoin:round;stroke-miterlimit:10;}
	.st2{fill:#0D0D0D;}
	.st3{display:none;}
	.st4{display:inline;}
	.st5{display:inline;fill:none;stroke:#0D0D0D;stroke-width:1.5;stroke-miterlimit:10;}
	.st6{fill:none;stroke:#0D0D0D;stroke-width:3;stroke-linecap:round;stroke-miterlimit:10;}
	.st7{display:inline;fill:#0D0D0D;}
	.st8{display:inline;fill:none;stroke:#0D0D0D;stroke-width:1.5;stroke-miterlimit:10;stroke-dasharray:3,3;}
</style>
<g>
	<g>
		<line class="st0" x1="378" y1="27.9" x2="378" y2="40.9"/>
		<line class="st0" x1="388" y1="27.9" x2="388" y2="40.9"/>
	</g>
	<polyline class="st0" points="373,59.9 373,55.4 373,50.7 373,46 373,40.9 	"/>
	<polyline class="st1" points="335.2,44.9 337.2,49.4 340.3,40.7 343.5,49.4 346.7,40.7 349.9,49.4 353,40.7 353,44.9 	"/>
	<polyline class="st1" points="413,44.9 413,40.6 416.2,49.4 419.4,40.6 422.6,49.4 425.8,40.6 429,49.4 429,44.9 	"/>
	<polygon class="st0" points="393,60.4 390.5,60.4 388,60.4 385.5,60.4 383,60.4 380.5,60.4 378,60.4 375.5,60.4 373,60.4 
		370.5,60.4 368,60.4 365.5,60.4 363,60.4 360.5,60.4 358,60.4 355.5,60.4 353,60.4 353,59.1 353,57.9 353,56.6 353,55.4 353,54.1 
		353,52.9 353,51.6 353,50.4 353,49.1 353,47.9 353,46.6 353,45.4 353,44.1 353,42.9 353,41.6 353,40.4 355.5,40.4 358,40.4 
		360.5,40.4 363,40.4 365.5,40.4 368,40.4 370.5,40.4 373,40.4 375.5,40.4 378,40.4 380.5,40.4 383,40.4 385.5,40.4 388,40.4 
		390.5,40.4 393,40.4 393,41.6 393,42.9 393,44.1 393,45.4 393,46.6 393,47.9 393,49.1 393,50.4 393,51.6 393,52.9 393,54.1 
		393,55.4 393,56.6 393,57.9 393,59.1 	"/>
	<g>
		<line class="st0" x1="375.5" y1="45.4" x2="380.5" y2="45.4"/>
		<line class="st0" x1="378" y1="40.9" x2="378" y2="44.9"/>
	</g>
	<g>
		<line class="st0" x1="385.5" y1="45.4" x2="390.5" y2="45.4"/>
		<line class="st0" x1="388" y1="40.9" x2="388" y2="44.9"/>
	</g>
	<g>
		<line class="st0" x1="375.5" y1="55.4" x2="380.5" y2="55.4"/>
		<line class="st0" x1="378" y1="59.9" x2="378" y2="55.9"/>
	</g>
	<g>
		<line class="st0" x1="385.5" y1="55.4" x2="390.5" y2="55.4"/>
		<line class="st0" x1="388" y1="59.9" x2="388" y2="55.9"/>
	</g>
	<g>
		<rect x="337" y="51.4" class="st0" width="16" height="9"/>
		<line class="st0" x1="341" y1="51.4" x2="347.5" y2="60.2"/>
	</g>
	<g>
		<rect x="413" y="51.4" class="st0" width="16" height="9"/>
		<line class="st0" x1="424.8" y1="51.4" x2="418.4" y2="60.2"/>
	</g>
	<g>
		<line class="st0" x1="331.5" y1="54.4" x2="336.5" y2="54.4"/>
		<line class="st0" x1="336.5" y1="57.4" x2="330.5" y2="57.4"/>
		<line class="st0" x1="328" y1="62.7" x2="336.8" y2="39.4"/>
		<ellipse class="st0" cx="337.6" cy="37.4" rx="2" ry="2"/>
	</g>
	<rect x="393" y="40.4" class="st0" width="20" height="20"/>
	<line class="st0" x1="366.4" y1="55.5" x2="358.6" y2="40.4"/>
	<polygon class="st2" points="364.4,55.2 368.8,60.2 367.5,53.7 	"/>
	<line class="st0" x1="358.6" y1="60.2" x2="366.4" y2="45.1"/>
	<polygon class="st2" points="364.4,45.4 368.8,40.4 367.5,46.9 	"/>
	<line class="st0" x1="408" y1="54.9" x2="408" y2="40.9"/>
	<polygon class="st2" points="406.3,53.9 408,60.3 409.8,53.9 	"/>
	<line class="st0" x1="398" y1="45.9" x2="398" y2="59.9"/>
	<polygon class="st2" points="399.8,46.9 398,40.4 396.3,46.9 	"/>
	<g id="XMLID_1_">
		<g>
			<polyline class="st0" points="140,59.8 140,55.4 140,50.7 140,46 140,40.9 			"/>
			<polyline class="st1" points="101.9,44.9 103.9,49.4 107.1,40.7 110.3,49.4 113.5,40.7 116.7,49.4 119.9,40.7 119.9,44.9 			"/>
			<polyline class="st1" points="180,44.9 180,40.7 183.2,49.4 186.4,40.7 189.6,49.4 192.8,40.7 196,49.4 196,45.3 			"/>
			<polygon class="st0" points="160,60.2 157.5,60.2 155,60.2 152.5,60.2 150,60.2 147.5,60.2 145,60.2 142.5,60.2 140,60.2 
				137.4,60.2 135,60.2 132.4,60.2 129.9,60.2 127.4,60.2 124.9,60.2 122.4,60.2 119.9,60.2 119.9,59 119.9,57.8 119.9,56.5 
				119.9,55.3 119.9,54 119.9,52.8 119.9,51.6 119.9,50.3 119.9,49.1 119.9,47.8 119.9,46.6 119.9,45.3 119.9,44.1 119.9,42.9 
				119.9,41.6 119.9,40.4 122.4,40.4 124.9,40.4 127.4,40.4 129.9,40.4 132.4,40.4 135,40.4 137.4,40.4 140,40.4 142.5,40.4 
				145,40.4 147.5,40.4 150,40.4 152.5,40.4 155,40.4 157.5,40.4 160,40.4 160,41.6 160,42.9 160,44.1 160,45.3 160,46.6 160,47.8 
				160,49.1 160,50.3 160,51.6 160,52.8 160,54 160,55.3 160,56.5 160,57.8 160,59 			"/>
			<g>
				<line class="st0" x1="142.5" y1="45.3" x2="147.5" y2="45.3"/>
				<line class="st0" x1="145" y1="40.9" x2="145" y2="44.9"/>
			</g>
			<g>
				<line class="st0" x1="152.5" y1="45.3" x2="157.5" y2="45.3"/>
				<line class="st0" x1="155" y1="40.9" x2="155" y2="44.9"/>
			</g>
			<g>
				<line class="st0" x1="142.5" y1="55.3" x2="147.5" y2="55.3"/>
				<line class="st0" x1="145" y1="59.8" x2="145" y2="55.8"/>
			</g>
			<g>
				<line class="st0" x1="152.5" y1="55.3" x2="157.5" y2="55.3"/>
				<line class="st0" x1="155" y1="59.8" x2="155" y2="55.8"/>
			</g>
			<g>
				<rect x="103.9" y="51.3" class="st0" width="16" height="8.9"/>
				<line class="st0" x1="108.2" y1="51.4" x2="114.7" y2="60.2"/>
			</g>
			<g>
				<rect x="180" y="51.3" class="st0" width="16" height="8.9"/>
				<line class="st0" x1="191.8" y1="51.4" x2="185.2" y2="60.2"/>
			</g>
			<g>
				<line class="st0" x1="98.4" y1="54.3" x2="103.4" y2="54.3"/>
				<line class="st0" x1="103.4" y1="57.3" x2="97.4" y2="57.3"/>
				<line class="st0" x1="95" y1="62.7" x2="103.9" y2="39.4"/>
				<ellipse class="st0" cx="104.7" cy="37.4" rx="2" ry="2"/>
			</g>
			<rect x="160" y="40.4" class="st0" width="20" height="19.9"/>
			<line class="st0" x1="132.8" y1="55.5" x2="124.9" y2="40.4"/>
			<polygon class="st2" points="130.7,55.2 135.2,60.2 133.8,53.7 			"/>
			<line class="st0" x1="124.9" y1="60.2" x2="132.8" y2="45.1"/>
			<polygon class="st2" points="130.7,45.4 135.2,40.4 133.8,46.9 			"/>
			<line class="st0" x1="175" y1="54.8" x2="175" y2="40.9"/>
			<polygon class="st2" points="173.3,53.8 175,60.2 176.8,53.8 			"/>
			<line class="st0" x1="165" y1="45.8" x2="165" y2="59.8"/>
			<polygon class="st2" points="166.7,46.8 165,40.4 163.2,46.8 			"/>
		</g>
	</g>
	<line class="st0" x1="145" y1="60.4" x2="145" y2="73.4"/>
	<g>
		<line class="st0" x1="145" y1="27.9" x2="145" y2="40.9"/>
		<line class="st0" x1="155" y1="27.9" x2="155" y2="40.9"/>
	</g>
	<circle class="st2" cx="145" cy="73.4" r="1.5"/>
	<circle class="st2" cx="155" cy="113.4" r="1.5"/>
	<path class="st0" d="M155,113.4v-37c1.7,0,3-1.3,3-3s-1.3-3-3-3v-10"/>
	<g>
		<g>
			<polyline class="st0" points="257,59.8 257,55.4 257,50.7 257,46 257,40.9 			"/>
			<polyline class="st1" points="218.9,44.8 220.9,49.3 224.1,40.7 227.3,49.3 230.5,40.7 233.7,49.3 236.9,40.7 236.9,44.8 			"/>
			<polyline class="st1" points="297,44.8 297,40.7 300.2,49.3 303.4,40.7 306.6,49.3 309.8,40.7 313,49.3 313,45.3 			"/>
			<polygon class="st0" points="277,60.2 274.5,60.2 272,60.2 269.5,60.2 267,60.2 264.5,60.2 262,60.2 259.5,60.2 257,60.2 
				254.4,60.2 251.9,60.2 249.4,60.2 246.9,60.2 244.4,60.2 241.9,60.2 239.4,60.2 236.9,60.2 236.9,59 236.9,57.8 236.9,56.5 
				236.9,55.3 236.9,54 236.9,52.8 236.9,51.5 236.9,50.3 236.9,49.1 236.9,47.8 236.9,46.6 236.9,45.3 236.9,44.1 236.9,42.8 
				236.9,41.6 236.9,40.4 239.4,40.4 241.9,40.4 244.4,40.4 246.9,40.4 249.4,40.4 251.9,40.4 254.4,40.4 257,40.4 259.5,40.4 
				262,40.4 264.5,40.4 267,40.4 269.5,40.4 272,40.4 274.5,40.4 277,40.4 277,41.6 277,42.8 277,44.1 277,45.3 277,46.6 277,47.8 
				277,49.1 277,50.3 277,51.5 277,52.8 277,54 277,55.3 277,56.5 277,57.8 277,59 			"/>
			<g>
				<line class="st0" x1="259.5" y1="45.3" x2="264.5" y2="45.3"/>
				<line class="st0" x1="262" y1="40.9" x2="262" y2="44.8"/>
			</g>
			<g>
				<line class="st0" x1="269.5" y1="45.3" x2="274.5" y2="45.3"/>
				<line class="st0" x1="272" y1="40.9" x2="272" y2="44.8"/>
			</g>
			<g>
				<line class="st0" x1="259.5" y1="55.3" x2="264.5" y2="55.3"/>
				<line class="st0" x1="262" y1="59.8" x2="262" y2="55.8"/>
			</g>
			<g>
				<line class="st0" x1="269.5" y1="55.3" x2="274.5" y2="55.3"/>
				<line class="st0" x1="272" y1="59.8" x2="272" y2="55.8"/>
			</g>
			<g>
				<rect x="220.9" y="51.3" class="st0" width="16" height="8.9"/>
				<line class="st0" x1="225.2" y1="51.4" x2="231.7" y2="60.2"/>
			</g>
			<g>
				<rect x="297" y="51.3" class="st0" width="16" height="8.9"/>
				<line class="st0" x1="308.8" y1="51.4" x2="302.2" y2="60.2"/>
			</g>
			<g>
				<line class="st0" x1="215.4" y1="54.3" x2="220.4" y2="54.3"/>
				<line class="st0" x1="220.4" y1="57.3" x2="214.4" y2="57.3"/>
				<line class="st0" x1="212" y1="62.7" x2="220.9" y2="39.4"/>
				<ellipse class="st0" cx="221.7" cy="37.3" rx="2" ry="2"/>
			</g>
			<rect x="277" y="40.4" class="st0" width="20" height="19.9"/>
			<line class="st0" x1="249.8" y1="55.5" x2="241.9" y2="40.4"/>
			<polygon class="st2" points="247.7,55.2 252.2,60.2 250.8,53.7 			"/>
			<line class="st0" x1="241.9" y1="60.2" x2="249.8" y2="45.1"/>
			<polygon class="st2" points="247.7,45.4 252.2,40.4 250.8,46.9 			"/>
			<line class="st0" x1="292" y1="54.8" x2="292" y2="40.9"/>
			<polygon class="st2" points="290.3,53.8 292,60.2 293.8,53.8 			"/>
			<line class="st0" x1="282" y1="45.8" x2="282" y2="59.8"/>
			<polygon class="st2" points="283.7,46.8 282,40.4 280.2,46.8 			"/>
		</g>
	</g>
	<g>
		<line class="st0" x1="262" y1="27.9" x2="262" y2="40.9"/>
		<line class="st0" x1="272" y1="27.9" x2="272" y2="40.9"/>
	</g>
	<line class="st0" x1="262" y1="60.9" x2="262" y2="73.9"/>
	<circle class="st2" cx="272" cy="113.4" r="1.5"/>
	<circle class="st2" cx="262" cy="73.4" r="1.5"/>
	<path class="st0" d="M272,113.9v-37c1.7,0,3-1.3,3-3c0-1.7-1.3-3-3-3v-10"/>
	<line class="st0" x1="378" y1="60.9" x2="378" y2="73.9"/>
	<circle class="st2" cx="388.1" cy="113.4" r="1.5"/>
	<circle class="st2" cx="378" cy="73.4" r="1.5"/>
	<path class="st0" d="M388,113.9v-37c1.7,0,3-1.3,3-3c0-1.7-1.3-3-3-3v-10"/>
	<g>
		<line class="st0" x1="499" y1="27.9" x2="499" y2="40.9"/>
		<line class="st0" x1="509" y1="27.9" x2="509" y2="40.9"/>
	</g>
	<polyline class="st0" points="494,59.9 494,55.4 494,50.7 494,46 494,40.9 	"/>
	<polyline class="st1" points="456.2,44.9 458.2,49.4 461.3,40.7 464.5,49.4 467.7,40.7 470.9,49.4 474,40.7 474,44.9 	"/>
	<polyline class="st1" points="534,44.9 534,40.6 537.2,49.4 540.4,40.6 543.6,49.4 546.8,40.6 550,49.4 550,44.9 	"/>
	<polygon class="st0" points="514,60.4 511.5,60.4 509,60.4 506.5,60.4 504,60.4 501.5,60.4 499,60.4 496.5,60.4 494,60.4 
		491.5,60.4 489,60.4 486.5,60.4 484,60.4 481.5,60.4 479,60.4 476.5,60.4 474,60.4 474,59.1 474,57.9 474,56.6 474,55.4 474,54.1 
		474,52.9 474,51.6 474,50.4 474,49.1 474,47.9 474,46.6 474,45.4 474,44.1 474,42.9 474,41.6 474,40.4 476.5,40.4 479,40.4 
		481.5,40.4 484,40.4 486.5,40.4 489,40.4 491.5,40.4 494,40.4 496.5,40.4 499,40.4 501.5,40.4 504,40.4 506.5,40.4 509,40.4 
		511.5,40.4 514,40.4 514,41.6 514,42.9 514,44.1 514,45.4 514,46.6 514,47.9 514,49.1 514,50.4 514,51.6 514,52.9 514,54.1 
		514,55.4 514,56.6 514,57.9 514,59.1 	"/>
	<g>
		<rect x="458" y="51.4" class="st0" width="16" height="9"/>
		<line class="st0" x1="462" y1="51.4" x2="468.5" y2="60.2"/>
	</g>
	<g>
		<rect x="534" y="51.4" class="st0" width="16" height="9"/>
		<line class="st0" x1="545.8" y1="51.4" x2="539.4" y2="60.2"/>
	</g>
	<g>
		<line class="st0" x1="452.5" y1="54.4" x2="457.5" y2="54.4"/>
		<line class="st0" x1="457.5" y1="57.4" x2="451.5" y2="57.4"/>
		<line class="st0" x1="449" y1="62.7" x2="457.8" y2="39.4"/>
		<ellipse class="st0" cx="458.6" cy="37.4" rx="2" ry="2"/>
	</g>
	<rect x="514" y="40.4" class="st0" width="20" height="20"/>
	<line class="st0" x1="487.4" y1="55.5" x2="479.6" y2="40.4"/>
	<polygon class="st2" points="485.4,55.2 489.8,60.2 488.5,53.7 	"/>
	<line class="st0" x1="479.6" y1="60.2" x2="487.4" y2="45.1"/>
	<polygon class="st2" points="485.4,45.4 489.8,40.4 488.5,46.9 	"/>
	<line class="st0" x1="529" y1="54.9" x2="529" y2="40.9"/>
	<polygon class="st2" points="527.3,53.9 529,60.3 530.8,53.9 	"/>
	<line class="st0" x1="519" y1="45.9" x2="519" y2="59.9"/>
	<polygon class="st2" points="520.8,46.9 519,40.4 517.3,46.9 	"/>
	<polyline class="st0" points="499,60.9 499,72.9 498.5,73.4 15.7,73.4 	"/>
	<path class="st0" d="M509,60.9v10c1.7,0,3,1.3,3,3c0,1.7-1.3,3-3,3v36v0.5H15.7"/>
	<g>
		<polyline class="st0" points="17.7,68.9 13.7,71.9 17.7,74.9 13.7,77.9 		"/>
	</g>
	<g>
		<polyline class="st0" points="17.7,108.9 13.7,111.9 17.7,114.9 13.7,117.9 		"/>
	</g>
	<g>
		<line class="st0" x1="496.5" y1="55.4" x2="501.5" y2="55.4"/>
		<g>
			<polyline class="st0" points="509,40.9 509,44.8 509,55.8 509,59.9 			"/>
			<line class="st0" x1="499" y1="59.9" x2="499" y2="55.9"/>
			<polyline class="st0" points="509.5,50.4 499,50.4 499,40.9 			"/>
		</g>
	</g>
	<g>
		<path class="st0" d="M327.5,70.2c-2.1,1.1-4.4,1.7-6.9,1.7c-2.5,0-4.9-0.6-7-1.7"/>
		<path class="st0" d="M327.5,76.6c-2.1-1.1-4.4-1.7-6.9-1.7c-2.5,0-4.9,0.6-7,1.7"/>
	</g>
</g>
<g class="st3">
	<g class="st4">
		<polyline class="st0" points="63,100.3 64.1,97.9 65.2,95.5 66.3,93.1 67.4,90.7 68.6,88.4 69.6,86 		"/>
		<g>
			<polygon class="st2" points="68.1,85.3 70.2,82.7 72.4,80.1 71.8,83.5 71.2,86.8 69.6,86 			"/>
		</g>
	</g>
	<g class="st4">
		<polygon class="st0" points="63,83.4 63,88.4 63,93.4 63,98.4 63,103.4 58,103.4 53,103.4 48,103.4 43,103.4 43,98.4 43,93.4 
			43,88.4 43,83.4 48,83.4 53,83.4 58,83.4 		"/>
		<g>
			<line class="st0" x1="47" y1="97.9" x2="47" y2="83.9"/>
			<g>
				<polygon class="st2" points="48.8,96.9 47.1,103.4 45.4,96.9 				"/>
			</g>
		</g>
		<polyline class="st1" points="63.1,93.2 63.1,97.4 64.7,88.5 66.3,97.4 67.9,88.5 69.5,97.4 71.1,88.5 71.1,93.2 		"/>
		<polyline class="st1" points="53,83.4 48,78.4 38,78.4 38,93.4 42.5,93.4 		"/>
	</g>
	<line class="st5" x1="53" y1="82.9" x2="53" y2="73.9"/>
	<line class="st5" x1="176" y1="73.4" x2="15.7" y2="73.4"/>
	<line class="st5" x1="560" y1="73.4" x2="196" y2="73.4"/>
	<g class="st4">
		<polyline class="st0" points="176.5,63.4 180.7,63.4 185.5,63.4 190.2,63.4 195.5,63.4 		"/>
		<polyline class="st1" points="181.5,83.4 176.3,83.4 185.2,85.8 176.3,88.2 185.2,90.6 176.3,93 185.2,95.4 181.5,95.4 		"/>
		<g>
			<line class="st0" x1="176.5" y1="53.4" x2="195.5" y2="53.4"/>
			<path class="st0" d="M178.9,56.6c2.1-1.1,4.4-1.7,6.9-1.7c2.5,0,4.9,0.6,7,1.7"/>
			<path class="st0" d="M178.9,50.2c2.1,1.1,4.4,1.7,6.9,1.7c2.5,0,4.9-0.6,7-1.7"/>
		</g>
		<polygon class="st0" points="176,83.4 176,80.9 176,78.4 176,75.9 176,73.4 176,70.9 176,68.4 176,65.9 176,63.4 176,60.9 
			176,58.4 176,55.9 176,53.4 176,50.9 176,48.4 176,45.9 176,43.4 177.3,43.4 178.5,43.4 179.8,43.4 181,43.4 182.3,43.4 
			183.5,43.4 184.8,43.4 186,43.4 187.3,43.4 188.5,43.4 189.8,43.4 191,43.4 192.3,43.4 193.5,43.4 194.8,43.4 196,43.4 196,45.9 
			196,48.4 196,50.9 196,53.4 196,55.9 196,58.4 196,60.9 196,63.4 196,65.9 196,68.4 196,70.9 196,73.4 196,75.9 196,78.4 
			196,80.9 196,83.4 194.8,83.4 193.5,83.4 192.3,83.4 191,83.4 189.8,83.4 188.5,83.4 187.3,83.4 186,83.4 184.8,83.4 183.5,83.4 
			182.3,83.4 181,83.4 179.8,83.4 178.5,83.4 177.3,83.4 		"/>
		<g>
			<g>
				<line class="st0" x1="191" y1="70.9" x2="191" y2="75.9"/>
				<line class="st0" x1="195.5" y1="73.4" x2="191.5" y2="73.4"/>
			</g>
			<g>
				<line class="st0" x1="181" y1="70.9" x2="181" y2="75.9"/>
				<line class="st0" x1="176.5" y1="73.4" x2="180.5" y2="73.4"/>
			</g>
		</g>
		<rect x="176" y="27.4" class="st0" width="10" height="16"/>
		<line class="st0" x1="175.9" y1="31.1" x2="185.8" y2="37.7"/>
		<g>
			<polyline class="st0" points="173.8,36.4 176.3,35.8 178.9,35.1 181.4,34.4 183.9,33.7 186.5,33 188.9,32.4 			"/>
			<g>
				<polygon class="st2" points="189.4,34.2 192.3,32.6 195.2,30.9 191.9,30.9 188.5,30.9 188.9,32.6 				"/>
			</g>
		</g>
		<line class="st0" x1="181" y1="26.9" x2="181" y2="23.9"/>
		<line class="st6" x1="183.5" y1="23.9" x2="178.5" y2="23.9"/>
	</g>
	<circle class="st7" cx="231" cy="73.4" r="1.5"/>
	<circle class="st7" cx="231" cy="113.4" r="1.5"/>
	<circle class="st7" cx="53" cy="73.4" r="1.5"/>
	<circle class="st7" cx="127" cy="73.4" r="1.5"/>
	<circle class="st7" cx="53" cy="113.4" r="1.5"/>
	<circle class="st7" cx="127" cy="113.4" r="1.5"/>
	<g class="st4">
		<line class="st0" x1="499" y1="27.9" x2="499" y2="40.9"/>
		<line class="st0" x1="509" y1="27.9" x2="509" y2="40.9"/>
	</g>
	<g class="st4">
		<g>
			<polyline class="st0" points="494,59.9 494,55.5 494,50.7 494,46 494,40.9 			"/>
			<polyline class="st1" points="456.2,44.9 458.2,49.4 461.3,40.7 464.5,49.4 467.7,40.7 470.9,49.4 474,40.7 474,44.9 			"/>
			<polyline class="st1" points="534,44.9 534,40.7 537.2,49.4 540.4,40.7 543.6,49.4 546.8,40.7 550,49.4 550,44.9 			"/>
			<polygon class="st0" points="514,60.4 511.5,60.4 509,60.4 506.5,60.4 504,60.4 501.5,60.4 499,60.4 496.5,60.4 494,60.4 
				491.5,60.4 489,60.4 486.5,60.4 484,60.4 481.5,60.4 479,60.4 476.5,60.4 474,60.4 474,59.1 474,57.9 474,56.6 474,55.4 
				474,54.1 474,52.9 474,51.6 474,50.4 474,49.1 474,47.9 474,46.6 474,45.4 474,44.1 474,42.9 474,41.6 474,40.4 476.5,40.4 
				479,40.4 481.5,40.4 484,40.4 486.5,40.4 489,40.4 491.5,40.4 494,40.4 496.5,40.4 499,40.4 501.5,40.4 504,40.4 506.5,40.4 
				509,40.4 511.5,40.4 514,40.4 514,41.6 514,42.9 514,44.1 514,45.4 514,46.6 514,47.9 514,49.1 514,50.4 514,51.6 514,52.9 
				514,54.1 514,55.4 514,56.6 514,57.9 514,59.1 			"/>
			<g>
				<line class="st0" x1="496.5" y1="45.4" x2="501.5" y2="45.4"/>
				<line class="st0" x1="499" y1="40.9" x2="499" y2="44.9"/>
			</g>
			<g>
				<line class="st0" x1="506.5" y1="45.4" x2="511.5" y2="45.4"/>
				<line class="st0" x1="509" y1="40.9" x2="509" y2="44.9"/>
			</g>
			<g>
				<line class="st0" x1="496.5" y1="55.4" x2="501.5" y2="55.4"/>
				<line class="st0" x1="499" y1="59.9" x2="499" y2="55.9"/>
			</g>
			<g>
				<line class="st0" x1="506.5" y1="55.4" x2="511.5" y2="55.4"/>
				<line class="st0" x1="509" y1="59.9" x2="509" y2="55.9"/>
			</g>
			<g>
				<rect x="458" y="51.4" class="st0" width="16" height="9"/>
				<line class="st0" x1="462" y1="51.4" x2="468.5" y2="60.2"/>
			</g>
			<g>
				<rect x="534" y="51.4" class="st0" width="16" height="9"/>
				<line class="st0" x1="545.8" y1="51.4" x2="539.4" y2="60.2"/>
			</g>
			<g>
				<line class="st0" x1="452.5" y1="54.4" x2="457.5" y2="54.4"/>
				<line class="st0" x1="457.5" y1="57.4" x2="451.5" y2="57.4"/>
				<line class="st0" x1="449" y1="62.7" x2="457.8" y2="39.4"/>
				<ellipse class="st0" cx="458.6" cy="37.4" rx="2" ry="2"/>
			</g>
			<rect x="514" y="40.4" class="st0" width="20" height="20"/>
			<line class="st0" x1="487.4" y1="55.5" x2="479.6" y2="40.4"/>
			<polygon class="st2" points="485.4,55.2 489.8,60.3 488.5,53.7 			"/>
			<line class="st0" x1="479.6" y1="60.3" x2="487.4" y2="45.1"/>
			<polygon class="st2" points="485.4,45.4 489.8,40.4 488.5,46.9 			"/>
			<line class="st0" x1="529" y1="54.9" x2="529" y2="40.9"/>
			<polygon class="st2" points="527.3,53.9 529,60.3 530.8,53.9 			"/>
			<line class="st0" x1="519" y1="45.9" x2="519" y2="59.9"/>
			<polygon class="st2" points="520.8,46.9 519,40.4 517.3,46.9 			"/>
		</g>
	</g>
	<line class="st5" x1="53" y1="112.9" x2="53" y2="103.9"/>
	<line class="st5" x1="560" y1="113.4" x2="15.7" y2="113.4"/>
	<g id="XMLID_3_" class="st4">
		<g>
			<polyline class="st0" points="261,59.8 261,55.5 261,50.7 261,46 261,40.9 			"/>
			<polyline class="st1" points="222.9,44.9 224.9,49.4 228.1,40.7 231.3,49.4 234.5,40.7 237.7,49.4 240.9,40.7 240.9,44.9 			"/>
			<polyline class="st1" points="301,44.9 301,40.7 304.2,49.4 307.4,40.7 310.6,49.4 313.8,40.7 317,49.4 317,45.4 			"/>
			<polygon class="st0" points="281,60.3 278.5,60.3 276,60.3 273.5,60.3 271,60.3 268.5,60.3 266,60.3 263.5,60.3 261,60.3 
				258.4,60.3 256,60.3 253.4,60.3 250.9,60.3 248.4,60.3 245.9,60.3 243.4,60.3 240.9,60.3 240.9,59 240.9,57.8 240.9,56.5 
				240.9,55.3 240.9,54.1 240.9,52.8 240.9,51.6 240.9,50.3 240.9,49.1 240.9,47.8 240.9,46.6 240.9,45.4 240.9,44.1 240.9,42.9 
				240.9,41.6 240.9,40.4 243.4,40.4 245.9,40.4 248.4,40.4 250.9,40.4 253.4,40.4 256,40.4 258.4,40.4 261,40.4 263.5,40.4 
				266,40.4 268.5,40.4 271,40.4 273.5,40.4 276,40.4 278.5,40.4 281,40.4 281,41.6 281,42.9 281,44.1 281,45.4 281,46.6 281,47.8 
				281,49.1 281,50.3 281,51.6 281,52.8 281,54.1 281,55.3 281,56.5 281,57.8 281,59 			"/>
			<g>
				<line class="st0" x1="263.5" y1="45.4" x2="268.5" y2="45.4"/>
				<line class="st0" x1="266" y1="40.9" x2="266" y2="44.9"/>
			</g>
			<g>
				<line class="st0" x1="273.5" y1="45.4" x2="278.5" y2="45.4"/>
				<line class="st0" x1="276" y1="40.9" x2="276" y2="44.9"/>
			</g>
			<g>
				<line class="st0" x1="263.5" y1="55.3" x2="268.5" y2="55.3"/>
				<line class="st0" x1="266" y1="59.8" x2="266" y2="55.8"/>
			</g>
			<g>
				<line class="st0" x1="273.5" y1="55.3" x2="278.5" y2="55.3"/>
				<line class="st0" x1="276" y1="59.8" x2="276" y2="55.8"/>
			</g>
			<g>
				<rect x="224.9" y="51.3" class="st0" width="16" height="8.9"/>
				<line class="st0" x1="229.2" y1="51.4" x2="235.7" y2="60.2"/>
			</g>
			<g>
				<rect x="301" y="51.3" class="st0" width="16" height="8.9"/>
				<line class="st0" x1="312.8" y1="51.4" x2="306.2" y2="60.2"/>
			</g>
			<g>
				<line class="st0" x1="219.4" y1="54.3" x2="224.4" y2="54.3"/>
				<line class="st0" x1="224.4" y1="57.3" x2="218.4" y2="57.3"/>
				<line class="st0" x1="216" y1="62.7" x2="224.9" y2="39.4"/>
				<ellipse class="st0" cx="225.7" cy="37.4" rx="2" ry="2"/>
			</g>
			<rect x="281" y="40.4" class="st0" width="20" height="19.9"/>
			<line class="st0" x1="253.8" y1="55.5" x2="245.9" y2="40.4"/>
			<polygon class="st2" points="251.7,55.2 256.2,60.3 254.8,53.7 			"/>
			<line class="st0" x1="245.9" y1="60.3" x2="253.8" y2="45.1"/>
			<polygon class="st2" points="251.7,45.4 256.2,40.4 254.8,46.9 			"/>
			<line class="st0" x1="296" y1="54.8" x2="296" y2="40.9"/>
			<polygon class="st2" points="294.3,53.8 296,60.3 297.8,53.8 			"/>
			<line class="st0" x1="286" y1="45.9" x2="286" y2="59.8"/>
			<polygon class="st2" points="287.7,46.8 286,40.4 284.2,46.8 			"/>
		</g>
	</g>
	<line class="st5" x1="266" y1="60.4" x2="266" y2="73.4"/>
	<g class="st4">
		<line class="st0" x1="266" y1="27.9" x2="266" y2="40.9"/>
		<line class="st0" x1="276" y1="27.9" x2="276" y2="40.9"/>
	</g>
	<circle class="st7" cx="266" cy="73.4" r="1.5"/>
	<circle class="st7" cx="276" cy="113.4" r="1.5"/>
	<path class="st5" d="M276,113.4v-37c1.7,0,3-1.3,3-3s-1.3-3-3-3v-10"/>
	<g class="st4">
		<g>
			<polyline class="st0" points="378,59.8 378,55.4 378,50.7 378,46 378,40.9 			"/>
			<polyline class="st1" points="339.9,44.8 341.9,49.4 345.1,40.7 348.3,49.4 351.5,40.7 354.7,49.4 357.9,40.7 357.9,44.8 			"/>
			<polyline class="st1" points="418,44.8 418,40.7 421.2,49.4 424.4,40.7 427.6,49.4 430.8,40.7 434,49.4 434,45.3 			"/>
			<polygon class="st0" points="398,60.2 395.5,60.2 393,60.2 390.5,60.2 388,60.2 385.5,60.2 383,60.2 380.5,60.2 378,60.2 
				375.4,60.2 372.9,60.2 370.4,60.2 367.9,60.2 365.4,60.2 362.9,60.2 360.4,60.2 357.9,60.2 357.9,59 357.9,57.8 357.9,56.5 
				357.9,55.3 357.9,54 357.9,52.8 357.9,51.6 357.9,50.3 357.9,49.1 357.9,47.8 357.9,46.6 357.9,45.3 357.9,44.1 357.9,42.9 
				357.9,41.6 357.9,40.4 360.4,40.4 362.9,40.4 365.4,40.4 367.9,40.4 370.4,40.4 372.9,40.4 375.4,40.4 378,40.4 380.5,40.4 
				383,40.4 385.5,40.4 388,40.4 390.5,40.4 393,40.4 395.5,40.4 398,40.4 398,41.6 398,42.9 398,44.1 398,45.3 398,46.6 398,47.8 
				398,49.1 398,50.3 398,51.6 398,52.8 398,54 398,55.3 398,56.5 398,57.8 398,59 			"/>
			<g>
				<line class="st0" x1="380.5" y1="45.3" x2="385.5" y2="45.3"/>
				<line class="st0" x1="383" y1="40.9" x2="383" y2="44.8"/>
			</g>
			<g>
				<line class="st0" x1="390.5" y1="45.3" x2="395.5" y2="45.3"/>
				<line class="st0" x1="393" y1="40.9" x2="393" y2="44.8"/>
			</g>
			<g>
				<line class="st0" x1="380.5" y1="55.3" x2="385.5" y2="55.3"/>
				<line class="st0" x1="383" y1="59.8" x2="383" y2="55.8"/>
			</g>
			<g>
				<line class="st0" x1="390.5" y1="55.3" x2="395.5" y2="55.3"/>
				<line class="st0" x1="393" y1="59.8" x2="393" y2="55.8"/>
			</g>
			<g>
				<rect x="341.9" y="51.3" class="st0" width="16" height="8.9"/>
				<line class="st0" x1="346.2" y1="51.4" x2="352.7" y2="60.2"/>
			</g>
			<g>
				<rect x="418" y="51.3" class="st0" width="16" height="8.9"/>
				<line class="st0" x1="429.8" y1="51.4" x2="423.2" y2="60.2"/>
			</g>
			<g>
				<line class="st0" x1="336.4" y1="54.3" x2="341.4" y2="54.3"/>
				<line class="st0" x1="341.4" y1="57.3" x2="335.4" y2="57.3"/>
				<line class="st0" x1="333" y1="62.7" x2="341.9" y2="39.4"/>
				<ellipse class="st0" cx="342.7" cy="37.3" rx="2" ry="2"/>
			</g>
			<rect x="398" y="40.4" class="st0" width="20" height="19.9"/>
			<line class="st0" x1="370.8" y1="55.5" x2="362.9" y2="40.4"/>
			<polygon class="st2" points="368.7,55.2 373.2,60.2 371.8,53.7 			"/>
			<line class="st0" x1="362.9" y1="60.2" x2="370.8" y2="45.1"/>
			<polygon class="st2" points="368.7,45.4 373.2,40.4 371.8,46.9 			"/>
			<line class="st0" x1="413" y1="54.8" x2="413" y2="40.9"/>
			<polygon class="st2" points="411.3,53.8 413,60.3 414.8,53.8 			"/>
			<line class="st0" x1="403" y1="45.8" x2="403" y2="59.8"/>
			<polygon class="st2" points="404.7,46.8 403,40.4 401.2,46.8 			"/>
		</g>
	</g>
	<g class="st4">
		<line class="st0" x1="383" y1="27.9" x2="383" y2="40.9"/>
		<line class="st0" x1="393" y1="27.9" x2="393" y2="40.9"/>
	</g>
	<line class="st5" x1="383" y1="60.9" x2="383" y2="73.9"/>
	<circle class="st7" cx="393" cy="113.4" r="1.5"/>
	<circle class="st7" cx="383" cy="73.4" r="1.5"/>
	<path class="st5" d="M393,113.9v-37c1.7,0,3-1.3,3-3c0-1.7-1.3-3-3-3v-10"/>
	<line class="st5" x1="499" y1="60.9" x2="499" y2="73.9"/>
	<circle class="st7" cx="509.1" cy="113.4" r="1.5"/>
	<circle class="st7" cx="499" cy="73.4" r="1.5"/>
	<path class="st5" d="M509,113.9v-37c1.7,0,3-1.3,3-3c0-1.7-1.3-3-3-3v-10"/>
	<g class="st4">
		<polyline class="st0" points="117,104.9 117,101.4 117,96.7 117,91.9 117,85.9 		"/>
		<polyline class="st1" points="137,89.9 137,94.8 139.4,85.9 141.8,94.8 144.2,85.9 146.6,94.8 149,85.9 149,89.9 		"/>
		<g>
			<line class="st0" x1="155.5" y1="102.4" x2="136.5" y2="102.4"/>
			<path class="st0" d="M153.7,99.4c-2.1,1.1-4.4,1.7-6.9,1.7c-2.5,0-4.9-0.6-7-1.7"/>
			<path class="st0" d="M153.7,105.3c-2.1-1.1-4.4-1.7-6.9-1.7c-2.5,0-4.9,0.6-7,1.7"/>
		</g>
		<polygon class="st0" points="137,105.4 134.5,105.4 132,105.4 129.5,105.4 127,105.4 124.5,105.4 122,105.4 119.5,105.4 
			117,105.4 114.5,105.4 112,105.4 109.5,105.4 107,105.4 104.5,105.4 102,105.4 99.5,105.4 97,105.4 97,104.1 97,102.9 97,101.6 
			97,100.4 97,99.1 97,97.9 97,96.6 97,95.4 97,94.1 97,92.9 97,91.6 97,90.4 97,89.1 97,87.9 97,86.6 97,85.4 99.5,85.4 102,85.4 
			104.5,85.4 107,85.4 109.5,85.4 112,85.4 114.5,85.4 117,85.4 119.5,85.4 122,85.4 124.5,85.4 127,85.4 129.5,85.4 132,85.4 
			134.5,85.4 137,85.4 137,86.6 137,87.9 137,89.1 137,90.4 137,91.6 137,92.9 137,94.1 137,95.4 137,96.6 137,97.9 137,99.1 
			137,100.4 137,101.6 137,102.9 137,104.1 		"/>
		<g>
			<g>
				<line class="st0" x1="124.5" y1="90.4" x2="129.5" y2="90.4"/>
				<line class="st0" x1="127" y1="85.9" x2="127" y2="89.9"/>
			</g>
			<g>
				<line class="st0" x1="124.5" y1="100.4" x2="129.5" y2="100.4"/>
				<line class="st0" x1="127" y1="104.9" x2="127" y2="100.9"/>
			</g>
		</g>
		<polyline class="st1" points="126.5,85.4 121.5,80.4 92,80.4 92,95.4 96.5,95.4 		"/>
		<g>
			<line class="st0" x1="107" y1="99.9" x2="107" y2="85.9"/>
			<g>
				<polygon class="st2" points="108.7,98.9 107,105.4 105.2,98.9 				"/>
			</g>
		</g>
	</g>
	<line class="st5" x1="127" y1="85.9" x2="127" y2="73.9"/>
	<line class="st5" x1="127" y1="112.9" x2="127" y2="105.9"/>
	<g class="st4">
		<line class="st0" x1="231" y1="94.4" x2="231" y2="113.4"/>
		<path class="st0" d="M227.8,96.5c1.1,2.1,1.7,4.4,1.7,6.9c0,2.5-0.6,4.9-1.7,7"/>
		<path class="st0" d="M234.2,96.5c-1.1,2.1-1.7,4.4-1.7,6.9c0,2.5,0.6,4.9,1.7,7"/>
	</g>
	<line class="st5" x1="231" y1="94.4" x2="231" y2="73.4"/>
	<polyline class="st8" points="231.5,85.4 214,85.4 214,102.4 155.5,102.4 	"/>
	<g class="st4">
		<polyline class="st0" points="562,68.9 558,71.9 562,74.9 558,77.9 		"/>
	</g>
	<g class="st4">
		<polyline class="st0" points="562,108.9 558,111.9 562,114.9 558,117.9 		"/>
	</g>
</g>
</svg>
