<?xml version="1.0" encoding="utf-8"?>
<!-- Generator: Adobe Illustrator 24.0.0, SVG Export Plug-In . SVG Version: 6.00 Build 0)  -->
<svg version="1.1" id="Layer_1" xmlns="http://www.w3.org/2000/svg" xmlns:xlink="http://www.w3.org/1999/xlink" x="0px" y="0px"
	 viewBox="0 0 560 140" style="enable-background:new 0 0 560 140;" xml:space="preserve">
<style type="text/css">
	.st0{fill:none;stroke:#0D0D0D;stroke-width:1.5;stroke-miterlimit:10;}
	.st1{fill:#0D0D0D;}
	.st2{fill:none;stroke:#0D0D0D;stroke-width:1.5;stroke-linejoin:round;stroke-miterlimit:10;}
	.st3{fill:none;stroke:#0D0D0D;stroke-width:3;stroke-linecap:round;stroke-miterlimit:10;}
	.st4{fill:none;stroke:#0D0D0D;stroke-width:1.5;stroke-miterlimit:10;stroke-dasharray:3,3;}
</style>
<g>
	<g>
		<polyline class="st0" points="54,100.3 55.1,97.9 56.2,95.5 57.3,93.1 58.4,90.7 59.6,88.4 60.6,86 		"/>
		<g>
			<polygon class="st1" points="59.1,85.3 61.2,82.7 63.4,80.1 62.8,83.5 62.2,86.8 60.6,86 			"/>
		</g>
	</g>
	<g>
		<polygon class="st0" points="54,83.4 54,88.4 54,93.4 54,98.4 54,103.4 49,103.4 44,103.4 39,103.4 34,103.4 34,98.4 34,93.4 
			34,88.4 34,83.4 39,83.4 44,83.4 49,83.4 		"/>
		<g>
			<line class="st0" x1="38" y1="97.9" x2="38" y2="83.9"/>
			<g>
				<polygon class="st1" points="39.8,96.9 38.1,103.4 36.4,96.9 				"/>
			</g>
		</g>
		<polyline class="st2" points="54.1,93.2 54.1,97.4 55.7,88.5 57.3,97.4 58.9,88.5 60.5,97.4 62.1,88.5 62.1,93.2 		"/>
		<polyline class="st2" points="44,83.4 39,78.4 29,78.4 29,93.4 33.5,93.4 		"/>
	</g>
	<line class="st0" x1="44" y1="82.9" x2="44" y2="73.9"/>
	<line class="st0" x1="167" y1="73.4" x2="9.7" y2="73.4"/>
	<line class="st0" x1="547" y1="73.4" x2="187" y2="73.4"/>
	<g>
		<polyline class="st0" points="167.5,63.4 171.7,63.4 176.5,63.4 181.2,63.4 186.5,63.4 		"/>
		<polyline class="st2" points="172.5,83.4 167.3,83.4 176.2,85.8 167.3,88.2 176.2,90.6 167.3,93 176.2,95.4 172.5,95.4 		"/>
		<g>
			<line class="st0" x1="167.5" y1="53.4" x2="186.5" y2="53.4"/>
			<path class="st0" d="M169.9,56.6c2.1-1.1,4.4-1.7,6.9-1.7c2.5,0,4.9,0.6,7,1.7"/>
			<path class="st0" d="M169.9,50.2c2.1,1.1,4.4,1.7,6.9,1.7c2.5,0,4.9-0.6,7-1.7"/>
		</g>
		<polygon class="st0" points="167,83.4 167,80.9 167,78.4 167,75.9 167,73.4 167,70.9 167,68.4 167,65.9 167,63.4 167,60.9 
			167,58.4 167,55.9 167,53.4 167,50.9 167,48.4 167,45.9 167,43.4 168.3,43.4 169.5,43.4 170.8,43.4 172,43.4 173.3,43.4 
			174.5,43.4 175.8,43.4 177,43.4 178.3,43.4 179.5,43.4 180.8,43.4 182,43.4 183.3,43.4 184.5,43.4 185.8,43.4 187,43.4 187,45.9 
			187,48.4 187,50.9 187,53.4 187,55.9 187,58.4 187,60.9 187,63.4 187,65.9 187,68.4 187,70.9 187,73.4 187,75.9 187,78.4 
			187,80.9 187,83.4 185.8,83.4 184.5,83.4 183.3,83.4 182,83.4 180.8,83.4 179.5,83.4 178.3,83.4 177,83.4 175.8,83.4 174.5,83.4 
			173.3,83.4 172,83.4 170.8,83.4 169.5,83.4 168.3,83.4 		"/>
		<g>
			<g>
				<line class="st0" x1="182" y1="70.9" x2="182" y2="75.9"/>
				<line class="st0" x1="186.5" y1="73.4" x2="182.5" y2="73.4"/>
			</g>
			<g>
				<line class="st0" x1="172" y1="70.9" x2="172" y2="75.9"/>
				<line class="st0" x1="167.5" y1="73.4" x2="171.5" y2="73.4"/>
			</g>
		</g>
		<rect x="167" y="27.4" class="st0" width="10" height="16"/>
		<line class="st0" x1="166.9" y1="31.1" x2="176.8" y2="37.7"/>
		<g>
			<polyline class="st0" points="164.8,36.4 167.3,35.8 169.9,35.1 172.4,34.4 174.9,33.7 177.5,33 179.9,32.4 			"/>
			<g>
				<polygon class="st1" points="180.4,34.2 183.3,32.6 186.2,30.9 182.9,30.9 179.5,30.9 179.9,32.6 				"/>
			</g>
		</g>
		<line class="st0" x1="172" y1="26.9" x2="172" y2="23.9"/>
		<line class="st3" x1="174.5" y1="23.9" x2="169.5" y2="23.9"/>
	</g>
	<circle class="st1" cx="222" cy="73.4" r="1.5"/>
	<circle class="st1" cx="222" cy="113.4" r="1.5"/>
	<circle class="st1" cx="44" cy="73.4" r="1.5"/>
	<circle class="st1" cx="118" cy="73.4" r="1.5"/>
	<circle class="st1" cx="44" cy="113.4" r="1.5"/>
	<circle class="st1" cx="118" cy="113.4" r="1.5"/>
	<g>
		<line class="st0" x1="490" y1="27.9" x2="490" y2="40.9"/>
		<line class="st0" x1="500" y1="27.9" x2="500" y2="40.9"/>
	</g>
	<g>
		<g>
			<polyline class="st0" points="485,59.9 485,55.5 485,50.7 485,46 485,40.9 			"/>
			<polyline class="st2" points="447.2,44.9 449.2,49.4 452.3,40.7 455.5,49.4 458.7,40.7 461.9,49.4 465,40.7 465,44.9 			"/>
			<polyline class="st2" points="525,44.9 525,40.7 528.2,49.4 531.4,40.7 534.6,49.4 537.8,40.7 541,49.4 541,44.9 			"/>
			<polygon class="st0" points="505,60.4 502.5,60.4 500,60.4 497.5,60.4 495,60.4 492.5,60.4 490,60.4 487.5,60.4 485,60.4 
				482.5,60.4 480,60.4 477.5,60.4 475,60.4 472.5,60.4 470,60.4 467.5,60.4 465,60.4 465,59.1 465,57.9 465,56.6 465,55.4 
				465,54.1 465,52.9 465,51.6 465,50.4 465,49.1 465,47.9 465,46.6 465,45.4 465,44.1 465,42.9 465,41.6 465,40.4 467.5,40.4 
				470,40.4 472.5,40.4 475,40.4 477.5,40.4 480,40.4 482.5,40.4 485,40.4 487.5,40.4 490,40.4 492.5,40.4 495,40.4 497.5,40.4 
				500,40.4 502.5,40.4 505,40.4 505,41.6 505,42.9 505,44.1 505,45.4 505,46.6 505,47.9 505,49.1 505,50.4 505,51.6 505,52.9 
				505,54.1 505,55.4 505,56.6 505,57.9 505,59.1 			"/>
			<g>
				<line class="st0" x1="487.5" y1="45.4" x2="492.5" y2="45.4"/>
				<line class="st0" x1="490" y1="40.9" x2="490" y2="44.9"/>
			</g>
			<g>
				<line class="st0" x1="497.5" y1="45.4" x2="502.5" y2="45.4"/>
				<line class="st0" x1="500" y1="40.9" x2="500" y2="44.9"/>
			</g>
			<g>
				<line class="st0" x1="487.5" y1="55.4" x2="492.5" y2="55.4"/>
				<line class="st0" x1="490" y1="59.9" x2="490" y2="55.9"/>
			</g>
			<g>
				<line class="st0" x1="497.5" y1="55.4" x2="502.5" y2="55.4"/>
				<line class="st0" x1="500" y1="59.9" x2="500" y2="55.9"/>
			</g>
			<g>
				<rect x="449" y="51.4" class="st0" width="16" height="9"/>
				<line class="st0" x1="453" y1="51.4" x2="459.5" y2="60.2"/>
			</g>
			<g>
				<rect x="525" y="51.4" class="st0" width="16" height="9"/>
				<line class="st0" x1="536.8" y1="51.4" x2="530.4" y2="60.2"/>
			</g>
			<g>
				<line class="st0" x1="443.5" y1="54.4" x2="448.5" y2="54.4"/>
				<line class="st0" x1="448.5" y1="57.4" x2="442.5" y2="57.4"/>
				<line class="st0" x1="440" y1="62.7" x2="448.8" y2="39.4"/>
				<ellipse class="st0" cx="449.6" cy="37.4" rx="2" ry="2"/>
			</g>
			<rect x="505" y="40.4" class="st0" width="20" height="20"/>
			<line class="st0" x1="478.4" y1="55.5" x2="470.6" y2="40.4"/>
			<polygon class="st1" points="476.4,55.2 480.8,60.3 479.5,53.7 			"/>
			<line class="st0" x1="470.6" y1="60.3" x2="478.4" y2="45.1"/>
			<polygon class="st1" points="476.4,45.4 480.8,40.4 479.5,46.9 			"/>
			<line class="st0" x1="520" y1="54.9" x2="520" y2="40.9"/>
			<polygon class="st1" points="518.3,53.9 520,60.3 521.8,53.9 			"/>
			<line class="st0" x1="510" y1="45.9" x2="510" y2="59.9"/>
			<polygon class="st1" points="511.8,46.9 510,40.4 508.3,46.9 			"/>
		</g>
	</g>
	<line class="st0" x1="44" y1="112.9" x2="44" y2="103.9"/>
	<line class="st0" x1="547" y1="113.4" x2="9.7" y2="113.4"/>
	<g id="XMLID_3_">
		<g>
			<polyline class="st0" points="252,59.8 252,55.5 252,50.7 252,46 252,40.9 			"/>
			<polyline class="st2" points="213.9,44.9 215.9,49.4 219.1,40.7 222.3,49.4 225.5,40.7 228.7,49.4 231.9,40.7 231.9,44.9 			"/>
			<polyline class="st2" points="292,44.9 292,40.7 295.2,49.4 298.4,40.7 301.6,49.4 304.8,40.7 308,49.4 308,45.4 			"/>
			<polygon class="st0" points="272,60.3 269.5,60.3 267,60.3 264.5,60.3 262,60.3 259.5,60.3 257,60.3 254.5,60.3 252,60.3 
				249.4,60.3 247,60.3 244.4,60.3 241.9,60.3 239.4,60.3 236.9,60.3 234.4,60.3 231.9,60.3 231.9,59 231.9,57.8 231.9,56.5 
				231.9,55.3 231.9,54.1 231.9,52.8 231.9,51.6 231.9,50.3 231.9,49.1 231.9,47.8 231.9,46.6 231.9,45.4 231.9,44.1 231.9,42.9 
				231.9,41.6 231.9,40.4 234.4,40.4 236.9,40.4 239.4,40.4 241.9,40.4 244.4,40.4 247,40.4 249.4,40.4 252,40.4 254.5,40.4 
				257,40.4 259.5,40.4 262,40.4 264.5,40.4 267,40.4 269.5,40.4 272,40.4 272,41.6 272,42.9 272,44.1 272,45.4 272,46.6 272,47.8 
				272,49.1 272,50.3 272,51.6 272,52.8 272,54.1 272,55.3 272,56.5 272,57.8 272,59 			"/>
			<g>
				<line class="st0" x1="254.5" y1="45.4" x2="259.5" y2="45.4"/>
				<line class="st0" x1="257" y1="40.9" x2="257" y2="44.9"/>
			</g>
			<g>
				<line class="st0" x1="264.5" y1="45.4" x2="269.5" y2="45.4"/>
				<line class="st0" x1="267" y1="40.9" x2="267" y2="44.9"/>
			</g>
			<g>
				<line class="st0" x1="254.5" y1="55.3" x2="259.5" y2="55.3"/>
				<line class="st0" x1="257" y1="59.8" x2="257" y2="55.8"/>
			</g>
			<g>
				<line class="st0" x1="264.5" y1="55.3" x2="269.5" y2="55.3"/>
				<line class="st0" x1="267" y1="59.8" x2="267" y2="55.8"/>
			</g>
			<g>
				<rect x="215.9" y="51.3" class="st0" width="16" height="8.9"/>
				<line class="st0" x1="220.2" y1="51.4" x2="226.7" y2="60.2"/>
			</g>
			<g>
				<rect x="292" y="51.3" class="st0" width="16" height="8.9"/>
				<line class="st0" x1="303.8" y1="51.4" x2="297.2" y2="60.2"/>
			</g>
			<g>
				<line class="st0" x1="210.4" y1="54.3" x2="215.4" y2="54.3"/>
				<line class="st0" x1="215.4" y1="57.3" x2="209.4" y2="57.3"/>
				<line class="st0" x1="207" y1="62.7" x2="215.9" y2="39.4"/>
				<ellipse class="st0" cx="216.7" cy="37.4" rx="2" ry="2"/>
			</g>
			<rect x="272" y="40.4" class="st0" width="20" height="19.9"/>
			<line class="st0" x1="244.8" y1="55.5" x2="236.9" y2="40.4"/>
			<polygon class="st1" points="242.7,55.2 247.2,60.3 245.8,53.7 			"/>
			<line class="st0" x1="236.9" y1="60.3" x2="244.8" y2="45.1"/>
			<polygon class="st1" points="242.7,45.4 247.2,40.4 245.8,46.9 			"/>
			<line class="st0" x1="287" y1="54.8" x2="287" y2="40.9"/>
			<polygon class="st1" points="285.3,53.8 287,60.3 288.8,53.8 			"/>
			<line class="st0" x1="277" y1="45.9" x2="277" y2="59.8"/>
			<polygon class="st1" points="278.7,46.8 277,40.4 275.2,46.8 			"/>
		</g>
	</g>
	<line class="st0" x1="257" y1="60.4" x2="257" y2="73.4"/>
	<g>
		<line class="st0" x1="257" y1="27.9" x2="257" y2="40.9"/>
		<line class="st0" x1="267" y1="27.9" x2="267" y2="40.9"/>
	</g>
	<circle class="st1" cx="257" cy="73.4" r="1.5"/>
	<circle class="st1" cx="267" cy="113.4" r="1.5"/>
	<path class="st0" d="M267,113.4v-37c1.7,0,3-1.3,3-3s-1.3-3-3-3v-10"/>
	<g>
		<g>
			<polyline class="st0" points="369,59.8 369,55.4 369,50.7 369,46 369,40.9 			"/>
			<polyline class="st2" points="330.9,44.8 332.9,49.4 336.1,40.7 339.3,49.4 342.5,40.7 345.7,49.4 348.9,40.7 348.9,44.8 			"/>
			<polyline class="st2" points="409,44.8 409,40.7 412.2,49.4 415.4,40.7 418.6,49.4 421.8,40.7 425,49.4 425,45.3 			"/>
			<polygon class="st0" points="389,60.2 386.5,60.2 384,60.2 381.5,60.2 379,60.2 376.5,60.2 374,60.2 371.5,60.2 369,60.2 
				366.4,60.2 363.9,60.2 361.4,60.2 358.9,60.2 356.4,60.2 353.9,60.2 351.4,60.2 348.9,60.2 348.9,59 348.9,57.8 348.9,56.5 
				348.9,55.3 348.9,54 348.9,52.8 348.9,51.6 348.9,50.3 348.9,49.1 348.9,47.8 348.9,46.6 348.9,45.3 348.9,44.1 348.9,42.9 
				348.9,41.6 348.9,40.4 351.4,40.4 353.9,40.4 356.4,40.4 358.9,40.4 361.4,40.4 363.9,40.4 366.4,40.4 369,40.4 371.5,40.4 
				374,40.4 376.5,40.4 379,40.4 381.5,40.4 384,40.4 386.5,40.4 389,40.4 389,41.6 389,42.9 389,44.1 389,45.3 389,46.6 389,47.8 
				389,49.1 389,50.3 389,51.6 389,52.8 389,54 389,55.3 389,56.5 389,57.8 389,59 			"/>
			<g>
				<line class="st0" x1="371.5" y1="45.3" x2="376.5" y2="45.3"/>
				<line class="st0" x1="374" y1="40.9" x2="374" y2="44.8"/>
			</g>
			<g>
				<line class="st0" x1="381.5" y1="45.3" x2="386.5" y2="45.3"/>
				<line class="st0" x1="384" y1="40.9" x2="384" y2="44.8"/>
			</g>
			<g>
				<line class="st0" x1="371.5" y1="55.3" x2="376.5" y2="55.3"/>
				<line class="st0" x1="374" y1="59.8" x2="374" y2="55.8"/>
			</g>
			<g>
				<line class="st0" x1="381.5" y1="55.3" x2="386.5" y2="55.3"/>
				<line class="st0" x1="384" y1="59.8" x2="384" y2="55.8"/>
			</g>
			<g>
				<rect x="332.9" y="51.3" class="st0" width="16" height="8.9"/>
				<line class="st0" x1="337.2" y1="51.4" x2="343.7" y2="60.2"/>
			</g>
			<g>
				<rect x="409" y="51.3" class="st0" width="16" height="8.9"/>
				<line class="st0" x1="420.8" y1="51.4" x2="414.2" y2="60.2"/>
			</g>
			<g>
				<line class="st0" x1="327.4" y1="54.3" x2="332.4" y2="54.3"/>
				<line class="st0" x1="332.4" y1="57.3" x2="326.4" y2="57.3"/>
				<line class="st0" x1="324" y1="62.7" x2="332.9" y2="39.4"/>
				<ellipse class="st0" cx="333.7" cy="37.3" rx="2" ry="2"/>
			</g>
			<rect x="389" y="40.4" class="st0" width="20" height="19.9"/>
			<line class="st0" x1="361.8" y1="55.5" x2="353.9" y2="40.4"/>
			<polygon class="st1" points="359.7,55.2 364.2,60.2 362.8,53.7 			"/>
			<line class="st0" x1="353.9" y1="60.2" x2="361.8" y2="45.1"/>
			<polygon class="st1" points="359.7,45.4 364.2,40.4 362.8,46.9 			"/>
			<line class="st0" x1="404" y1="54.8" x2="404" y2="40.9"/>
			<polygon class="st1" points="402.3,53.8 404,60.3 405.8,53.8 			"/>
			<line class="st0" x1="394" y1="45.8" x2="394" y2="59.8"/>
			<polygon class="st1" points="395.7,46.8 394,40.4 392.2,46.8 			"/>
		</g>
	</g>
	<g>
		<line class="st0" x1="374" y1="27.9" x2="374" y2="40.9"/>
		<line class="st0" x1="384" y1="27.9" x2="384" y2="40.9"/>
	</g>
	<line class="st0" x1="374" y1="60.9" x2="374" y2="73.9"/>
	<circle class="st1" cx="384" cy="113.4" r="1.5"/>
	<circle class="st1" cx="374" cy="73.4" r="1.5"/>
	<path class="st0" d="M384,113.9v-37c1.7,0,3-1.3,3-3c0-1.7-1.3-3-3-3v-10"/>
	<line class="st0" x1="490" y1="60.9" x2="490" y2="73.9"/>
	<circle class="st1" cx="500.1" cy="113.4" r="1.5"/>
	<circle class="st1" cx="490" cy="73.4" r="1.5"/>
	<path class="st0" d="M500,113.9v-37c1.7,0,3-1.3,3-3c0-1.7-1.3-3-3-3v-10"/>
	<g>
		<polyline class="st0" points="108,104.9 108,101.4 108,96.7 108,91.9 108,85.9 		"/>
		<polyline class="st2" points="128,89.9 128,94.8 130.4,85.9 132.8,94.8 135.2,85.9 137.6,94.8 140,85.9 140,89.9 		"/>
		<g>
			<line class="st0" x1="146.5" y1="102.4" x2="127.5" y2="102.4"/>
			<path class="st0" d="M144.7,99.4c-2.1,1.1-4.4,1.7-6.9,1.7c-2.5,0-4.9-0.6-7-1.7"/>
			<path class="st0" d="M144.7,105.3c-2.1-1.1-4.4-1.7-6.9-1.7c-2.5,0-4.9,0.6-7,1.7"/>
		</g>
		<polygon class="st0" points="128,105.4 125.5,105.4 123,105.4 120.5,105.4 118,105.4 115.5,105.4 113,105.4 110.5,105.4 
			108,105.4 105.5,105.4 103,105.4 100.5,105.4 98,105.4 95.5,105.4 93,105.4 90.5,105.4 88,105.4 88,104.1 88,102.9 88,101.6 
			88,100.4 88,99.1 88,97.9 88,96.6 88,95.4 88,94.1 88,92.9 88,91.6 88,90.4 88,89.1 88,87.9 88,86.6 88,85.4 90.5,85.4 93,85.4 
			95.5,85.4 98,85.4 100.5,85.4 103,85.4 105.5,85.4 108,85.4 110.5,85.4 113,85.4 115.5,85.4 118,85.4 120.5,85.4 123,85.4 
			125.5,85.4 128,85.4 128,86.6 128,87.9 128,89.1 128,90.4 128,91.6 128,92.9 128,94.1 128,95.4 128,96.6 128,97.9 128,99.1 
			128,100.4 128,101.6 128,102.9 128,104.1 		"/>
		<g>
			<g>
				<line class="st0" x1="115.5" y1="90.4" x2="120.5" y2="90.4"/>
				<line class="st0" x1="118" y1="85.9" x2="118" y2="89.9"/>
			</g>
			<g>
				<line class="st0" x1="115.5" y1="100.4" x2="120.5" y2="100.4"/>
				<line class="st0" x1="118" y1="104.9" x2="118" y2="100.9"/>
			</g>
		</g>
		<polyline class="st2" points="117.5,85.4 112.5,80.4 83,80.4 83,95.4 87.5,95.4 		"/>
		<g>
			<line class="st0" x1="98" y1="99.9" x2="98" y2="85.9"/>
			<g>
				<polygon class="st1" points="99.7,98.9 98,105.4 96.2,98.9 				"/>
			</g>
		</g>
	</g>
	<line class="st0" x1="118" y1="85.9" x2="118" y2="73.9"/>
	<line class="st0" x1="118" y1="112.9" x2="118" y2="105.9"/>
	<g>
		<line class="st0" x1="222" y1="94.4" x2="222" y2="113.4"/>
		<path class="st0" d="M218.8,96.5c1.1,2.1,1.7,4.4,1.7,6.9c0,2.5-0.6,4.9-1.7,7"/>
		<path class="st0" d="M225.2,96.5c-1.1,2.1-1.7,4.4-1.7,6.9c0,2.5,0.6,4.9,1.7,7"/>
	</g>
	<line class="st0" x1="222" y1="94.4" x2="222" y2="73.4"/>
	<polyline class="st4" points="222.5,85.4 205,85.4 205,102.4 146.5,102.4 	"/>
	<g>
		<polyline class="st0" points="549,68.9 545,71.9 549,74.9 545,77.9 		"/>
	</g>
	<g>
		<polyline class="st0" points="549,108.9 545,111.9 549,114.9 545,117.9 		"/>
	</g>
</g>
</svg>
