<?xml version="1.0" encoding="utf-8"?>
<!-- Generator: Adobe Illustrator 24.0.0, SVG Export Plug-In . SVG Version: 6.00 Build 0)  -->
<svg version="1.1" id="Layer_1" xmlns="http://www.w3.org/2000/svg" xmlns:xlink="http://www.w3.org/1999/xlink" x="0px" y="0px"
	 viewBox="0 0 240 240" style="enable-background:new 0 0 240 240;" xml:space="preserve">
<style type="text/css">
	.st0{fill:none;stroke:#0D0D0D;stroke-width:1.5;stroke-miterlimit:10;}
	.st1{fill:none;stroke:#0D0D0D;stroke-width:1.5;stroke-linejoin:round;stroke-miterlimit:10;}
	.st2{fill:#0D0D0D;}
	.st3{font-family:'Calibri-Bold';}
	.st4{font-size:11px;}
</style>
<polyline class="st0" points="115.4,176.6 115.4,172.3 115.4,167.6 115.4,162.8 115.4,157.7 "/>
<polyline class="st1" points="77.4,161.7 79.4,166.2 82.6,157.5 85.8,166.2 89,157.5 92.2,166.2 95.4,157.5 95.4,161.7 "/>
<polyline class="st1" points="155.5,161.7 155.5,157.5 158.7,166.2 161.9,157.5 165.1,166.2 168.3,157.5 171.5,166.2 171.5,162.2 
	"/>
<polygon class="st0" points="135.4,177.1 132.9,177.1 130.4,177.1 127.9,177.1 125.4,177.1 122.9,177.1 120.4,177.1 117.9,177.1 
	115.4,177.1 112.9,177.1 110.4,177.1 107.9,177.1 105.4,177.1 102.9,177.1 100.4,177.1 97.9,177.1 95.4,177.1 95.4,175.8 
	95.4,174.6 95.4,173.4 95.4,172.1 95.4,170.9 95.4,169.6 95.4,168.4 95.4,167.1 95.4,165.9 95.4,164.7 95.4,163.4 95.4,162.2 
	95.4,160.9 95.4,159.7 95.4,158.4 95.4,157.2 97.9,157.2 100.4,157.2 102.9,157.2 105.4,157.2 107.9,157.2 110.4,157.2 112.9,157.2 
	115.4,157.2 117.9,157.2 120.4,157.2 122.9,157.2 125.4,157.2 127.9,157.2 130.4,157.2 132.9,157.2 135.4,157.2 135.4,158.4 
	135.4,159.7 135.4,160.9 135.4,162.2 135.4,163.4 135.4,164.7 135.4,165.9 135.4,167.1 135.4,168.4 135.4,169.6 135.4,170.9 
	135.4,172.1 135.4,173.4 135.4,174.6 135.4,175.8 "/>
<g>
	<line class="st0" x1="117.9" y1="162.2" x2="122.9" y2="162.2"/>
	<line class="st0" x1="120.4" y1="157.7" x2="120.4" y2="161.7"/>
</g>
<g>
	<line class="st0" x1="127.9" y1="162.2" x2="132.9" y2="162.2"/>
	<line class="st0" x1="130.4" y1="157.7" x2="130.4" y2="161.7"/>
</g>
<g>
	<line class="st0" x1="117.9" y1="172.1" x2="122.9" y2="172.1"/>
	<line class="st0" x1="120.4" y1="176.6" x2="120.4" y2="172.6"/>
</g>
<g>
	<line class="st0" x1="127.9" y1="172.1" x2="132.9" y2="172.1"/>
	<line class="st0" x1="130.4" y1="176.6" x2="130.4" y2="172.6"/>
</g>
<g>
	<rect x="79.4" y="168.1" class="st0" width="16" height="8.9"/>
	<line class="st0" x1="83.6" y1="168.2" x2="90.2" y2="177.1"/>
</g>
<g>
	<rect x="155.5" y="168.1" class="st0" width="16" height="8.9"/>
	<line class="st0" x1="167.2" y1="168.2" x2="160.7" y2="177.1"/>
</g>
<g>
	<line class="st0" x1="73.8" y1="171.1" x2="78.9" y2="171.1"/>
	<line class="st0" x1="78.9" y1="174.1" x2="72.8" y2="174.1"/>
	<line class="st0" x1="70.5" y1="179.5" x2="79.4" y2="156.2"/>
	<ellipse class="st0" cx="80.1" cy="154.2" rx="2" ry="2"/>
</g>
<rect x="135.4" y="157.2" class="st0" width="20" height="19.9"/>
<line class="st0" x1="108.3" y1="172.4" x2="100.4" y2="157.2"/>
<polygon class="st2" points="106.2,172.1 110.7,177.1 109.3,170.5 "/>
<line class="st0" x1="100.4" y1="177.1" x2="108.3" y2="161.9"/>
<polygon class="st2" points="106.2,162.2 110.7,157.2 109.3,163.8 "/>
<line class="st0" x1="150.5" y1="171.6" x2="150.5" y2="157.7"/>
<polygon class="st2" points="148.7,170.6 150.5,177.1 152.2,170.6 "/>
<line class="st0" x1="140.4" y1="162.7" x2="140.4" y2="176.6"/>
<polygon class="st2" points="142.2,163.7 140.4,157.2 138.7,163.7 "/>
<g>
	<polyline class="st1" points="164.5,65.2 171.5,65.2 171.5,125.2 151.5,125.2 151.5,65.2 158.5,65.2 	"/>
	<rect x="151.5" y="113.2" class="st0" width="20" height="6"/>
	<rect x="158.5" y="48.2" class="st0" width="6" height="65"/>
</g>
<g>
	<polyline class="st1" points="86.4,65.2 79.4,65.2 79.4,125.2 99.4,125.2 99.4,65.2 92.4,65.2 	"/>
	<rect x="79.4" y="113.2" class="st0" width="20" height="6"/>
	<rect x="86.4" y="48.2" class="st0" width="6" height="65"/>
</g>
<line class="st0" x1="100" y1="68.2" x2="151" y2="68.2"/>
<line class="st0" x1="120.5" y1="157.2" x2="120.5" y2="122.2"/>
<line class="st0" x1="130.5" y1="157.2" x2="130.5" y2="68.2"/>
<circle class="st2" cx="120.5" cy="122.2" r="1.5"/>
<circle class="st2" cx="130.5" cy="68.2" r="1.5"/>
<path class="st0" d="M151.5,122.2h-18c0-1.7-1.3-3-3-3s-3,1.3-3,3h-28"/>
<g>
	<line class="st0" x1="130.5" y1="181.7" x2="130.5" y2="176.7"/>
	<line class="st0" x1="120.5" y1="181.7" x2="120.5" y2="176.7"/>
	<text transform="matrix(1 0 0 1 117.8115 191.512)" class="st3 st4">B</text>
	<text transform="matrix(1 0 0 1 127.8115 191.512)" class="st3 st4">T</text>
</g>
</svg>
