<?xml version="1.0" encoding="utf-8"?>
<!-- Generator: Adobe Illustrator 24.0.0, SVG Export Plug-In . SVG Version: 6.00 Build 0)  -->
<svg version="1.1" id="Layer_1" xmlns="http://www.w3.org/2000/svg" xmlns:xlink="http://www.w3.org/1999/xlink" x="0px" y="0px"
	 viewBox="0 0 340 340" style="enable-background:new 0 0 340 340;" xml:space="preserve">
<style type="text/css">
	.st0{fill:none;stroke:#0D0D0D;stroke-width:3;stroke-miterlimit:10;}
	.st1{fill:none;stroke:#0D0D0D;stroke-width:3;stroke-linejoin:round;stroke-miterlimit:10;}
	.st2{fill:#0D0D0D;}
	.st3{fill:none;stroke:#0D0D0D;stroke-width:3;stroke-miterlimit:10;stroke-dasharray:6,3;}
	.st4{fill:none;stroke:#0D0D0D;stroke-width:3;stroke-miterlimit:10;stroke-dasharray:6.3339,3.1669;}
	.st5{fill:none;stroke:#0D0D0D;stroke-width:3;stroke-miterlimit:10;stroke-dasharray:3.186,3.186;}
	.st6{fill:none;stroke:#0D0D0D;stroke-width:3;stroke-miterlimit:10;stroke-dasharray:5.0714,5.0714;}
	.st7{fill:none;stroke:#0D0D0D;stroke-width:3;stroke-miterlimit:10;stroke-dasharray:4.75,2.375;}
	.st8{fill:none;stroke:#0D0D0D;stroke-width:3;stroke-miterlimit:10;stroke-dasharray:3.5,1.75;}
	.st9{fill:none;stroke:#0D0D0D;stroke-width:3;stroke-miterlimit:10;stroke-dasharray:5.5385,2.7692;}
	.st10{fill:none;stroke:#0D0D0D;stroke-width:3;stroke-miterlimit:10;stroke-dasharray:6.7143,3.3571;}
	.st11{fill:none;stroke:#0D0D0D;stroke-width:3;stroke-miterlimit:10;stroke-dasharray:4,2;}
	.st12{fill:none;stroke:#999999;stroke-width:3;stroke-miterlimit:10;}
</style>
<polyline class="st0" points="177.4,302.2 177.4,297.9 177.4,293.2 177.4,288.5 177.4,283.4 "/>
<polyline class="st1" points="139.4,287.3 141.4,291.8 144.6,283.2 147.8,291.8 151,283.2 154.2,291.8 157.4,283.2 157.4,287.3 "/>
<polyline class="st1" points="217.5,287.3 217.5,283.2 220.7,291.8 223.9,283.2 227.1,291.8 230.3,283.2 233.5,291.8 233.5,287.8 
	"/>
<polygon class="st0" points="197.5,302.7 195,302.7 192.5,302.7 190,302.7 187.5,302.7 185,302.7 182.5,302.7 179.9,302.7 
	177.4,302.7 174.9,302.7 172.4,302.7 169.9,302.7 167.4,302.7 164.9,302.7 162.4,302.7 159.9,302.7 157.4,302.7 157.4,301.5 
	157.4,300.2 157.4,299 157.4,297.8 157.4,296.5 157.4,295.3 157.4,294 157.4,292.8 157.4,291.5 157.4,290.3 157.4,289.1 
	157.4,287.8 157.4,286.6 157.4,285.3 157.4,284.1 157.4,282.9 159.9,282.9 162.4,282.9 164.9,282.9 167.4,282.9 169.9,282.9 
	172.4,282.9 174.9,282.9 177.4,282.9 179.9,282.9 182.5,282.9 185,282.9 187.5,282.9 190,282.9 192.5,282.9 195,282.9 197.5,282.9 
	197.5,284.1 197.5,285.3 197.5,286.6 197.5,287.8 197.5,289.1 197.5,290.3 197.5,291.5 197.5,292.8 197.5,294 197.5,295.3 
	197.5,296.5 197.5,297.8 197.5,299 197.5,300.2 197.5,301.5 "/>
<g>
	<line class="st0" x1="180" y1="287.8" x2="185" y2="287.8"/>
	<line class="st0" x1="182.5" y1="283.3" x2="182.5" y2="287.3"/>
</g>
<g>
	<line class="st0" x1="190" y1="287.8" x2="195" y2="287.8"/>
	<line class="st0" x1="192.5" y1="283.3" x2="192.5" y2="287.3"/>
</g>
<g>
	<line class="st0" x1="180" y1="297.8" x2="185" y2="297.8"/>
	<line class="st0" x1="182.5" y1="302.3" x2="182.5" y2="298.3"/>
</g>
<g>
	<line class="st0" x1="190" y1="297.8" x2="195" y2="297.8"/>
	<line class="st0" x1="192.5" y1="302.3" x2="192.5" y2="298.3"/>
</g>
<g>
	<rect x="141.4" y="293.8" class="st0" width="16" height="8.9"/>
	<line class="st0" x1="145.7" y1="293.8" x2="152.2" y2="302.7"/>
</g>
<g>
	<rect x="217.5" y="293.8" class="st0" width="16" height="8.9"/>
	<line class="st0" x1="229.3" y1="293.8" x2="222.7" y2="302.7"/>
</g>
<g>
	<line class="st0" x1="135.9" y1="296.8" x2="140.9" y2="296.8"/>
	<line class="st0" x1="140.9" y1="299.7" x2="134.9" y2="299.7"/>
	<line class="st0" x1="132.5" y1="305.2" x2="141.4" y2="281.9"/>
	<ellipse class="st0" cx="142.2" cy="279.8" rx="2" ry="2"/>
</g>
<rect x="197.5" y="282.9" class="st0" width="20" height="19.9"/>
<line class="st0" x1="170.3" y1="298" x2="162.4" y2="282.9"/>
<polygon class="st2" points="167.1,296.9 173.8,304.4 171.8,294.5 "/>
<line class="st0" x1="162.4" y1="302.7" x2="170.3" y2="287.6"/>
<polygon class="st2" points="167.1,288.7 173.8,281.2 171.8,291 "/>
<line class="st0" x1="212.5" y1="297.3" x2="212.5" y2="283.4"/>
<polygon class="st2" points="209.9,294.6 212.5,304.3 215.1,294.6 "/>
<line class="st0" x1="202.5" y1="288.3" x2="202.5" y2="302.2"/>
<polygon class="st2" points="205.1,290.9 202.5,281.2 199.9,290.9 "/>
<line class="st0" x1="192.5" y1="307.3" x2="192.5" y2="302.3"/>
<line class="st0" x1="182.5" y1="307.3" x2="182.5" y2="302.3"/>
<polyline class="st0" points="182.5,283.3 182.5,274.3 181.7,273.8 138.4,273.8 137.5,273.3 137.5,202.3 "/>
<polyline class="st0" points="192.5,283.3 192.5,274.3 193.4,273.8 236.7,273.8 237.5,273.3 237.5,171.5 "/>
<line class="st0" x1="237.5" y1="161.8" x2="237.5" y2="99.8"/>
<polyline class="st1" points="240.5,39.8 247.5,39.8 247.5,99.8 227.5,99.8 227.5,39.8 234.5,39.8 "/>
<rect x="227.5" y="87.8" class="st0" width="20" height="6"/>
<rect x="234.5" y="22.8" class="st0" width="6" height="65"/>
<polyline class="st0" points="227.5,49.8 137.5,49.8 137.5,50.5 137.5,161.3 "/>
<g>
	<polygon class="st0" points="127.5,171.8 127.5,176.8 127.5,181.8 127.5,186.8 127.5,191.8 132.5,191.8 137.5,191.8 142.5,191.8 
		147.5,191.8 147.5,186.8 147.5,181.8 147.5,176.8 147.5,171.8 142.5,171.8 137.5,171.8 132.5,171.8 	"/>
	<line class="st0" x1="142.5" y1="185.8" x2="142.5" y2="171.8"/>
	<g>
		<polygon class="st2" points="139.9,183.2 142.5,193 145.1,183.2 		"/>
	</g>
	<g>
		<g>
			<polyline class="st0" points="127.6,184.1 126.5,181.7 125.4,179.4 124.3,177 123.2,174.6 122.1,172.2 121,169.9 			"/>
			<g>
				<polygon class="st2" points="123.7,170.1 120.4,166.2 117.2,162.3 118,167.3 118.9,172.3 121.3,171.2 				"/>
			</g>
		</g>
		<polyline class="st1" points="126.5,176.3 126.5,180.3 124.9,171.4 123.3,180.3 121.7,171.4 120.1,180.3 118.5,171.4 118.5,176.3 
					"/>
	</g>
	<polyline class="st1" points="137.5,171.8 142.5,166.8 152.5,166.8 152.5,177.8 148,177.8 	"/>
	<polyline class="st1" points="137.5,191.8 132.5,196.8 122.5,196.8 122.5,185.8 127,185.8 	"/>
	<polyline class="st1" points="137.5,172.3 137.5,161.8 102.5,161.8 102.5,177.3 	"/>
	<polyline class="st1" points="102.5,185.3 102.5,201.8 137.5,201.8 137.5,192.3 	"/>
	<g>
		<path class="st0" d="M99.5,180.3c0,1.7,1.4,3.1,3.1,3.1c1.7,0,3.1-1.4,3.1-3.1s-1.4-3.1-3.1-3.1
			C100.8,177.3,99.5,178.6,99.5,180.3z"/>
		<polyline class="st0" points="107.3,180.9 102.5,185.9 97.8,180.9 		"/>
	</g>
</g>
<g>
	<polygon class="st0" points="202.5,131.8 197.5,131.8 192.5,131.8 187.5,131.8 182.5,131.8 182.5,136.8 182.5,141.8 182.5,146.8 
		182.5,151.8 187.5,151.8 192.5,151.8 197.5,151.8 202.5,151.8 202.5,146.8 202.5,141.8 202.5,136.8 	"/>
	<g>
		<line class="st0" x1="188" y1="146.8" x2="202" y2="146.8"/>
		<g>
			<polygon class="st2" points="190.7,144.2 180.9,146.8 190.7,149.4 			"/>
		</g>
	</g>
</g>
<g>
	<path class="st0" d="M161.5,144.9c1.7,0,3.1-1.4,3.1-3.1c0-1.7-1.4-3.1-3.1-3.1c-1.7,0-3.1,1.4-3.1,3.1
		C158.4,143.5,159.8,144.9,161.5,144.9z"/>
	<polyline class="st0" points="162,137.1 167,141.8 162,146.6 	"/>
</g>
<g>
	<path class="st0" d="M228.3,226.8c-1.7,0-3.1,1.4-3.1,3.1c0,1.7,1.4,3.1,3.1,3.1s3.1-1.4,3.1-3.1
		C231.3,228.1,230,226.8,228.3,226.8z"/>
	<polyline class="st0" points="227.7,234.6 222.7,229.8 227.7,225.1 	"/>
</g>
<g>
	<path class="st0" d="M234.5,165.4c0,1.7,1.4,3.1,3.1,3.1c1.7,0,3.1-1.4,3.1-3.1s-1.4-3.1-3.1-3.1
		C235.8,162.3,234.5,163.7,234.5,165.4z"/>
	<polyline class="st0" points="242.3,166 237.5,171 232.8,166 	"/>
</g>
<line class="st0" x1="137.5" y1="141.8" x2="158.9" y2="141.8"/>
<g>
	<path class="st0" d="M170.1,182.6c-2.1,1.1-4.4,1.7-6.9,1.7c-2.5,0-4.9-0.6-7-1.8"/>
	<path class="st0" d="M170.1,189c-2.1-1.1-4.4-1.7-6.9-1.7c-2.5,0-4.9,0.6-7,1.8"/>
</g>
<g>
	<path class="st0" d="M170.1,226.6c-2.1,1.1-4.4,1.7-6.9,1.7c-2.5,0-4.9-0.6-7-1.8"/>
	<path class="st0" d="M170.1,233c-2.1-1.1-4.4-1.7-6.9-1.7c-2.5,0-4.9,0.6-7,1.8"/>
</g>
<g>
	<path class="st0" d="M204.9,226.6c2.1,1.1,4.4,1.7,6.9,1.7c2.5,0,4.9-0.6,7-1.8"/>
	<path class="st0" d="M204.9,233c2.1-1.1,4.4-1.7,6.9-1.7c2.5,0,4.9,0.6,7,1.8"/>
</g>
<line class="st3" x1="147.5" y1="185.8" x2="238" y2="185.8"/>
<path class="st0" d="M237.5,171.5"/>
<g>
	<g>
		<line class="st0" x1="231.1" y1="229.8" x2="234.1" y2="229.8"/>
		<line class="st0" x1="234.5" y1="229.8" x2="237.5" y2="229.8"/>
	</g>
</g>
<g>
	<g>
		<line class="st0" x1="222.7" y1="229.8" x2="219.7" y2="229.8"/>
		<line class="st4" x1="216.5" y1="229.8" x2="142.1" y2="229.8"/>
		<line class="st0" x1="140.5" y1="229.8" x2="137.5" y2="229.8"/>
	</g>
</g>
<circle class="st2" cx="187.5" cy="229.8" r="1.5"/>
<circle class="st2" cx="237.5" cy="229.8" r="1.5"/>
<circle class="st2" cx="137.5" cy="229.8" r="1.5"/>
<circle class="st2" cx="237.5" cy="185.8" r="1.5"/>
<circle class="st2" cx="187.5" cy="193.8" r="1.5"/>
<circle class="st2" cx="187.5" cy="221.8" r="1.5"/>
<circle class="st2" cx="237.5" cy="141.8" r="1.5"/>
<circle class="st2" cx="211.5" cy="141.8" r="1.5"/>
<circle class="st2" cx="137.5" cy="141.8" r="1.5"/>
<circle class="st2" cx="178.5" cy="185.8" r="1.5"/>
<g>
	<g>
		<line class="st0" x1="187.5" y1="167.8" x2="187.5" y2="170.8"/>
		<line class="st5" x1="187.5" y1="174" x2="187.5" y2="178.8"/>
		<path class="st0" d="M187.5,180.3v3c1.1,0,2,0.7,2.3,1.6"/>
		<path class="st0" d="M189.9,186.7c-0.4,0.9-1.3,1.6-2.3,1.6v3"/>
		<line class="st6" x1="187.5" y1="196.4" x2="187.5" y2="224.3"/>
		<line class="st0" x1="187.5" y1="226.8" x2="187.5" y2="229.8"/>
	</g>
</g>
<g>
	<path class="st0" d="M205.6,209.1c0-1.7-1.4-3.1-3.1-3.1c-1.7,0-3.1,1.4-3.1,3.1s1.4,3.1,3.1,3.1
		C204.2,212.2,205.6,210.8,205.6,209.1z"/>
	<polyline class="st0" points="197.8,208.6 202.5,203.6 207.3,208.6 	"/>
</g>
<g>
	<path class="st0" d="M184.3,200.5c1.1,2.1,1.7,4.4,1.7,6.9c0,2.5-0.6,4.9-1.8,7"/>
	<path class="st0" d="M190.7,200.5c-1.1,2.1-1.7,4.4-1.7,6.9c0,2.5,0.6,4.9,1.8,7"/>
</g>
<g>
	<g>
		<line class="st0" x1="187" y1="221.8" x2="190" y2="221.8"/>
		<line class="st7" x1="192.4" y1="221.8" x2="198.4" y2="221.8"/>
		<polyline class="st0" points="199.5,221.8 202.5,221.8 202.5,218.8 		"/>
		<line class="st0" x1="202.5" y1="215.3" x2="202.5" y2="212.3"/>
	</g>
</g>
<g>
	<g>
		<line class="st0" x1="187" y1="193.8" x2="190" y2="193.8"/>
		<line class="st7" x1="192.4" y1="193.8" x2="198.4" y2="193.8"/>
		<polyline class="st0" points="199.5,193.8 202.5,193.8 202.5,196.8 		"/>
		<line class="st0" x1="202.5" y1="200.3" x2="202.5" y2="203.3"/>
	</g>
</g>
<g>
	<polyline class="st0" points="194.6,212.9 192.5,211.4 190.3,209.9 188.2,208.4 186,206.8 183.9,205.3 181.8,203.9 	"/>
	<g>
		<polygon class="st2" points="184.4,202.3 179.6,200.6 174.9,198.9 178.1,202.7 181.4,206.6 182.9,204.4 		"/>
	</g>
</g>
<line class="st0" x1="203" y1="141.8" x2="237.5" y2="141.8"/>
<line class="st0" x1="167" y1="141.8" x2="183" y2="141.8"/>
<g>
	<rect x="182.5" y="151.8" class="st0" width="10" height="16"/>
	<polygon class="st2" points="192,167.3 187.5,161.3 183,167.3 	"/>
</g>
<g>
	<rect x="187.5" y="115.8" class="st0" width="10" height="16"/>
	<polygon class="st2" points="188,116.3 192.5,122.3 197,116.3 	"/>
</g>
<g>
	<g>
		<line class="st0" x1="198.5" y1="151.8" x2="198.5" y2="154.8"/>
		<polyline class="st0" points="198.5,154.8 198.5,157.8 201.5,157.8 		"/>
		<line class="st8" x1="203.3" y1="157.8" x2="207.7" y2="157.8"/>
		<polyline class="st0" points="208.5,157.8 211.5,157.8 211.5,154.8 		"/>
		<line class="st7" x1="211.5" y1="152.5" x2="211.5" y2="146.5"/>
		<line class="st0" x1="211.5" y1="145.3" x2="211.5" y2="142.3"/>
	</g>
</g>
<g>
	<g>
		<line class="st0" x1="178.5" y1="186.3" x2="178.5" y2="183.3"/>
		<line class="st9" x1="178.5" y1="180.6" x2="178.5" y2="148.7"/>
		<path class="st0" d="M178.5,147.3v-3c-1.1,0-2-0.7-2.3-1.6"/>
		<path class="st0" d="M176.2,140.9c0.4-0.9,1.3-1.6,2.3-1.6v-3"/>
		<line class="st10" x1="178.5" y1="133" x2="178.5" y2="114.5"/>
		<polyline class="st0" points="178.5,112.8 178.5,109.8 181.5,109.8 		"/>
		<line class="st11" x1="183.5" y1="109.8" x2="188.5" y2="109.8"/>
		<polyline class="st0" points="189.5,109.8 192.5,109.8 192.5,115.3 		"/>
	</g>
</g>
<rect x="92.5" y="104.8" class="st12" width="155" height="135"/>
</svg>
