<?xml version="1.0" encoding="utf-8"?>
<!-- Generator: Adobe Illustrator 24.0.0, SVG Export Plug-In . SVG Version: 6.00 Build 0)  -->
<svg version="1.1" id="Layer_1" xmlns="http://www.w3.org/2000/svg" xmlns:xlink="http://www.w3.org/1999/xlink" x="0px" y="0px"
	 viewBox="0 0 170 170" style="enable-background:new 0 0 170 170;" xml:space="preserve">
<style type="text/css">
	.st0{fill:none;stroke:#0D0D0D;stroke-width:1.5;stroke-miterlimit:10;}
	.st1{fill:none;stroke:#0D0D0D;stroke-width:1.5;stroke-linejoin:round;stroke-miterlimit:10;}
	.st2{fill:#0D0D0D;}
	.st3{fill:none;stroke:#999999;stroke-width:1.5;stroke-miterlimit:10;}
	.st4{fill:none;stroke:#0D0D0D;stroke-width:1.5;stroke-miterlimit:10;stroke-dasharray:3,3;}
	.st5{fill:#FFFFFF;stroke:#0D0D0D;stroke-width:1.5;stroke-miterlimit:10;}
</style>
<polyline class="st0" points="74.92,148.58 74.92,144.27 74.92,139.55 74.92,134.83 74.92,129.7 "/>
<polyline class="st1" points="36.86,133.68 38.86,138.19 42.06,129.52 45.27,138.19 48.48,129.52 51.68,138.19 54.88,129.52 
	54.88,133.68 "/>
<polyline class="st1" points="114.98,133.68 114.98,129.52 118.18,138.19 121.38,129.52 124.59,138.19 127.8,129.52 131,138.19 
	131,134.17 "/>
<polygon class="st0" points="94.95,149.08 92.44,149.08 89.94,149.08 87.43,149.08 84.93,149.08 82.43,149.08 79.92,149.08 
	77.42,149.08 74.92,149.08 72.41,149.08 69.91,149.08 67.4,149.08 64.9,149.08 62.4,149.08 59.89,149.08 57.39,149.08 54.88,149.08 
	54.88,147.84 54.88,146.59 54.88,145.35 54.88,144.11 54.88,142.87 54.88,141.63 54.88,140.38 54.88,139.14 54.88,137.9 
	54.88,136.66 54.88,135.42 54.88,134.17 54.88,132.93 54.88,131.69 54.88,130.45 54.88,129.21 57.39,129.21 59.89,129.21 
	62.4,129.21 64.9,129.21 67.4,129.21 69.91,129.21 72.41,129.21 74.92,129.21 77.42,129.21 79.92,129.21 82.43,129.21 84.93,129.21 
	87.43,129.21 89.94,129.21 92.44,129.21 94.95,129.21 94.95,130.45 94.95,131.69 94.95,132.93 94.95,134.17 94.95,135.42 
	94.95,136.66 94.95,137.9 94.95,139.14 94.95,140.38 94.95,141.63 94.95,142.87 94.95,144.11 94.95,145.35 94.95,146.59 
	94.95,147.84 "/>
<g>
	<rect x="38.86" y="140.13" class="st0" width="16.02" height="8.94"/>
	<line class="st0" x1="43.14" y1="140.2" x2="49.66" y2="149.05"/>
</g>
<g>
	<rect x="114.98" y="140.13" class="st0" width="16.02" height="8.94"/>
	<line class="st0" x1="126.72" y1="140.2" x2="120.2" y2="149.05"/>
</g>
<g>
	<line class="st0" x1="33.35" y1="143.12" x2="38.36" y2="143.12"/>
	<line class="st0" x1="38.36" y1="146.1" x2="32.35" y2="146.1"/>
	<line class="st0" x1="29.97" y1="151.52" x2="38.86" y2="128.21"/>
	<ellipse class="st0" cx="39.62" cy="126.18" rx="2" ry="1.99"/>
</g>
<rect x="94.95" y="129.21" class="st0" width="20.03" height="19.87"/>
<line class="st0" x1="67.78" y1="144.35" x2="59.89" y2="129.21"/>
<polygon class="st2" points="65.69,144.07 70.17,149.08 68.81,142.52 "/>
<line class="st0" x1="59.89" y1="149.08" x2="67.79" y2="133.93"/>
<polygon class="st2" points="65.69,134.21 70.17,129.21 68.81,135.76 "/>
<line class="st0" x1="109.97" y1="143.61" x2="109.97" y2="129.7"/>
<polygon class="st2" points="108.22,142.62 109.97,149.08 111.71,142.62 "/>
<line class="st0" x1="99.95" y1="134.67" x2="99.95" y2="148.58"/>
<polygon class="st2" points="101.7,135.66 99.95,129.2 98.21,135.66 "/>
<line class="st0" x1="90" y1="154.69" x2="90" y2="149.69"/>
<line class="st0" x1="80" y1="154.69" x2="80" y2="149.69"/>
<polyline class="st0" points="80,128.69 80,119.69 79.17,119.19 55.83,119.19 55,118.69 55,103.69 "/>
<polyline class="st0" points="90,128.69 90,119.69 90.83,119.19 114.17,119.19 115,118.69 115,103.69 "/>
<polyline class="st0" points="74.93,27.19 55,27.19 55,27.88 55,62.69 "/>
<polyline class="st0" points="95.5,27.19 115,27.19 115,27.88 115,62.69 "/>
<rect x="10" y="58.19" class="st3" width="150" height="50"/>
<g>
	<g>
		<path class="st0" d="M153.07,81.67c0,1.7-1.37,3.07-3.07,3.07c-1.7,0-3.07-1.37-3.07-3.07s1.37-3.07,3.07-3.07
			C151.7,78.6,153.07,79.98,153.07,81.67z"/>
		<polyline class="st0" points="154.74,81.67 150,86.41 145.26,81.67 		"/>
		<line class="st1" x1="150" y1="86.69" x2="150" y2="87.69"/>
	</g>
	<polygon class="st0" points="125,73.19 125,78.19 125,83.19 125,88.19 125,93.19 120,93.19 115,93.19 110,93.19 105,93.19 
		105,88.19 105,83.19 105,78.19 105,73.19 110,73.19 115,73.19 120,73.19 	"/>
	<g>
		<line class="st0" x1="110" y1="86.69" x2="110" y2="72.69"/>
		<g>
			<polygon class="st2" points="111.74,85.69 110,92.2 108.26,85.69 			"/>
		</g>
	</g>
	<g>
		<g>
			<polyline class="st0" points="125.65,84.46 126.76,82.08 127.87,79.7 128.98,77.32 130.09,74.95 131.2,72.57 132.28,70.25 			"/>
			<g>
				<polygon class="st2" points="130.7,69.51 132.87,66.93 135.03,64.35 134.45,67.67 133.86,70.98 132.28,70.25 				"/>
			</g>
		</g>
		<polyline class="st1" points="125.74,77.41 125.74,81.66 127.34,72.7 128.94,81.66 130.54,72.7 132.14,81.66 133.74,72.7 
			133.74,77.41 		"/>
	</g>
	<polyline class="st1" points="115,73.19 110,68.19 100,68.19 100,83.19 104.5,83.19 	"/>
	<polyline class="st1" points="115,93.19 120,98.19 130,98.19 130,83.19 125.5,83.19 	"/>
	<polyline class="st1" points="115,73.19 115,63.19 150,63.19 150,78.6 	"/>
	<polyline class="st1" points="150,86.41 150,103.19 115,103.19 115,93.19 	"/>
</g>
<g>
	<path class="st0" d="M16.93,81.67c0,1.7,1.37,3.07,3.07,3.07c1.7,0,3.07-1.37,3.07-3.07S21.7,78.6,20,78.6
		C18.3,78.6,16.93,79.98,16.93,81.67z"/>
	<polyline class="st0" points="15.26,81.67 20,86.41 24.74,81.67 	"/>
	<line class="st1" x1="20" y1="86.69" x2="20" y2="87.69"/>
</g>
<polygon class="st0" points="45,73.19 45,78.19 45,83.19 45,88.19 45,93.19 50,93.19 55,93.19 60,93.19 65,93.19 65,88.19 65,83.19 
	65,78.19 65,73.19 60,73.19 55,73.19 50,73.19 "/>
<g>
	<line class="st0" x1="60" y1="86.69" x2="60" y2="72.69"/>
	<g>
		<polygon class="st2" points="58.26,85.69 60,92.2 61.74,85.69 		"/>
	</g>
</g>
<g>
	<g>
		<polyline class="st0" points="44.35,84.46 43.24,82.08 42.13,79.7 41.02,77.32 39.91,74.95 38.8,72.57 37.72,70.25 		"/>
		<g>
			<polygon class="st2" points="39.3,69.51 37.13,66.93 34.97,64.35 35.55,67.67 36.14,70.98 37.72,70.25 			"/>
		</g>
	</g>
	<polyline class="st1" points="44.26,77.41 44.26,81.66 42.66,72.7 41.06,81.66 39.46,72.7 37.86,81.66 36.26,72.7 36.26,77.41 	"/>
</g>
<polyline class="st1" points="55,73.19 60,68.19 70,68.19 70,83.19 65.5,83.19 "/>
<polyline class="st1" points="55,93.19 50,98.19 40,98.19 40,83.19 44.5,83.19 "/>
<polyline class="st4" points="65.5,89.19 70.5,89.19 109.5,103.19 114.5,103.19 "/>
<polyline class="st4" points="104.5,89.19 99.5,89.19 60.5,103.19 55.5,103.19 "/>
<polyline class="st1" points="55,73.19 55,63.19 20,63.19 20,78.6 "/>
<polyline class="st1" points="20,86.41 20,103.19 55,103.19 55,93.19 "/>
<g>
	<circle class="st5" cx="84.93" cy="27.21" r="10"/>
	<g>
		<path class="st2" d="M81.93,27.21l-6.31-3.64c-0.44,1.13-0.69,2.35-0.69,3.64c0,1.29,0.25,2.51,0.69,3.64L81.93,27.21z"/>
		<path class="st2" d="M87.93,27.21l6.31,3.64c0.44-1.13,0.69-2.35,0.69-3.64c0-1.29-0.25-2.51-0.69-3.64L87.93,27.21z"/>
	</g>
</g>
<g>
	<g>
		<g>
			<line class="st0" x1="77.5" y1="134.19" x2="82.5" y2="134.19"/>
			<line class="st0" x1="80" y1="129.69" x2="80" y2="133.69"/>
		</g>
		<g>
			<line class="st0" x1="87.5" y1="134.19" x2="92.5" y2="134.19"/>
			<line class="st0" x1="90" y1="129.69" x2="90" y2="133.69"/>
		</g>
	</g>
	<g>
		<line class="st0" x1="77.5" y1="144.19" x2="82.5" y2="144.19"/>
		<line class="st0" x1="80" y1="148.69" x2="80" y2="144.69"/>
	</g>
	<g>
		<line class="st0" x1="87.5" y1="144.19" x2="92.5" y2="144.19"/>
		<line class="st0" x1="90" y1="148.69" x2="90" y2="144.69"/>
	</g>
</g>
</svg>
