<?xml version="1.0" encoding="utf-8"?>
<!-- Generator: Adobe Illustrator 24.0.0, SVG Export Plug-In . SVG Version: 6.00 Build 0)  -->
<svg version="1.1" id="Layer_1" xmlns="http://www.w3.org/2000/svg" xmlns:xlink="http://www.w3.org/1999/xlink" x="0px" y="0px"
	 viewBox="0 0 800 400" style="enable-background:new 0 0 800 400;" xml:space="preserve">
<style type="text/css">
	.st0{stroke:#000000;stroke-miterlimit:10;}
	.st1{fill:#8C8C8C;stroke:#000000;stroke-width:2;stroke-linejoin:round;stroke-miterlimit:10;}
	.st2{fill:#C80000;stroke:#000000;stroke-width:2;stroke-linejoin:round;stroke-miterlimit:10;}
	.st3{fill:#B3B3B3;stroke:#000000;stroke-linejoin:round;stroke-miterlimit:10;}
	.st4{fill:#C83200;stroke:#000000;stroke-linejoin:round;stroke-miterlimit:10;}
	.st5{stroke:#000000;stroke-width:2;stroke-linejoin:round;stroke-miterlimit:10;}
</style>
<path class="st0" d="M387.1,260.8c-0.8,1.2,1.4,1.8,2.7,1.7c3.6-0.3,7.1-0.6,10.6-1.1c6.6-0.8,13.1-1.8,19.7-2.6
	c2.9-0.4,5.9-0.5,8.7,0.8c1.5,0.7,2.9,0.4,4.5-0.1c7.9-2.6,16-2.4,24.2-1.5c5.3,0.6,8.3,4.5,12.4,7c0.9,0.6,0.9,1.8,0.9,2.8
	c0,1.9,0.2,3.9-0.1,5.7c-1.2,6.4,2,11.6,4.4,17c0.6,1.5,1.7,1.7,3.1,1.5c1.6-0.2,3.3-0.6,4.9-0.5c6.3,0.2,8.4,2.4,8.3,8.6
	c-0.3,14.1-0.7,28.3-1.3,42.4c-0.2,5.8-3.5,7.8-9.3,6.3c-6.4-1.6-7.3-1-9.7,5.2c-3.2,8.5-9.4,13.5-18.5,14.6
	c-4.9,0.6-9-1.3-12.1-5.2c-2.4-2.9-4.9-5.7-8.3-8.6c-0.9,5.3-2.9,9.6-5.6,13.6c-4.6,6.9-21.7,9.7-27.5,1.3c-1.2-1.8-3.1-3.1-4.5-4.7
	c-1.7-1.9-3.4-3.2-5.7-0.6c-0.4,0.5-1.4,0.7-2.1,0.7c-10.2-0.4-19.9,2.7-29.9,3.8c-1.2,0.1-2.4,0.8-3.5,1.4
	c-6.5,3-11.8,0.9-15.8-5.1c-3.1-4.7-5.3-10.3-11-12.9c-0.7-0.3-1.5-1.2-1.7-2c-1.6-4.8-5.6-8.5-6.7-13.6c-0.5-2.6-2.5-4.8-4.5-6.1
	c-7-4.5-8.5-12-10.7-19.1c-2.2-7-1.4-14.1,0.9-21c1.5-4.5,1.2-9,1.3-13.6c0.1-4.2,1.4-5.7,5.5-6.4c3-0.5,6.1-0.6,9,0.7
	c1.7,0.8,3.7,0.8,4.3-0.9l29.6-4.4c1.3,0.8,3.5,0.6,4.1-0.8L387.1,260.8z"/>
<path class="st1" d="M378.9,200.8c0-0.5-0.1-1-0.1-1.5c0-9.3,0.4-18.6,0.2-27.9c-0.4-26.9-0.2-53.8-0.3-80.7c0-3-0.6-6,2.9-7.9
	l-11.8,3c0.4,0.2,0.4,1.2,0.4,1.8c0.2,4.2,0.6,8.4,0.6,12.6c0.1,17.2-0.3,34.4,0.3,51.6c0.6,16.5-0.2,33.1,1.2,49.7
	c0,0,1.5,0.3,3.3,0.1C377.6,201.4,378.9,200.8,378.9,200.8z"/>
<path class="st2" d="M381.7,93.3c1.3-0.7,1-2.5,1-3.9c0-5.7-0.2-11.5,0.1-17.2c0.6-10.3,0.6-20.6,0.6-31c0-2.3-0.1-4.5-2.8-5.2
	c-3.9-0.9-7.8-1.5-11.7-0.5c-4.4,1.2-5.8,2.7-5.5,7.2c0.7,14.1,1.4,28.2,2.5,42.3c0.3,3.9-0.7,8.1,4,11.1c1.5,1,7.9,0,7.9,0
	L381.7,93.3z"/>
<path class="st3" d="M345.2,208.1c0.4-0.3-0.1-1-0.1-1.6c0.5-15.2-0.7-30.3-0.7-45.5c0-23.2,0.2-46.4-0.8-69.6c-0.1-1.7-0.7-4,1.1-5
	L333,86c3.3,1.1,2.9,3.7,2.9,6.2c0.2,15.8,0.6,31.6,0.6,47.4c0.1,22,0.7,44.1,1.4,66.1c0,0.7,0.1,1.5,0.1,2.2c0,0-0.2,0.7,2,0.9
	C342.4,209,343.7,209.1,345.2,208.1z"/>
<path class="st4" d="M344.7,106.5c3-1.5,2.7-4,2.7-6.5c0-4.6-0.1-9.2,0.2-13.8c0.7-11.7,0.4-23.4,0.6-35.2c0-3.1-1.1-4.6-4.1-5.3
	c-4.1-0.9-8.1-0.7-12.1,0.4c-2.5,0.6-3.7,2-3.5,5c0.6,6.6,0.6,13.2,1.1,19.8c0.7,10.7,1.5,21.3,2.2,32c0.1,1.1-0.1,2.7,1.2,3
	c3.7,0.9,4.9,1.5,7.5,1.3C343.2,107.1,344.7,106.5,344.7,106.5z"/>
<path class="st5" d="M353.7,266.2c1.3-1,0.3-2,0.3-3c0.1-4.1,0.5-8.1,3.2-11.4c0.2-0.2,0.2-0.8,0-1.1c-1.5-4-2.6-8.3-5.4-11.5
	c-1.5-1.8-2.2-3.5-2.2-5.8c0-6.2,0.3-12.5-0.7-18.7c-0.3-1.5-0.2-3.2-1.8-4c-1.3-0.6-1.8-1.5-1.9-2.5l-7-0.2c0,0.9-0.3,1.8-1.2,2.4
	c-1.8,1.2-1.6,3-2,4.7c-1.4,6.4,0.5,12.7,0.1,19c-0.1,1.4,0.4,3.2-0.9,3.9c-4,2.2-4.5,6.4-6.3,10c-1.3,2.6-0.9,4.5,0.8,6.6
	c1.1,1.4,1.1,3.1,1,5c-0.2,4.6-4.1,7.1-5.5,11c0,0,3.5,1.9,12,1.4C344.7,271.5,349.6,269.5,353.7,266.2z"/>
<path class="st5" d="M387.1,260.8c2.1-3.3-0.2-7.4,1.9-10.2c3.3-4.3,1.3-8.1-0.9-11.5c-3.8-5.8-5.7-11.8-4.8-18.7
	c0.2-1.4,0.3-2.9,0-4.2c-0.8-3,0.5-6.7-1.9-9.1c-1.8-1.8-2.4-3.6-2.5-5.7l-6.5,0.6c0.1,1.6,0.6,3.5-1.1,4.6c-2.4,1.4-2.6,3.6-2.6,6
	c0,5.9,0,11.7,0,17.6c0,1.7-0.1,3.2-1.8,4.3c-2.9,1.9-3.1,5.3-4.5,8c-1.7,3.1-1.3,6,0.9,8.8c0.8,1,0.6,2.3,0.5,3.7
	c-0.5,4.3-4.2,6.9-5.9,10.5c0,0,4.1,1.2,14.2,0C382.1,264.1,387.1,260.8,387.1,260.8z"/>
</svg>
