<?xml version="1.0" encoding="UTF-8" standalone="no"?>
<!-- Generator: Adobe Illustrator 24.0.0, SVG Export Plug-In . SVG Version: 6.00 Build 0)  -->

<svg
   xmlns:dc="http://purl.org/dc/elements/1.1/"
   xmlns:cc="http://creativecommons.org/ns#"
   xmlns:rdf="http://www.w3.org/1999/02/22-rdf-syntax-ns#"
   xmlns:svg="http://www.w3.org/2000/svg"
   xmlns="http://www.w3.org/2000/svg"
   xmlns:sodipodi="http://sodipodi.sourceforge.net/DTD/sodipodi-0.dtd"
   xmlns:inkscape="http://www.inkscape.org/namespaces/inkscape"
   version="1.1"
   id="Layer_1"
   x="0px"
   y="0px"
   viewBox="0 0 260 390"
   xml:space="preserve"
   sodipodi:docname="sl001_2x3.svg"
   width="260"
   height="390"
   inkscape:version="0.92.4 (5da689c313, 2019-01-14)"><metadata
   id="metadata166458"><rdf:RDF><cc:Work
       rdf:about=""><dc:format>image/svg+xml</dc:format><dc:type
         rdf:resource="http://purl.org/dc/dcmitype/StillImage" /><dc:title></dc:title></cc:Work></rdf:RDF></metadata><defs
   id="defs166456" /><sodipodi:namedview
   pagecolor="#ffffff"
   bordercolor="#666666"
   borderopacity="1"
   objecttolerance="10"
   gridtolerance="10"
   guidetolerance="10"
   inkscape:pageopacity="0"
   inkscape:pageshadow="2"
   inkscape:window-width="1920"
   inkscape:window-height="1027"
   id="namedview166454"
   showgrid="false"
   fit-margin-top="0"
   fit-margin-left="0"
   fit-margin-right="0"
   fit-margin-bottom="0"
   inkscape:zoom="0.86"
   inkscape:cx="354.84845"
   inkscape:cy="210.219"
   inkscape:window-x="-8"
   inkscape:window-y="-8"
   inkscape:window-maximized="1"
   inkscape:current-layer="Layer_1" />
<style
   type="text/css"
   id="style166437">
	.st0{stroke:#000000;stroke-miterlimit:10;}
	.st1{fill:#8C8C8C;stroke:#000000;stroke-width:2;stroke-linejoin:round;stroke-miterlimit:10;}
	.st2{fill:#C80000;stroke:#000000;stroke-width:2;stroke-linejoin:round;stroke-miterlimit:10;}
	.st3{fill:#B3B3B3;stroke:#000000;stroke-linejoin:round;stroke-miterlimit:10;}
	.st4{fill:#C83200;stroke:#000000;stroke-linejoin:round;stroke-miterlimit:10;}
	.st5{stroke:#000000;stroke-width:2;stroke-linejoin:round;stroke-miterlimit:10;}
</style>
<path
   class="st0"
   d="m 127.73489,245.09767 c -0.8,1.2 1.4,1.8 2.7,1.7 3.6,-0.3 7.1,-0.6 10.6,-1.1 6.6,-0.8 13.1,-1.8 19.7,-2.6 2.9,-0.4 5.9,-0.5 8.7,0.8 1.5,0.7 2.9,0.4 4.5,-0.1 7.9,-2.6 16,-2.4 24.2,-1.5 5.3,0.6 8.3,4.5 12.4,7 0.9,0.6 0.9,1.8 0.9,2.8 0,1.9 0.2,3.9 -0.1,5.7 -1.2,6.4 2,11.6 4.4,17 0.6,1.5 1.7,1.7 3.1,1.5 1.6,-0.2 3.3,-0.6 4.9,-0.5 6.3,0.2 8.4,2.4 8.3,8.6 -0.3,14.1 -0.7,28.3 -1.3,42.4 -0.2,5.8 -3.5,7.8 -9.3,6.3 -6.4,-1.6 -7.3,-1 -9.7,5.2 -3.2,8.5 -9.4,13.5 -18.5,14.6 -4.9,0.6 -9,-1.3 -12.1,-5.2 -2.4,-2.9 -4.9,-5.7 -8.3,-8.6 -0.9,5.3 -2.9,9.6 -5.6,13.6 -4.6,6.9 -21.7,9.7 -27.5,1.3 -1.2,-1.8 -3.1,-3.1 -4.5,-4.7 -1.7,-1.9 -3.4,-3.2 -5.7,-0.6 -0.4,0.5 -1.4,0.7 -2.1,0.7 -10.2,-0.4 -19.9,2.7 -29.900002,3.8 -1.2,0.1 -2.4,0.8 -3.5,1.4 -6.5,3 -11.8,0.9 -15.8,-5.1 -3.1,-4.7 -5.3,-10.3 -11,-12.9 -0.7,-0.3 -1.5,-1.2 -1.7,-2 -1.6,-4.8 -5.6,-8.5 -6.7,-13.6 -0.5,-2.6 -2.5,-4.8 -4.5,-6.1 -7,-4.5 -8.5,-12 -10.7,-19.1 -2.2,-7 -1.4,-14.1 0.9,-21 1.5,-4.5 1.2,-9 1.3,-13.6 0.1,-4.2 1.4,-5.7 5.5,-6.4 3,-0.5 6.1,-0.6 9,0.7 1.7,0.8 3.7,0.8 4.3,-0.9 l 29.6,-4.4 c 1.3,0.8 3.5,0.6 4.1,-0.8 z"
   id="path166439"
   inkscape:connector-curvature="0"
   style="stroke:#000000;stroke-miterlimit:10" />
<path
   class="st1"
   d="m 119.53489,185.09767 c 0,-0.5 -0.1,-1 -0.1,-1.5 0,-9.3 0.4,-18.6 0.2,-27.9 -0.4,-26.9 -0.2,-53.8 -0.3,-80.699996 0,-3 -0.6,-6 2.9,-7.9 l -11.8,3 c 0.4,0.2 0.4,1.2 0.4,1.8 0.2,4.2 0.6,8.4 0.6,12.6 0.1,17.199996 -0.3,34.399996 0.3,51.599996 0.6,16.5 -0.2,33.1 1.2,49.7 0,0 1.5,0.3 3.3,0.1 2,-0.2 3.3,-0.8 3.3,-0.8 z"
   id="path166441"
   inkscape:connector-curvature="0"
   style="fill:#8c8c8c;stroke:#000000;stroke-width:2;stroke-linejoin:round;stroke-miterlimit:10" />
<path
   class="st2"
   d="m 122.33489,77.597674 c 1.3,-0.7 1,-2.5 1,-3.9 0,-5.7 -0.2,-11.5 0.1,-17.2 0.6,-10.3 0.6,-20.6 0.6,-31 0,-2.3 -0.1,-4.5 -2.8,-5.2 -3.9,-0.9 -7.8,-1.5 -11.7,-0.5 -4.4,1.2 -5.8,2.7 -5.5,7.2 0.7,14.1 1.4,28.2 2.5,42.3 0.3,3.9 -0.7,8.1 4,11.1 1.5,1 7.9,0 7.9,0 z"
   id="path166443"
   inkscape:connector-curvature="0"
   style="fill:#c80000;stroke:#000000;stroke-width:2;stroke-linejoin:round;stroke-miterlimit:10" />
<path
   class="st3"
   d="m 85.834888,192.39767 c 0.4,-0.3 -0.1,-1 -0.1,-1.6 0.5,-15.2 -0.7,-30.3 -0.7,-45.5 0,-23.2 0.2,-46.399996 -0.8,-69.599996 -0.1,-1.7 -0.7,-4 1.1,-5 l -11.7,-0.4 c 3.3,1.1 2.9,3.7 2.9,6.2 0.2,15.8 0.6,31.599996 0.6,47.399996 0.1,22 0.7,44.1 1.4,66.1 0,0.7 0.1,1.5 0.1,2.2 0,0 -0.2,0.7 2,0.9 2.4,0.2 3.7,0.3 5.2,-0.7 z"
   id="path166445"
   inkscape:connector-curvature="0"
   style="fill:#b3b3b3;stroke:#000000;stroke-linejoin:round;stroke-miterlimit:10" />
<path
   class="st4"
   d="m 85.334888,90.797674 c 3,-1.5 2.7,-4 2.7,-6.5 0,-4.6 -0.1,-9.2 0.2,-13.8 0.7,-11.7 0.4,-23.4 0.6,-35.2 0,-3.1 -1.1,-4.6 -4.1,-5.3 -4.1,-0.9 -8.1,-0.7 -12.1,0.4 -2.5,0.6 -3.7,2 -3.5,5 0.6,6.6 0.6,13.2 1.1,19.8 0.7,10.7 1.5,21.3 2.2,32 0.1,1.1 -0.1,2.7 1.2,3 3.7,0.9 4.9,1.5 7.5,1.3 2.7,-0.1 4.2,-0.7 4.2,-0.7 z"
   id="path166447"
   inkscape:connector-curvature="0"
   style="fill:#c83200;stroke:#000000;stroke-linejoin:round;stroke-miterlimit:10" />
<path
   class="st5"
   d="m 94.334888,250.49767 c 1.3,-1 0.3,-2 0.3,-3 0.1,-4.1 0.5,-8.1 3.2,-11.4 0.2,-0.2 0.2,-0.8 0,-1.1 -1.5,-4 -2.6,-8.3 -5.4,-11.5 -1.5,-1.8 -2.2,-3.5 -2.2,-5.8 0,-6.2 0.3,-12.5 -0.7,-18.7 -0.3,-1.5 -0.2,-3.2 -1.8,-4 -1.3,-0.6 -1.8,-1.5 -1.9,-2.5 l -7,-0.2 c 0,0.9 -0.3,1.8 -1.2,2.4 -1.8,1.2 -1.6,3 -2,4.7 -1.4,6.4 0.5,12.7 0.1,19 -0.1,1.4 0.4,3.2 -0.9,3.9 -4,2.2 -4.5,6.4 -6.3,10 -1.3,2.6 -0.9,4.5 0.8,6.6 1.1,1.4 1.1,3.1 1,5 -0.2,4.6 -4.1,7.1 -5.5,11 0,0 3.5,1.9 12,1.4 8.5,-0.5 13.4,-2.5 17.5,-5.8 z"
   id="path166449"
   inkscape:connector-curvature="0"
   style="stroke:#000000;stroke-width:2;stroke-linejoin:round;stroke-miterlimit:10" />
<path
   class="st5"
   d="m 127.73489,245.09767 c 2.1,-3.3 -0.2,-7.4 1.9,-10.2 3.3,-4.3 1.3,-8.1 -0.9,-11.5 -3.8,-5.8 -5.7,-11.8 -4.8,-18.7 0.2,-1.4 0.3,-2.9 0,-4.2 -0.8,-3 0.5,-6.7 -1.9,-9.1 -1.8,-1.8 -2.4,-3.6 -2.5,-5.7 l -6.5,0.6 c 0.1,1.6 0.6,3.5 -1.1,4.6 -2.4,1.4 -2.6,3.6 -2.6,6 0,5.9 0,11.7 0,17.6 0,1.7 -0.1,3.2 -1.8,4.3 -2.9,1.9 -3.1,5.3 -4.5,8 -1.7,3.1 -1.3,6 0.9,8.8 0.8,1 0.6,2.3 0.5,3.7 -0.5,4.3 -4.2,6.9 -5.900002,10.5 0,0 4.100002,1.2 14.200002,0 10,-1.4 15,-4.7 15,-4.7 z"
   id="path166451"
   inkscape:connector-curvature="0"
   style="stroke:#000000;stroke-width:2;stroke-linejoin:round;stroke-miterlimit:10" />
</svg>